G04 DipTrace 4.3.0.2*
G04 BottomMask.gbr*
%MOIN*%
G04 #@! TF.FileFunction,Soldermask,Bot*
G04 #@! TF.Part,Single*
%ADD40C,0.11811*%
%ADD41C,0.025591*%
%ADD60C,0.070866*%
%ADD61C,0.062992*%
%ADD62R,0.070866X0.070866*%
%ADD63R,0.062992X0.062992*%
%ADD64O,0.062992X0.03937*%
%ADD66O,0.082677X0.03937*%
%ADD72C,0.074803*%
%ADD74R,0.043307X0.043307*%
%FSLAX26Y26*%
G04*
G70*
G90*
G75*
G01*
G04 BotMask*
%LPD*%
D61*
X918701Y2206499D3*
D63*
X818701D3*
D61*
X1243701D3*
D63*
X1143701D3*
D61*
X3518701D3*
D63*
X3418701D3*
D61*
X3843701D3*
D63*
X3743701D3*
D74*
X2258959Y631499D3*
X2308172D3*
X2357385D3*
X2406597D3*
D40*
X499951Y3571825D3*
X4162450Y3574950D3*
X499951Y499950D3*
X4162450D3*
D72*
X884185Y2606499D3*
X984185D3*
X1084185D3*
X1184185D3*
X1284185D3*
X1384185D3*
X1484185D3*
X1584185D3*
X1684185D3*
X1784185D3*
X1884185D3*
X1984185D3*
X2084185D3*
X2184185D3*
X2284185D3*
X2384185D3*
X2484185D3*
X2584185D3*
X2684185D3*
X2784185D3*
X2884185D3*
X2984185D3*
X3084185D3*
X3184185D3*
X3284185D3*
X3384185D3*
X3484185D3*
X3584185D3*
X3684185D3*
X3784185D3*
Y2806499D3*
X3684185D3*
X3584185D3*
X3484185D3*
X3384185D3*
X3284185D3*
X3184185D3*
X3084185D3*
X2984185D3*
X2884185D3*
X2784185D3*
X2684185D3*
X2584185D3*
X2484185D3*
X2384185D3*
X2284185D3*
X2184185D3*
X2084185D3*
X1984185D3*
X1884185D3*
X1784185D3*
X1684185D3*
X1584185D3*
X1484185D3*
X1384185D3*
X1284185D3*
X1184185D3*
X1084185D3*
X984185D3*
X884185D3*
D66*
X4020522Y1173622D3*
Y1513780D3*
D64*
X4185089Y1173622D3*
Y1513780D3*
D41*
X4041388Y1229921D3*
Y1457480D3*
D62*
X687451Y843701D3*
D60*
Y943701D3*
D62*
X1806201Y506499D3*
D60*
X1706201D3*
X1606201D3*
X1506201D3*
X1406201D3*
X1306201D3*
D62*
X3281202D3*
D60*
X3181202D3*
X3081202D3*
X2981202D3*
X2881202D3*
X2781202D3*
D72*
X4084223Y3381068D3*
X3984223D3*
X3884223D3*
X3784223D3*
X3684223D3*
X3584223D3*
X3484223D3*
X3384223D3*
X3284223D3*
X3184223D3*
X3084223D3*
X2984223D3*
X2884223D3*
X2784223D3*
X2684223D3*
X2584223D3*
X2484223D3*
X2384223D3*
X2284223D3*
X2184223D3*
X2084223D3*
X1984223D3*
X1884223D3*
X1784223D3*
X1684223D3*
X1584223D3*
X1484223D3*
X1384223D3*
X1284223D3*
X1184223D3*
X1084223D3*
X984223D3*
X884223D3*
X784223D3*
X684223D3*
X584223D3*
Y3181068D3*
X684223D3*
X784223D3*
X884223D3*
X984223D3*
X1084223D3*
X1184223D3*
X1284223D3*
X1384223D3*
X1484223D3*
X1584223D3*
X1684223D3*
X1784223D3*
X1884223D3*
X1984223D3*
X2084223D3*
X2184223D3*
X2284223D3*
X2384223D3*
X2484223D3*
X2584223D3*
X2684223D3*
X2784223D3*
X2884223D3*
X2984223D3*
X3084223D3*
X3184223D3*
X3284223D3*
X3384223D3*
X3484223D3*
X3584223D3*
X3684223D3*
X3784223D3*
X3884223D3*
X3984223D3*
X4084223D3*
M02*
