G04 DipTrace 4.0.0.5*
G04 BottomPaste.gbr*
%MOIN*%
G04 #@! TF.FileFunction,Paste,Bot*
G04 #@! TF.Part,Single*
%ADD76R,0.023622X0.031496*%
%ADD80R,0.031496X0.023622*%
%FSLAX26Y26*%
G04*
G70*
G90*
G75*
G01*
G04 BotPaste*
%LPD*%
D80*
X2411861Y1412748D3*
X2463042D3*
X2636860D3*
X2688041D3*
X2836861D3*
X2888042D3*
D76*
X3074951Y1450839D3*
Y1399657D3*
Y1188339D3*
Y1137157D3*
Y975840D3*
Y924659D3*
D80*
X3100542Y750248D3*
X3049361D3*
X2900542D3*
X2849361D3*
X2706791Y781499D3*
X2655610D3*
X2450541Y750248D3*
X2399360D3*
D76*
X2406199Y812157D3*
Y863339D3*
Y1105908D3*
Y1157089D3*
D80*
X1194291Y1168701D3*
X1143110D3*
D76*
X1149950Y1036861D3*
Y1088042D3*
X1424950Y1100541D3*
Y1049360D3*
D80*
X1319291Y899950D3*
X1268110D3*
D76*
X524950Y1693408D3*
Y1744589D3*
Y1986814D3*
Y1935633D3*
X1176871Y1693408D3*
Y1744589D3*
Y1986814D3*
Y1935633D3*
X1828790Y1693408D3*
Y1744589D3*
Y1986814D3*
Y1935633D3*
X2480709Y1693408D3*
Y1744589D3*
Y1986814D3*
Y1935633D3*
X3126379Y1693408D3*
Y1744589D3*
Y1986814D3*
Y1935633D3*
M02*
