G04 DipTrace 4.0.0.5*
G04 BottomMask.gbr*
%MOIN*%
G04 #@! TF.FileFunction,Soldermask,Bot*
G04 #@! TF.Part,Single*
%ADD24C,0.070866*%
%ADD65C,0.062992*%
%ADD66R,0.070866X0.070866*%
%ADD67R,0.062992X0.062992*%
%ADD68C,0.074803*%
%ADD69R,0.043307X0.043307*%
%ADD73R,0.031496X0.03937*%
%ADD77R,0.03937X0.031496*%
%FSLAX26Y26*%
G04*
G70*
G90*
G75*
G01*
G04 BotMask*
%LPD*%
D77*
X2411861Y1412748D3*
X2463042D3*
X2636860D3*
X2688041D3*
X2836861D3*
X2888042D3*
D73*
X3074951Y1450839D3*
Y1399657D3*
Y1188339D3*
Y1137157D3*
Y975840D3*
Y924659D3*
D77*
X3100542Y750248D3*
X3049361D3*
X2900542D3*
X2849361D3*
X2706791D3*
X2655610D3*
X2450541D3*
X2399360D3*
D73*
X2406199Y812157D3*
Y863339D3*
Y1105908D3*
Y1157089D3*
D77*
X1169290Y1306499D3*
X1118109D3*
X1469290D3*
X1418109D3*
D73*
X1493702Y1144589D3*
Y1093408D3*
Y963339D3*
Y912157D3*
D77*
X1344291Y856497D3*
X1293110D3*
X1043110D3*
X1094291D3*
D73*
X1043701Y1049659D3*
Y1100840D3*
Y1160633D3*
Y1211814D3*
X524950Y1693408D3*
Y1744589D3*
Y1986814D3*
Y1935633D3*
X1176871Y1693408D3*
Y1744589D3*
Y1986814D3*
Y1935633D3*
X1828790Y1693408D3*
Y1744589D3*
Y1986814D3*
Y1935633D3*
X2480709Y1693408D3*
Y1744589D3*
Y1986814D3*
Y1935633D3*
X3126379Y1693408D3*
Y1744589D3*
Y1986814D3*
Y1935633D3*
D65*
X818701Y2206499D3*
D67*
X718701D3*
D65*
X1143701D3*
D67*
X1043701D3*
D65*
X3043701D3*
D67*
X2943701D3*
D65*
X3368701D3*
D67*
X3268701D3*
D69*
X1971459Y631499D3*
X2020672D3*
X2069885D3*
X2119097D3*
D68*
X3494525Y2806499D3*
Y2606499D3*
X3394525Y2806499D3*
Y2606499D3*
X2994525Y2806499D3*
Y2606499D3*
X2894525Y2806499D3*
Y2606499D3*
X2794525Y2806499D3*
Y2606499D3*
X2494525D3*
Y2806499D3*
X2394525D3*
Y2606499D3*
X1994525D3*
X1894525D3*
X1794525D3*
X1694525D3*
X1594525D3*
X594525D3*
X694525D3*
X794525D3*
X894525D3*
X994525D3*
X1094525D3*
X1194525D3*
X1294525D3*
X1394525D3*
X1494525D3*
X1994525Y2806499D3*
X1894525D3*
X1794525D3*
X1694525D3*
X1594525D3*
X1494525D3*
X1394525D3*
X1294525D3*
X1194525D3*
X1094525D3*
X994525D3*
X894525D3*
X794525D3*
X694525D3*
X594525D3*
X2094525Y2606499D3*
Y2806499D3*
X2194525D3*
Y2606499D3*
X2294525Y2806499D3*
Y2606499D3*
X2594525D3*
Y2806499D3*
X2694525D3*
Y2606499D3*
X3094525D3*
Y2806499D3*
X3194525Y2606499D3*
Y2806499D3*
X3294525Y2606499D3*
Y2806499D3*
D66*
X1518701Y506499D3*
D24*
X1418701D3*
X1318701D3*
X1218701D3*
X1118701D3*
X1018701D3*
D66*
X793701Y1056499D3*
D24*
Y956499D3*
Y856499D3*
D66*
X2993702Y506499D3*
D24*
X2893702D3*
X2793702D3*
X2693702D3*
X2593702D3*
X2493702D3*
M02*
