M48
INCH
T01C0.0079
T02C0.0256
T03C0.035
T04C0.038
T05C0.0433
%
T01
X+033562Y+012377
X+033562Y+012190
X+033562Y+012002
X+034125Y+012190
X+034562Y+012752
X+033937Y+013127
X+034000Y+013815
X+034499Y+014377
X+033812Y+015252
X+033312Y+015377
X+032581Y+015554
X+032375Y+016065
X+032250Y+016815
X+031750Y+016877
X+031437Y+016002
X+031187Y+015252
X+031062Y+014440
X+031125Y+014002
X+030875Y+013097
X+031111Y+012749
X+031062Y+011877
X+031125Y+011127
X+030312Y+010690
X+029812Y+011190
X+029375Y+010815
X+028875Y+011377
X+028910Y+011846
X+029135Y+012128
X+028717Y+012187
X+028313Y+012358
X+027812Y+012065
X+027437Y+011565
X+028329Y+011653
X+029343Y+011653
X+029106Y+012549
X+028720Y+012994
X+028625Y+013690
X+028093Y+013747
X+027437Y+013752
X+027437Y+014377
X+026562Y+014502
X+026062Y+013752
X+025563Y+013831
X+025376Y+013659
X+025189Y+013832
X+024812Y+013752
X+024937Y+014440
X+024000Y+014565
X+023187Y+014627
X+023187Y+015440
X+023375Y+016502
X+022875Y+016815
X+022422Y+016921
X+022375Y+016502
X+021999Y+017565
X+020875Y+016815
X+021496Y+015350
X+021732Y+015163
X+021968Y+014926
X+022192Y+014687
X+021937Y+015440
X+020625Y+014127
X+020315Y+013704
X+019803Y+013105
X+019547Y+013105
X+019291Y+013192
X+018999Y+013190
X+018312Y+013190
X+018687Y+014190
X+019062Y+012315
X+019547Y+011602
X+019803Y+011799
X+020125Y+011690
X+020437Y+012315
X+021260Y+013297
X+021500Y+011315
X+022125Y+010752
X+022562Y+011252
X+023750Y+011127
X+024500Y+011502
X+024999Y+011502
X+025500Y+011377
X+025812Y+012065
X+026250Y+011565
X+024999Y+012065
X+024368Y+012171
X+024813Y+012923
X+025812Y+013002
X+027437Y+013002
X+028687Y+014377
X+028508Y+014627
X+029343Y+013691
X+029685Y+013954
X+030059Y+013097
X+032125Y+013002
X+032125Y+012127
X+032125Y+011565
X+032125Y+010877
X+032955Y+010584
X+033312Y+010877
X+033562Y+010127
X+032955Y+009993
X+032375Y+009752
X+032375Y+009565
X+032375Y+009377
X+032375Y+009190
X+032375Y+009002
X+032375Y+008815
X+032375Y+008627
X+032375Y+008440
X+032768Y+008253
X+032250Y+007752
X+032937Y+007065
X+032937Y+006065
X+033937Y+006065
X+034937Y+006065
X+034937Y+007065
X+035937Y+007065
X+035937Y+006065
X+035937Y+005065
X+034937Y+005065
X+033937Y+005065
X+032937Y+005065
X+031937Y+005065
X+030750Y+005815
X+029687Y+006127
X+029687Y+007190
X+029687Y+007877
X+029406Y+008095
X+029375Y+008690
X+028875Y+008690
X+030375Y+008690
X+030500Y+008127
X+030875Y+007190
X+031687Y+006752
X+031062Y+009377
X+031062Y+009752
X+031183Y+010190
X+033187Y+012627
X+032108Y+014010
X+032312Y+014502
X+032168Y+014876
X+033312Y+016690
X+033812Y+016690
X+034437Y+016690
X+034437Y+015877
X+035937Y+016065
X+035937Y+017065
X+035937Y+018065
X+035937Y+019065
X+035290Y+018831
X+034312Y+018502
X+034312Y+018065
X+033315Y+018095
X+032803Y+018026
X+032290Y+017925
X+032035Y+018112
X+033250Y+018627
X+034062Y+019127
X+035937Y+020065
X+035937Y+021065
X+035937Y+022065
X+035937Y+023065
X+035937Y+024065
X+035937Y+025065
X+035937Y+026065
X+035937Y+027065
X+035125Y+027377
X+034625Y+026690
X+034000Y+026690
X+034000Y+027377
X+035937Y+028065
X+035937Y+029065
X+035937Y+030065
X+034937Y+030065
X+033937Y+030065
X+032937Y+030065
X+031937Y+030065
X+030937Y+030065
X+029937Y+030065
X+028937Y+030065
X+027937Y+030065
X+026937Y+030065
X+025937Y+030065
X+024937Y+030065
X+023937Y+030065
X+022937Y+030065
X+021937Y+030065
X+020937Y+030065
X+019937Y+030065
X+018937Y+030065
X+017937Y+030065
X+016937Y+030065
X+015937Y+030065
X+014937Y+030065
X+013937Y+030065
X+012937Y+030065
X+011937Y+030065
X+014187Y+027217
X+014187Y+026843
X+014437Y+025502
X+013437Y+025502
X+012687Y+025440
X+012187Y+025440
X+011437Y+025502
X+010687Y+025315
X+009687Y+025252
X+008687Y+025252
X+007375Y+025252
X+005937Y+025065
X+005937Y+024065
X+005937Y+023065
X+005937Y+022065
X+005443Y+021471
X+005780Y+020386
X+006437Y+020440
X+007059Y+021284
X+007187Y+022690
X+008187Y+022690
X+009687Y+022065
X+010437Y+022752
X+011437Y+022690
X+011132Y+021471
X+012312Y+021750
X+012548Y+021471
X+012687Y+022252
X+012687Y+023315
X+013250Y+023877
X+013875Y+023752
X+014437Y+024315
X+015062Y+023752
X+015687Y+023752
X+016437Y+023752
X+016437Y+023127
X+015724Y+022597
X+016500Y+022127
X+017437Y+023127
X+017187Y+023752
X+017687Y+023940
X+018250Y+023940
X+019062Y+023127
X+018437Y+022315
X+019312Y+021752
X+019312Y+020502
X+019547Y+020209
X+018780Y+020372
X+017312Y+020500
X+016375Y+020502
X+015562Y+020500
X+015437Y+019690
X+016187Y+019377
X+015499Y+017440
X+014187Y+016627
X+012486Y+016579
X+012250Y+016877
X+011900Y+017833
X+011062Y+018315
X+010625Y+019627
X+009187Y+019627
X+008437Y+018315
X+008437Y+016690
X+007827Y+015724
X+007571Y+015887
X+007059Y+016074
X+006803Y+015672
X+006605Y+015380
X+006380Y+015004
X+005687Y+014752
X+005687Y+015877
X+005187Y+016002
X+005986Y+016579
X+005750Y+016877
X+006500Y+016000
X+007625Y+015315
X+008562Y+014565
X+008437Y+013627
X+008437Y+012815
X+007562Y+012690
X+006875Y+012627
X+006875Y+011815
X+005937Y+012065
X+005937Y+011065
X+005937Y+010065
X+005187Y+009440
X+005937Y+008752
X+006875Y+008065
X+005937Y+007065
X+005937Y+006065
X+006937Y+006065
X+006937Y+005065
X+005937Y+005065
X+004937Y+005065
X+004937Y+006065
X+004937Y+007065
X+004937Y+008065
X+008937Y+007065
X+009562Y+005440
X+007937Y+005065
X+011528Y+005498
X+011812Y+005752
X+013062Y+005752
X+014375Y+005752
X+014875Y+005815
X+015437Y+006752
X+016062Y+006065
X+015937Y+005127
X+014375Y+007190
X+013062Y+007190
X+013312Y+008190
X+012709Y+008253
X+012543Y+008440
X+011750Y+008565
X+011687Y+009877
X+010500Y+009752
X+010125Y+010565
X+010125Y+011565
X+010437Y+012565
X+010750Y+013315
X+011687Y+013377
X+012187Y+014377
X+012791Y+014433
X+013303Y+015163
X+013047Y+015350
X+013559Y+014926
X+013815Y+014687
X+014687Y+013377
X+015749Y+013627
X+016250Y+014190
X+016875Y+013440
X+016250Y+012377
X+015311Y+012362
X+015250Y+011440
X+015249Y+010215
X+014986Y+010028
X+014687Y+010190
X+015250Y+009627
X+016250Y+009565
X+016414Y+010422
X+017532Y+010421
X+017954Y+010411
X+018917Y+010224
X+019104Y+009831
X+018749Y+009565
X+019687Y+009252
X+019104Y+008637
X+019687Y+008065
X+019104Y+007317
X+018749Y+007877
X+018000Y+007877
X+017437Y+007877
X+017689Y+008453
X+016250Y+008690
X+016250Y+007877
X+015187Y+008565
X+013437Y+009877
X+013687Y+011627
X+013000Y+013065
X+011687Y+011627
X+009062Y+011815
X+009625Y+013627
X+011125Y+014565
X+011125Y+015315
X+012187Y+015377
X+010687Y+016690
X+013125Y+018190
X+012277Y+020413
X+012812Y+020562
X+014312Y+020565
X+014062Y+021877
X+014437Y+023190
X+015625Y+025440
X+016437Y+025440
X+017187Y+025440
X+017687Y+025440
X+018250Y+025440
X+019125Y+025440
X+019635Y+025062
X+019685Y+024775
X+019705Y+024496
X+019803Y+023871
X+020562Y+024252
X+021000Y+023877
X+021144Y+023134
X+020875Y+022315
X+020875Y+021752
X+022062Y+021752
X+022062Y+022315
X+023447Y+022159
X+023612Y+023137
X+023625Y+023877
X+024398Y+024197
X+024687Y+024002
X+024585Y+023684
X+025187Y+023627
X+025687Y+023940
X+026250Y+024690
X+026812Y+024502
X+027312Y+023940
X+027625Y+023377
X+027583Y+022921
X+028312Y+022752
X+027062Y+021815
X+027071Y+021284
X+028125Y+020377
X+028562Y+019252
X+028562Y+018627
X+028375Y+017627
X+028375Y+016940
X+027875Y+016502
X+027327Y+016017
X+026815Y+015830
X+025750Y+016002
X+026047Y+016694
X+026234Y+016881
X+025626Y+016783
X+025249Y+016877
X+025102Y+017925
X+025535Y+018299
X+025812Y+018377
X+025791Y+017925
X+026303Y+018299
X+026312Y+018627
X+026815Y+018437
X+025791Y+019175
X+025280Y+020381
X+025812Y+021940
X+024625Y+021940
X+022937Y+020377
X+022937Y+019127
X+021999Y+019440
X+021562Y+020377
X+019734Y+019116
X+018749Y+016877
X+018495Y+016534
X+018052Y+016535
X+017353Y+017088
X+017750Y+017502
X+017000Y+016627
X+017500Y+012315
X+018917Y+011396
X+018917Y+010942
X+019291Y+011012
X+020062Y+010815
X+022625Y+009252
X+022625Y+008065
X+023750Y+008065
X+024687Y+008440
X+024187Y+009065
X+023937Y+009831
X+024187Y+010377
X+025500Y+010440
X+025000Y+009190
X+026062Y+008190
X+026500Y+008690
X+027250Y+008690
X+026812Y+007815
X+027000Y+007190
X+027726Y+007594
X+028937Y+007190
X+027999Y+006127
X+028009Y+005604
X+027325Y+005498
X+026750Y+006127
X+026419Y+004977
X+024375Y+005440
X+024187Y+006127
X+023437Y+006752
X+024437Y+007190
X+024875Y+007190
X+025500Y+007815
X+026125Y+007190
X+027250Y+009690
X+027687Y+010190
X+029343Y+015830
X+029685Y+016066
X+030187Y+016002
X+030687Y+016752
X+030750Y+017627
X+030625Y+018627
X+030187Y+019252
X+030687Y+020440
X+031125Y+021440
X+031625Y+022125
X+031437Y+022750
X+032625Y+022690
X+033625Y+022690
X+031780Y+020376
X+029250Y+017627
X+029346Y+016487
X+024250Y+016502
X+023375Y+017440
X+021812Y+023877
X+021937Y+024877
X+022398Y+024913
X+022812Y+025440
X+023187Y+024877
X+021937Y+025440
X+021207Y+025150
X+020969Y+024956
X+020187Y+025315
X+016398Y+026518
X+015945Y+026705
X+015633Y+027563
X+009625Y+027127
X+008812Y+027377
X+007937Y+026940
X+005937Y+027065
X+005937Y+029065
X+006937Y+029065
X+004937Y+029065
X+004875Y+020437
X+004875Y+019375
X+004625Y+018565
X+005680Y+018250
X+006055Y+018756
X+006375Y+018565
X+006291Y+018063
X+006812Y+014065
X+007562Y+014065
X+005937Y+013315
X+010312Y+008190
X+011875Y+007127
X+018625Y+005127
X+019104Y+005065
X+019687Y+005440
X+018875Y+006065
X+021749Y+006127
X+022312Y+005440
X+022922Y+005455
X+023437Y+005440
X+034750Y+009440
X+034750Y+010627
X+035937Y+011065
X+031437Y+024937
X+030125Y+024565
X+029687Y+025440
X+028500Y+025127
X+027500Y+025440
X+027437Y+027065
X+027437Y+027627
X+028687Y+026815
X+029187Y+027377
X+029937Y+027377
X+029937Y+026690
X+030875Y+026690
X+030875Y+027377
X+025434Y+026475
X+025437Y+025440
X+025187Y+024752
X+024687Y+025190
X+024945Y+027563
T02
X+019715Y+006315
X+020207Y+006315
X+020699Y+006315
X+021191Y+006315
T03
X+008187Y+022065
X+007187Y+022065
X+010437Y+022065
X+011437Y+022065
X+029437Y+022065
X+030437Y+022065
X+032687Y+022065
X+033687Y+022065
T04
X+034945Y+028065
X+033945Y+028065
X+032945Y+028065
X+031945Y+028065
X+030945Y+028065
X+029945Y+028065
X+028945Y+028065
X+027945Y+028065
X+026945Y+028065
X+025945Y+028065
X+024945Y+028065
X+023945Y+028065
X+022945Y+028065
X+021945Y+028065
X+020945Y+028065
X+019945Y+028065
X+018945Y+028065
X+017945Y+028065
X+016945Y+028065
X+015945Y+028065
X+014945Y+028065
X+013945Y+028065
X+012945Y+028065
X+011945Y+028065
X+010945Y+028065
X+009945Y+028065
X+008945Y+028065
X+007945Y+028065
X+006945Y+028065
X+005945Y+028065
X+005945Y+026065
X+006945Y+026065
X+007945Y+026065
X+008945Y+026065
X+009945Y+026065
X+010945Y+026065
X+011945Y+026065
X+012945Y+026065
X+013945Y+026065
X+014945Y+026065
X+015945Y+026065
X+016945Y+026065
X+017945Y+026065
X+018945Y+026065
X+019945Y+026065
X+020945Y+026065
X+021945Y+026065
X+022945Y+026065
X+023945Y+026065
X+024945Y+026065
X+025945Y+026065
X+026945Y+026065
X+027945Y+026065
X+028945Y+026065
X+029945Y+026065
X+030945Y+026065
X+031945Y+026065
X+032945Y+026065
X+033945Y+026065
X+034945Y+026065
T05
X+015187Y+005065
X+014187Y+005065
X+013187Y+005065
X+012187Y+005065
X+011187Y+005065
X+010187Y+005065
X+007937Y+008565
X+007937Y+009565
X+007937Y+010565
X+024937Y+005065
X+025937Y+005065
X+026937Y+005065
X+027937Y+005065
X+028937Y+005065
X+029937Y+005065
T00
M30
