M48
INCH
T01C0.0079
T02C0.0236
T03C0.0256
T04C0.035
T05C0.038
T06C0.0433
T07C0.1181
%
T01
X+038812Y+014562
X+038812Y+014750
X+038625Y+014750
X+038625Y+014562
X+038437Y+014562
X+038437Y+014750
X+038437Y+014937
X+038625Y+014937
X+038812Y+014937
X+038812Y+015125
X+038812Y+015312
X+038812Y+015500
X+038625Y+015500
X+038625Y+015312
X+038625Y+015125
X+038437Y+015125
X+038437Y+015312
X+038437Y+015500
X+038437Y+015687
X+038625Y+015687
X+038812Y+015687
X+039437Y+015437
X+039937Y+015937
X+040437Y+015437
X+040937Y+014937
X+041437Y+014437
X+040937Y+013937
X+041437Y+013437
X+040937Y+012937
X+041437Y+012437
X+040937Y+011937
X+040437Y+011437
X+040937Y+010937
X+041437Y+010437
X+041937Y+009937
X+041437Y+009437
X+041937Y+008937
X+041437Y+008437
X+041937Y+007937
X+041437Y+007437
X+041937Y+006937
X+041437Y+006437
X+040937Y+005937
X+040437Y+006437
X+039937Y+005937
X+040437Y+005437
X+039937Y+004937
X+040437Y+004437
X+039437Y+004437
X+038937Y+004937
X+038437Y+004437
X+037937Y+004937
X+037437Y+004437
X+036937Y+004937
X+036437Y+004437
X+035937Y+004937
X+035437Y+004437
X+034937Y+004937
X+034437Y+004437
X+033937Y+004937
X+033437Y+004437
X+032437Y+004437
X+031437Y+004437
X+030437Y+004437
X+029437Y+004437
X+028343Y+005281
X+029031Y+005937
X+029437Y+006187
X+030062Y+005687
X+031406Y+006187
X+032250Y+005937
X+033343Y+006187
X+034187Y+005937
X+034437Y+006437
X+034937Y+005937
X+035437Y+006437
X+035937Y+005937
X+036437Y+006437
X+037000Y+006020
X+037000Y+005832
X+037000Y+005645
X+037187Y+005645
X+037375Y+005645
X+037562Y+005645
X+037750Y+005645
X+037750Y+005832
X+037750Y+006020
X+037562Y+006020
X+037375Y+006020
X+037187Y+006020
X+037187Y+005832
X+037375Y+005832
X+037562Y+005832
X+037937Y+005832
X+037937Y+006020
X+038125Y+006020
X+038125Y+005832
X+038125Y+005645
X+037937Y+005645
X+038437Y+005437
X+038437Y+006437
X+037937Y+006937
X+037437Y+006437
X+036937Y+006937
X+037437Y+007437
X+036937Y+007937
X+037437Y+008437
X+036937Y+008937
X+037437Y+009437
X+036937Y+009937
X+037437Y+010437
X+037937Y+010937
X+038437Y+011187
X+038437Y+011375
X+038437Y+011562
X+038625Y+011562
X+038812Y+011562
X+038812Y+011375
X+038625Y+011375
X+038625Y+011187
X+038812Y+011187
X+038812Y+011750
X+038625Y+011750
X+038625Y+011937
X+038625Y+012125
X+038812Y+012125
X+038812Y+011937
X+038437Y+011937
X+038437Y+012125
X+038437Y+012312
X+038625Y+012312
X+038812Y+012312
X+038937Y+012937
X+037937Y+012937
X+037437Y+012437
X+036937Y+011937
X+036437Y+012437
X+035500Y+012187
X+035500Y+011812
X+035500Y+011312
X+034983Y+010781
X+035500Y+010218
X+035500Y+009750
X+035706Y+008866
X+035437Y+008437
X+035937Y+007937
X+035437Y+007437
X+034937Y+006937
X+035937Y+006937
X+036437Y+007437
X+036437Y+008437
X+036437Y+009437
X+036437Y+010437
X+036937Y+010937
X+037437Y+011437
X+037937Y+011937
X+038437Y+011750
X+038437Y+010437
X+037937Y+009937
X+038437Y+009437
X+037937Y+008937
X+038937Y+008937
X+039437Y+009437
X+039937Y+008937
X+039437Y+008437
X+038937Y+006937
X+039937Y+006937
X+041937Y+005937
X+040437Y+010437
X+039937Y+010937
X+041937Y+010937
X+041937Y+012937
X+041937Y+013937
X+040937Y+015937
X+040437Y+016437
X+039937Y+016937
X+040437Y+017437
X+040937Y+016937
X+041437Y+016437
X+041937Y+016937
X+041437Y+017437
X+041937Y+017937
X+041437Y+018437
X+041937Y+018937
X+041437Y+019437
X+040937Y+018937
X+040437Y+018437
X+039937Y+018937
X+040437Y+019437
X+039937Y+019937
X+040437Y+020437
X+040937Y+019937
X+041437Y+020437
X+041937Y+019937
X+041937Y+020937
X+040937Y+020937
X+040468Y+021437
X+040937Y+021937
X+040468Y+022437
X+040937Y+022937
X+040468Y+023437
X+040937Y+023937
X+040468Y+024406
X+040937Y+024937
X+040468Y+025406
X+040937Y+025937
X+040468Y+026468
X+040937Y+026937
X+040468Y+027437
X+040937Y+027937
X+040468Y+028437
X+040937Y+028937
X+040031Y+029187
X+039562Y+029343
X+038814Y+029305
X+037843Y+029593
X+037843Y+030125
X+037562Y+030656
X+037562Y+031156
X+037125Y+031343
X+036531Y+031281
X+036031Y+031218
X+035562Y+031250
X+035937Y+030656
X+035937Y+030125
X+035937Y+029593
X+035343Y+029593
X+035031Y+030125
X+035031Y+030656
X+034625Y+031218
X+034125Y+030656
X+034125Y+030125
X+034669Y+029669
X+034460Y+029305
X+034125Y+029406
X+033633Y+029305
X+033531Y+028562
X+033037Y+028793
X+032562Y+028656
X+032093Y+028656
X+031531Y+028656
X+030812Y+028656
X+030218Y+028937
X+029750Y+028781
X+029531Y+028562
X+028781Y+028812
X+028460Y+028518
X+028062Y+028937
X+027562Y+028531
X+027007Y+028705
X+026633Y+028705
X+026538Y+028941
X+026538Y+029453
X+026062Y+029156
X+026125Y+027500
X+026687Y+027031
X+026531Y+026593
X+027000Y+027500
X+027598Y+027394
X+027598Y+026843
X+028062Y+026750
X+028531Y+027312
X+028273Y+027552
X+029062Y+026750
X+029531Y+027312
X+030031Y+026750
X+030812Y+026750
X+031781Y+026750
X+032781Y+026750
X+033086Y+027300
X+033304Y+027505
X+033781Y+026750
X+034781Y+027031
X+035812Y+027031
X+036531Y+027375
X+037322Y+027248
X+037187Y+026781
X+038437Y+026937
X+038843Y+027437
X+039437Y+027437
X+039937Y+027937
X+039937Y+026937
X+039437Y+026437
X+039937Y+025937
X+039437Y+025437
X+039937Y+024937
X+039437Y+024437
X+039937Y+023937
X+039437Y+023437
X+039937Y+022937
X+039937Y+021937
X+039437Y+021437
X+038937Y+020937
X+039437Y+020437
X+038937Y+019937
X+038937Y+018937
X+039437Y+018437
X+038937Y+017937
X+039437Y+017437
X+038937Y+016937
X+039437Y+016437
X+038031Y+016156
X+037937Y+015437
X+037437Y+014937
X+036937Y+015437
X+036375Y+016125
X+035687Y+016330
X+035406Y+015718
X+035906Y+015437
X+035875Y+014812
X+035500Y+014500
X+035906Y+014218
X+036406Y+014218
X+037437Y+013937
X+037937Y+014437
X+038437Y+013937
X+038031Y+016906
X+038156Y+018093
X+037375Y+018093
X+036622Y+017925
X+036366Y+017931
X+036110Y+017925
X+035854Y+017925
X+035590Y+017925
X+034593Y+017750
X+034102Y+018087
X+033937Y+017437
X+033437Y+017937
X+033281Y+016968
X+033625Y+016312
X+034187Y+016125
X+034281Y+015718
X+033724Y+015692
X+033031Y+015562
X+032572Y+015583
X+032093Y+015843
X+032562Y+016343
X+032239Y+016777
X+031796Y+016577
X+031540Y+016777
X+031187Y+016093
X+030906Y+015593
X+030298Y+016236
X+029968Y+016656
X+030687Y+016656
X+029968Y+015593
X+029250Y+016093
X+028000Y+016062
X+027187Y+015593
X+026406Y+015843
X+026250Y+016093
X+025750Y+016843
X+024875Y+016531
X+024156Y+016937
X+023718Y+016093
X+023718Y+014843
X+023031Y+014218
X+022187Y+014062
X+022188Y+013382
X+021217Y+013382
X+020786Y+013389
X+020062Y+014000
X+019562Y+014000
X+019437Y+013781
X+018811Y+013389
X+018319Y+013383
X+018156Y+012593
X+019093Y+012593
X+019636Y+012566
X+020062Y+011125
X+020281Y+010906
X+021437Y+010937
X+022437Y+010937
X+023437Y+010937
X+024593Y+011250
X+025125Y+011000
X+025468Y+009437
X+025125Y+008187
X+024625Y+007343
X+024625Y+006250
X+024937Y+004937
X+025500Y+005062
X+025437Y+004437
X+024437Y+004437
X+023937Y+004937
X+023437Y+004437
X+022937Y+004937
X+022437Y+004437
X+021937Y+004937
X+021437Y+004437
X+020937Y+004937
X+020437Y+004437
X+019937Y+004937
X+019437Y+004437
X+018937Y+004937
X+018437Y+004437
X+017437Y+004437
X+016437Y+004437
X+015437Y+004437
X+014437Y+004437
X+013437Y+004437
X+013437Y+005437
X+012937Y+005937
X+012437Y+006437
X+011937Y+006937
X+012437Y+007437
X+012937Y+006937
X+013437Y+007437
X+012937Y+007937
X+012281Y+008531
X+011687Y+009437
X+012000Y+010000
X+012500Y+010312
X+012156Y+010906
X+012562Y+011500
X+012468Y+012593
X+012906Y+012593
X+012812Y+013093
X+013500Y+012593
X+014490Y+013003
X+014750Y+013625
X+015276Y+013576
X+015687Y+013843
X+015281Y+014906
X+015714Y+015169
X+015281Y+015500
X+015527Y+016052
X+015016Y+016445
X+015272Y+016681
X+015783Y+016868
X+016687Y+016250
X+017156Y+015468
X+017218Y+014468
X+017218Y+014000
X+017718Y+014218
X+017968Y+014875
X+018843Y+014875
X+020093Y+015062
X+020097Y+015378
X+019582Y+016254
X+018776Y+016251
X+018562Y+017750
X+018093Y+018093
X+017531Y+017562
X+017444Y+017242
X+016687Y+018093
X+015781Y+018093
X+015000Y+018093
X+014406Y+018093
X+014750Y+018906
X+015687Y+018906
X+015937Y+019125
X+017093Y+019718
X+017656Y+019718
X+017961Y+020222
X+018820Y+020646
X+019187Y+020437
X+019251Y+021041
X+019687Y+021187
X+021062Y+020593
X+021750Y+020562
X+022593Y+021375
X+023218Y+021937
X+022875Y+022375
X+022875Y+023281
X+023625Y+023281
X+024093Y+022250
X+024156Y+021031
X+024156Y+020187
X+023156Y+020562
X+022562Y+019531
X+023406Y+018812
X+023500Y+018343
X+022968Y+018062
X+022437Y+018062
X+021643Y+016868
X+021312Y+016437
X+021456Y+016052
X+020973Y+016681
X+020534Y+016445
X+020812Y+018062
X+020593Y+019125
X+018562Y+019343
X+018250Y+019125
X+017318Y+019080
X+016343Y+020437
X+015593Y+020625
X+015298Y+020593
X+015062Y+020625
X+015156Y+020343
X+014750Y+020593
X+014343Y+020781
X+014343Y+021281
X+013820Y+021041
X+013531Y+021281
X+013468Y+020187
X+013437Y+019062
X+012406Y+018968
X+012250Y+018343
X+011937Y+017937
X+012437Y+017437
X+012937Y+017937
X+013218Y+017750
X+012937Y+016937
X+013937Y+016437
X+013437Y+015937
X+013937Y+015437
X+013812Y+014906
X+012812Y+014906
X+012812Y+015500
X+012109Y+015781
X+012125Y+016093
X+011637Y+016018
X+011450Y+015594
X+011187Y+014906
X+011843Y+014906
X+011187Y+013531
X+011187Y+012843
X+011875Y+012875
X+011187Y+012062
X+010281Y+012125
X+010406Y+011375
X+009656Y+011375
X+009187Y+011000
X+008937Y+011437
X+008437Y+010937
X+007937Y+011437
X+007437Y+010937
X+006937Y+011437
X+006437Y+010937
X+006937Y+010437
X+007437Y+009937
X+007937Y+010437
X+008437Y+009937
X+008937Y+010437
X+009437Y+009937
X+009937Y+010437
X+010437Y+009937
X+010937Y+008937
X+009937Y+008937
X+008937Y+008937
X+007937Y+008937
X+007937Y+007937
X+007937Y+006937
X+007437Y+006437
X+006937Y+006937
X+006437Y+006437
X+005937Y+006937
X+005437Y+007437
X+004937Y+007937
X+004437Y+008437
X+004937Y+008937
X+005437Y+009437
X+004937Y+009937
X+004437Y+010437
X+004937Y+010937
X+004437Y+011437
X+004937Y+011937
X+005437Y+012437
X+004937Y+012937
X+005437Y+013437
X+004937Y+013937
X+005437Y+014437
X+004937Y+014937
X+005437Y+015437
X+004937Y+015937
X+004437Y+016437
X+004937Y+016937
X+005437Y+017437
X+004937Y+017937
X+004437Y+017437
X+004437Y+018437
X+004937Y+018937
X+004437Y+019437
X+004937Y+019937
X+005437Y+020437
X+004937Y+020937
X+004437Y+020437
X+004437Y+021437
X+004937Y+021937
X+005437Y+022437
X+004937Y+022937
X+004437Y+023437
X+004937Y+023937
X+005437Y+023437
X+005937Y+023937
X+006437Y+023437
X+006937Y+023937
X+007437Y+023437
X+006937Y+022937
X+006437Y+022437
X+005937Y+022937
X+005937Y+021937
X+006437Y+021437
X+006937Y+021937
X+007437Y+022437
X+007937Y+022937
X+007937Y+023937
X+007437Y+024437
X+006937Y+024937
X+006437Y+025437
X+006937Y+025937
X+006437Y+026437
X+006937Y+026937
X+007437Y+026437
X+007937Y+025937
X+007437Y+025437
X+007937Y+024937
X+008437Y+025437
X+008937Y+024937
X+009406Y+025437
X+010062Y+025187
X+010562Y+025468
X+010562Y+024687
X+011343Y+025125
X+012531Y+024781
X+013062Y+024562
X+013367Y+024547
X+013593Y+024937
X+014031Y+024937
X+014562Y+024937
X+015062Y+024937
X+015304Y+025167
X+015562Y+024937
X+016312Y+024937
X+017062Y+024937
X+017625Y+024937
X+017562Y+025375
X+017318Y+025597
X+017531Y+026500
X+017125Y+026906
X+017593Y+027125
X+018062Y+027031
X+018531Y+027000
X+019343Y+026906
X+020406Y+026906
X+021062Y+026906
X+021562Y+026906
X+022086Y+027167
X+022304Y+027394
X+023362Y+027354
X+023812Y+026937
X+024875Y+027406
X+025218Y+026937
X+025562Y+025343
X+026062Y+025343
X+026781Y+025343
X+027750Y+025343
X+028273Y+025110
X+028562Y+025343
X+029125Y+025343
X+030031Y+025343
X+030304Y+024923
X+030562Y+025343
X+031284Y+025347
X+032312Y+025218
X+033000Y+024937
X+033562Y+025250
X+034093Y+025250
X+034562Y+025406
X+035093Y+025406
X+035581Y+025127
X+036093Y+025093
X+035932Y+024360
X+036687Y+023968
X+037437Y+023937
X+037937Y+024437
X+037437Y+024937
X+038437Y+024937
X+038437Y+023937
X+038437Y+022937
X+037437Y+022937
X+036093Y+023218
X+035843Y+022656
X+035581Y+021305
X+035843Y+020656
X+034375Y+020656
X+034500Y+019906
X+034593Y+019375
X+034187Y+019000
X+035437Y+019000
X+036937Y+018937
X+037937Y+018937
X+037625Y+020687
X+037350Y+020752
X+037406Y+021343
X+038218Y+021343
X+039937Y+020937
X+041937Y+021937
X+041937Y+022937
X+041937Y+023937
X+041937Y+024937
X+041937Y+025937
X+041937Y+026937
X+041937Y+027937
X+041937Y+028937
X+041937Y+029937
X+040937Y+029937
X+040937Y+030937
X+040062Y+031156
X+039562Y+031156
X+039062Y+031156
X+038562Y+031156
X+038093Y+031156
X+037812Y+032406
X+037812Y+033156
X+037000Y+032875
X+036593Y+032375
X+035781Y+032375
X+035781Y+032875
X+035062Y+033093
X+034781Y+032500
X+034125Y+033062
X+033781Y+032500
X+033312Y+032468
X+032750Y+032500
X+032062Y+032500
X+031562Y+033156
X+031093Y+032687
X+030468Y+033187
X+030031Y+032687
X+029312Y+032468
X+028812Y+032375
X+028781Y+033156
X+029406Y+033125
X+027593Y+032500
X+026937Y+032812
X+025937Y+032937
X+024437Y+032937
X+024312Y+034031
X+022937Y+032937
X+021718Y+032812
X+020781Y+032812
X+019781Y+032812
X+018781Y+032812
X+017812Y+033156
X+017750Y+032625
X+017062Y+033156
X+016531Y+032937
X+016718Y+032531
X+016312Y+032343
X+015593Y+032437
X+014781Y+032656
X+015343Y+033468
X+015156Y+034187
X+014937Y+035937
X+015937Y+035937
X+016937Y+035937
X+016625Y+035187
X+017937Y+035937
X+018937Y+035937
X+019937Y+035937
X+020937Y+035937
X+021937Y+035937
X+022937Y+035937
X+023937Y+035937
X+024937Y+035937
X+025937Y+035937
X+026187Y+035187
X+026937Y+035937
X+027937Y+035937
X+028937Y+035937
X+029937Y+035937
X+030937Y+035937
X+031937Y+035937
X+032937Y+035937
X+033937Y+035937
X+034937Y+035937
X+035937Y+035937
X+036437Y+035187
X+037001Y+035015
X+037001Y+034490
X+038000Y+034343
X+038781Y+034343
X+039781Y+034468
X+040781Y+034406
X+040437Y+035437
X+039937Y+035937
X+039437Y+035437
X+038937Y+035937
X+038437Y+035468
X+037937Y+035937
X+037593Y+035312
X+036937Y+035937
X+035493Y+034264
X+033312Y+034156
X+033156Y+033062
X+033500Y+031312
X+032593Y+031312
X+032687Y+030656
X+032687Y+030125
X+031820Y+030090
X+031781Y+030656
X+031531Y+031312
X+031031Y+030656
X+030531Y+030656
X+029952Y+030327
X+029531Y+030656
X+029062Y+030937
X+028814Y+030559
X+028062Y+030062
X+028460Y+029669
X+028062Y+031125
X+027499Y+031126
X+027500Y+031375
X+026250Y+031343
X+024312Y+031343
X+022375Y+031343
X+021062Y+031312
X+019630Y+030659
X+019156Y+030687
X+018454Y+030659
X+018031Y+030906
X+018001Y+030472
X+017503Y+030659
X+017562Y+031156
X+018454Y+031189
X+018814Y+030062
X+018968Y+029687
X+019531Y+029500
X+019844Y+029669
X+020298Y+029292
X+020062Y+029093
X+020718Y+028656
X+021460Y+028518
X+021593Y+029480
X+020899Y+029479
X+022500Y+029480
X+023618Y+029480
X+023343Y+028468
X+024460Y+028705
X+024750Y+025343
X+023686Y+025297
X+023686Y+024734
X+023061Y+024736
X+022304Y+025484
X+020936Y+024736
X+020156Y+024750
X+019832Y+024547
X+019999Y+024360
X+020166Y+024153
X+019636Y+024750
X+019218Y+024750
X+018468Y+024750
X+018148Y+024734
X+018593Y+025375
X+019218Y+025656
X+020336Y+025573
X+020937Y+023687
X+021406Y+022750
X+021906Y+023281
X+019687Y+022750
X+019062Y+023281
X+019062Y+023812
X+018468Y+023781
X+018468Y+022687
X+017625Y+022687
X+016281Y+022531
X+016312Y+023656
X+014343Y+023656
X+014273Y+024153
X+014031Y+024156
X+013593Y+024156
X+013593Y+023656
X+013093Y+023125
X+012812Y+023312
X+013093Y+022531
X+011820Y+023224
X+011250Y+022531
X+010446Y+023174
X+010250Y+023468
X+009934Y+022850
X+008937Y+022937
X+008937Y+023937
X+009437Y+024437
X+008437Y+024437
X+006437Y+024437
X+005937Y+024937
X+005437Y+024437
X+004937Y+024937
X+005437Y+025437
X+004937Y+025937
X+004437Y+026437
X+004937Y+026937
X+005437Y+026437
X+005937Y+026937
X+006437Y+027437
X+005937Y+027937
X+006437Y+028437
X+006937Y+028937
X+007437Y+029437
X+006937Y+029937
X+007437Y+030437
X+007937Y+029937
X+008437Y+029437
X+007937Y+028937
X+008437Y+028437
X+007937Y+027937
X+008437Y+027437
X+007937Y+026937
X+008437Y+026437
X+008937Y+026937
X+009531Y+027406
X+010312Y+027562
X+010093Y+026812
X+010656Y+026625
X+011093Y+027250
X+011562Y+027406
X+011562Y+026656
X+012531Y+026781
X+013062Y+027375
X+013531Y+026781
X+014062Y+027375
X+014468Y+026781
X+015062Y+027375
X+015500Y+027375
X+016062Y+026781
X+016531Y+027406
X+016625Y+028656
X+016562Y+028937
X+016093Y+028687
X+015531Y+028687
X+014593Y+028937
X+014343Y+028687
X+014814Y+029354
X+014593Y+029750
X+014062Y+029750
X+013562Y+030187
X+013820Y+030758
X+013562Y+031187
X+012531Y+030593
X+012531Y+030312
X+011863Y+030101
X+011125Y+029687
X+010625Y+030593
X+009937Y+030937
X+008937Y+030937
X+008437Y+030437
X+008937Y+029937
X+008937Y+028937
X+009531Y+028562
X+010531Y+028531
X+011633Y+028705
X+012080Y+028935
X+012568Y+028932
X+012572Y+029487
X+013007Y+029544
X+012098Y+031112
X+011093Y+031281
X+011562Y+032406
X+011814Y+032488
X+010812Y+032812
X+009781Y+032812
X+009562Y+032500
X+008812Y+032812
X+007937Y+032937
X+007437Y+033437
X+006937Y+032937
X+007437Y+032437
X+006437Y+032437
X+005937Y+032937
X+006437Y+033437
X+005437Y+033437
X+004937Y+032937
X+005437Y+032437
X+004937Y+031937
X+004437Y+031437
X+004937Y+030937
X+005437Y+031437
X+005937Y+030937
X+006437Y+030437
X+005937Y+029937
X+006437Y+029437
X+005937Y+028937
X+005437Y+028437
X+004937Y+028937
X+004437Y+028437
X+004937Y+027937
X+005437Y+027437
X+004437Y+027437
X+004437Y+029437
X+004937Y+029937
X+005437Y+030437
X+005437Y+029437
X+004437Y+030437
X+004437Y+032437
X+004437Y+033437
X+004937Y+033937
X+005437Y+034437
X+005937Y+034937
X+006437Y+034437
X+006937Y+034937
X+007437Y+035437
X+007937Y+035937
X+008437Y+035437
X+007937Y+034937
X+007437Y+034437
X+008437Y+034437
X+008937Y+034937
X+009437Y+035437
X+009937Y+035937
X+010937Y+035937
X+010593Y+035031
X+009531Y+034312
X+008937Y+035937
X+006937Y+035937
X+006437Y+035437
X+005937Y+035937
X+004437Y+034437
X+006937Y+030937
X+007937Y+030937
X+010062Y+029906
X+007437Y+028437
X+006937Y+027937
X+007437Y+027437
X+005937Y+025937
X+004437Y+025437
X+004437Y+024437
X+004437Y+022437
X+005437Y+021437
X+005937Y+020937
X+006437Y+020437
X+006937Y+020937
X+007437Y+020437
X+006937Y+019937
X+007437Y+019437
X+006937Y+018937
X+007437Y+018437
X+006937Y+017937
X+006437Y+017437
X+005937Y+016937
X+006437Y+016437
X+005937Y+015937
X+006437Y+015437
X+006937Y+015937
X+007437Y+016437
X+007937Y+015937
X+008437Y+016437
X+007937Y+016937
X+007437Y+017437
X+006937Y+016937
X+005937Y+017937
X+006437Y+018437
X+005937Y+018937
X+006437Y+019437
X+005937Y+019937
X+005437Y+019437
X+005437Y+018437
X+005437Y+016437
X+004437Y+015437
X+004437Y+014437
X+004437Y+013437
X+004437Y+012437
X+005437Y+011437
X+005437Y+010437
X+006437Y+009937
X+005437Y+008437
X+004437Y+007437
X+004937Y+006937
X+004437Y+006437
X+004937Y+005937
X+005437Y+006437
X+005937Y+005937
X+006437Y+005437
X+005937Y+004937
X+006437Y+004437
X+006937Y+004937
X+007437Y+004437
X+007937Y+004937
X+008437Y+005437
X+008937Y+004937
X+009437Y+004437
X+009937Y+004937
X+010437Y+005437
X+010937Y+004937
X+011437Y+005437
X+011937Y+004937
X+012437Y+005437
X+011937Y+005937
X+011437Y+006437
X+010937Y+006937
X+010437Y+006437
X+009937Y+005937
X+009437Y+006437
X+009937Y+006937
X+009937Y+007937
X+008937Y+007937
X+008937Y+006937
X+008437Y+006437
X+007937Y+005937
X+007437Y+005437
X+006937Y+005937
X+006875Y+007687
X+008937Y+005937
X+009437Y+005437
X+010437Y+004437
X+011437Y+004437
X+012437Y+004437
X+013937Y+005937
X+013437Y+006437
X+013937Y+006937
X+014437Y+007437
X+014437Y+006437
X+015375Y+005906
X+016562Y+005718
X+017437Y+005437
X+017437Y+006437
X+016437Y+007031
X+015937Y+007000
X+016694Y+007660
X+016375Y+008593
X+017511Y+008854
X+017500Y+009406
X+017246Y+009988
X+016843Y+010437
X+017469Y+010687
X+017009Y+011415
X+017511Y+011631
X+018413Y+011630
X+019000Y+011093
X+019000Y+010718
X+018500Y+009406
X+018687Y+008843
X+017875Y+008250
X+019281Y+007343
X+019523Y+007660
X+019906Y+007906
X+021375Y+007906
X+022000Y+008093
X+021812Y+007343
X+020312Y+006281
X+019250Y+005750
X+019906Y+009406
X+020656Y+009406
X+022656Y+009375
X+023218Y+005750
X+025906Y+007093
X+026343Y+006656
X+026968Y+006187
X+027375Y+005687
X+026937Y+004937
X+026437Y+004437
X+026843Y+007406
X+028312Y+007406
X+028375Y+008333
X+028593Y+009531
X+027812Y+009757
X+026875Y+009281
X+026843Y+011000
X+028656Y+011000
X+029687Y+011000
X+030000Y+011818
X+030397Y+012192
X+030564Y+012379
X+030750Y+012625
X+030203Y+012816
X+029842Y+013192
X+030000Y+013593
X+029389Y+013763
X+029389Y+013190
X+028800Y+013380
X+028750Y+014343
X+029312Y+014343
X+030000Y+014343
X+030485Y+014219
X+030987Y+013568
X+031343Y+013843
X+032281Y+014500
X+033031Y+014500
X+033750Y+013468
X+033968Y+012937
X+033968Y+012593
X+032968Y+012312
X+032281Y+012312
X+031794Y+012124
X+031571Y+012267
X+031381Y+012625
X+030791Y+012005
X+031406Y+011437
X+031625Y+011000
X+032968Y+010625
X+033842Y+010377
X+034029Y+010175
X+033437Y+009437
X+032937Y+008937
X+032437Y+008437
X+031937Y+007937
X+031500Y+009000
X+029718Y+009531
X+029718Y+007843
X+033284Y+007788
X+033812Y+011562
X+035093Y+012593
X+036437Y+011437
X+034937Y+014937
X+035093Y+016968
X+034500Y+016968
X+032312Y+017906
X+031750Y+018218
X+031562Y+018000
X+031028Y+018225
X+030781Y+018000
X+030187Y+018062
X+029250Y+017750
X+028437Y+017437
X+027343Y+018000
X+027312Y+019000
X+028437Y+019437
X+029250Y+019343
X+029468Y+020187
X+028437Y+020437
X+027312Y+020281
X+026937Y+020937
X+027625Y+021281
X+028468Y+022156
X+028812Y+022156
X+030000Y+023062
X+030468Y+023500
X+031540Y+023887
X+032031Y+023937
X+032281Y+023343
X+032187Y+022989
X+032312Y+022312
X+032031Y+021968
X+032031Y+020656
X+032812Y+020656
X+033093Y+019906
X+032812Y+019000
X+032052Y+019205
X+030843Y+019062
X+030187Y+019062
X+030531Y+020656
X+030656Y+021281
X+030625Y+021968
X+032875Y+023937
X+033562Y+023218
X+034343Y+023218
X+034312Y+023562
X+034562Y+023937
X+035007Y+024360
X+035093Y+024625
X+034562Y+024625
X+034156Y+022656
X+034562Y+028687
X+035156Y+028687
X+037062Y+029593
X+037062Y+030125
X+036851Y+030701
X+038812Y+032406
X+038812Y+033156
X+039812Y+033156
X+039812Y+032406
X+040812Y+032375
X+040812Y+033156
X+041937Y+032937
X+041937Y+031937
X+041937Y+030937
X+041937Y+033937
X+038468Y+028125
X+030531Y+029343
X+030267Y+029453
X+026750Y+023093
X+026031Y+023093
X+025310Y+023033
X+025625Y+022250
X+025312Y+021281
X+025781Y+021031
X+026031Y+020281
X+026031Y+019000
X+025504Y+018786
X+024986Y+018550
X+024937Y+018937
X+024125Y+019062
X+024125Y+018062
X+022187Y+016593
X+022187Y+015500
X+024283Y+013384
X+025500Y+014218
X+026562Y+014843
X+026968Y+014343
X+026968Y+013382
X+025187Y+015468
X+027281Y+016843
X+026750Y+022156
X+019500Y+028468
X+019187Y+029125
X+018500Y+029281
X+018001Y+029167
X+017500Y+028562
X+017281Y+028750
X+016062Y+030281
X+015593Y+030687
X+016062Y+031156
X+016593Y+031156
X+015273Y+030062
X+013812Y+033031
X+012781Y+033031
X+012937Y+035937
X+011937Y+035937
X+013937Y+035937
X+016312Y+025687
X+014593Y+022406
X+016281Y+021281
X+011562Y+020781
X+011312Y+021312
X+008906Y+020562
X+008718Y+021312
X+008125Y+020187
X+008125Y+019062
X+008437Y+018437
X+008125Y+018062
X+009406Y+018156
X+009406Y+018968
X+010906Y+018156
X+011406Y+016875
X+011406Y+016437
X+010958Y+016479
X+010687Y+016687
X+010684Y+016222
X+009678Y+016095
X+009656Y+015500
X+009437Y+014937
X+008937Y+015437
X+008437Y+014937
X+007937Y+014437
X+007437Y+013937
X+007937Y+013437
X+008437Y+012937
X+007937Y+012437
X+008437Y+011937
X+008937Y+012437
X+008937Y+013437
X+009437Y+013937
X+008937Y+014437
X+008437Y+013937
X+007437Y+012937
X+006937Y+013437
X+006437Y+012937
X+006937Y+012437
X+006437Y+011937
X+007437Y+011937
X+005937Y+013937
X+006437Y+014437
X+005937Y+014937
X+006937Y+014937
X+007437Y+015437
X+010497Y+012879
X+013167Y+014018
X+014250Y+013843
X+014504Y+016013
X+017085Y+013384
X+016375Y+011562
X+015781Y+010906
X+016062Y+009750
X+015435Y+009502
X+015281Y+009062
X+014500Y+008593
X+014281Y+009781
X+013031Y+009437
X+011500Y+007687
X+010937Y+007937
X+010937Y+005937
X+008437Y+004437
X+004437Y+009437
X+014281Y+011562
X+007437Y+021437
X+039937Y+017937
X+040937Y+017937
X+036437Y+005437
T02
X+040234Y+011736G85X+039801Y+011736
X+041781Y+011736G85X+041545Y+011736
X+041781Y+015138G85X+041545Y+015138
X+040234Y+015138G85X+039801Y+015138
T03
X+022590Y+006315
X+023082Y+006315
X+023574Y+006315
X+024066Y+006315
T04
X+009187Y+022065
X+008187Y+022065
X+011437Y+022065
X+012437Y+022065
X+034187Y+022065
X+035187Y+022065
X+037437Y+022065
X+038437Y+022065
T05
X+008820Y+026065
X+009820Y+026065
X+010820Y+026065
X+011820Y+026065
X+012820Y+026065
X+013820Y+026065
X+014820Y+026065
X+015820Y+026065
X+016820Y+026065
X+017820Y+026065
X+018820Y+026065
X+019820Y+026065
X+020820Y+026065
X+021820Y+026065
X+022820Y+026065
X+023820Y+026065
X+024820Y+026065
X+025820Y+026065
X+026820Y+026065
X+027820Y+026065
X+028820Y+026065
X+029820Y+026065
X+030820Y+026065
X+031820Y+026065
X+032820Y+026065
X+033820Y+026065
X+034820Y+026065
X+035820Y+026065
X+036820Y+026065
X+037820Y+026065
X+037820Y+028065
X+036820Y+028065
X+035820Y+028065
X+034820Y+028065
X+033820Y+028065
X+032820Y+028065
X+031820Y+028065
X+030820Y+028065
X+029820Y+028065
X+028820Y+028065
X+027820Y+028065
X+026820Y+028065
X+025820Y+028065
X+024820Y+028065
X+023820Y+028065
X+022820Y+028065
X+021820Y+028065
X+020820Y+028065
X+019820Y+028065
X+018820Y+028065
X+017820Y+028065
X+016820Y+028065
X+015820Y+028065
X+014820Y+028065
X+013820Y+028065
X+012820Y+028065
X+011820Y+028065
X+010820Y+028065
X+009820Y+028065
X+008820Y+028065
X+008814Y+031811
X+009814Y+031811
X+010814Y+031811
X+011814Y+031811
X+012814Y+031811
X+013814Y+031811
X+014814Y+031811
X+015814Y+031811
X+016814Y+031811
X+017814Y+031811
X+018814Y+031811
X+019814Y+031811
X+020814Y+031811
X+021814Y+031811
X+022814Y+031811
X+023814Y+031811
X+024814Y+031811
X+025814Y+031811
X+026814Y+031811
X+027814Y+031811
X+028814Y+031811
X+029814Y+031811
X+030814Y+031811
X+031814Y+031811
X+032814Y+031811
X+033814Y+031811
X+034814Y+031811
X+035814Y+031811
X+036814Y+031811
X+037814Y+031811
X+038814Y+031811
X+039814Y+031811
X+040814Y+031811
X+040814Y+033811
X+039814Y+033811
X+038814Y+033811
X+037814Y+033811
X+036814Y+033811
X+035814Y+033811
X+034814Y+033811
X+033814Y+033811
X+032814Y+033811
X+031814Y+033811
X+030814Y+033811
X+029814Y+033811
X+028814Y+033811
X+027814Y+033811
X+026814Y+033811
X+025814Y+033811
X+024814Y+033811
X+023814Y+033811
X+022814Y+033811
X+021814Y+033811
X+020814Y+033811
X+019814Y+033811
X+018814Y+033811
X+017814Y+033811
X+016814Y+033811
X+015814Y+033811
X+014814Y+033811
X+013814Y+033811
X+012814Y+033811
X+011814Y+033811
X+010814Y+033811
X+009814Y+033811
X+008814Y+033811
X+007814Y+033811
X+006814Y+033811
X+005814Y+033811
X+005814Y+031811
X+006814Y+031811
X+007814Y+031811
T06
X+006875Y+008437
X+006875Y+009437
X+013062Y+005065
X+014062Y+005065
X+015062Y+005065
X+016062Y+005065
X+017062Y+005065
X+018062Y+005065
X+027812Y+005065
X+028812Y+005065
X+029812Y+005065
X+030812Y+005065
X+031812Y+005065
X+032812Y+005065
T00
M30
