M48
INCH
T01C0.0079
T02C0.0236
T03C0.0256
T04C0.035
T05C0.038
T06C0.0433
T07C0.1181
%
T01
X+038406Y+012468
X+038406Y+012687
X+038406Y+012250
X+038406Y+012031
X+038406Y+011812
X+039031Y+011875
X+039031Y+012125
X+039031Y+011625
X+039031Y+011375
X+039031Y+011125
X+037968Y+010406
X+036562Y+010406
X+036210Y+010031
X+035836Y+010544
X+035531Y+009750
X+036000Y+008843
X+036312Y+007875
X+036500Y+007875
X+036687Y+007875
X+036875Y+007875
X+037062Y+007875
X+036875Y+007531
X+037318Y+007267
X+036937Y+006937
X+035968Y+007531
X+035062Y+007531
X+034937Y+006937
X+034581Y+007080
X+033562Y+007187
X+034187Y+005812
X+034937Y+004937
X+035937Y+004307
X+036937Y+004937
X+037937Y+004307
X+037937Y+005937
X+035937Y+005937
X+033937Y+004307
X+031937Y+004307
X+032250Y+005812
X+031625Y+007187
X+031062Y+007531
X+030562Y+007531
X+029687Y+007343
X+028875Y+007531
X+029106Y+006160
X+029245Y+005498
X+030250Y+005843
X+029937Y+004307
X+027937Y+004307
X+027750Y+005843
X+026111Y+005498
X+025806Y+005787
X+025481Y+006347
X+026062Y+006500
X+026812Y+007625
X+027468Y+007531
X+029156Y+009062
X+028781Y+009593
X+028781Y+010812
X+029687Y+010906
X+029656Y+011437
X+030562Y+010906
X+031062Y+011437
X+030987Y+011674
X+031184Y+011861
X+031381Y+012048
X+031381Y+012424
X+031468Y+013062
X+030761Y+012611
X+030338Y+013190
X+029964Y+013678
X+030151Y+013865
X+030250Y+014406
X+029718Y+014406
X+029216Y+014491
X+028718Y+014406
X+028437Y+014125
X+028125Y+014406
X+028781Y+013437
X+026812Y+013437
X+025531Y+013437
X+024875Y+014781
X+025248Y+015554
X+024875Y+016031
X+024146Y+016468
X+023968Y+016031
X+023437Y+016031
X+023020Y+015946
X+023437Y+015531
X+023968Y+014781
X+022646Y+014501
X+022187Y+014281
X+022187Y+014812
X+022459Y+015117
X+022312Y+015343
X+021656Y+015343
X+021281Y+014812
X+021281Y+014281
X+021281Y+013437
X+020562Y+013437
X+019875Y+013437
X+019875Y+014281
X+019875Y+014812
X+019875Y+015343
X+021125Y+016156
X+021687Y+016156
X+022156Y+016968
X+022562Y+017000
X+022562Y+017687
X+023218Y+017687
X+023207Y+017434
X+024937Y+018125
X+026093Y+018500
X+027343Y+018125
X+028562Y+018125
X+028562Y+017687
X+029169Y+017418
X+028562Y+017000
X+029486Y+016482
X+029250Y+016156
X+028919Y+015556
X+028438Y+015554
X+027937Y+016031
X+027187Y+016125
X+026687Y+016156
X+026156Y+016031
X+026593Y+014968
X+025718Y+014968
X+023437Y+013437
X+022187Y+013437
X+021100Y+011299
X+021312Y+010843
X+021312Y+010000
X+021312Y+009250
X+021375Y+008531
X+021843Y+008531
X+022107Y+008252
X+022656Y+008687
X+023375Y+008562
X+023215Y+007769
X+023375Y+007343
X+024066Y+007250
X+024031Y+008062
X+024656Y+008562
X+025125Y+008025
X+025577Y+009599
X+025125Y+010906
X+023562Y+010843
X+023562Y+009937
X+022937Y+009375
X+022437Y+010375
X+020562Y+010000
X+020312Y+009750
X+020062Y+009937
X+019906Y+010375
X+019531Y+009937
X+019343Y+009250
X+018656Y+009250
X+019093Y+008525
X+019343Y+008531
X+019343Y+008000
X+020156Y+008000
X+020468Y+007625
X+020156Y+008531
X+020562Y+009250
X+021687Y+007625
X+022406Y+007343
X+022107Y+006610
X+020468Y+006250
X+019343Y+006250
X+017562Y+006125
X+016531Y+006125
X+016468Y+007093
X+016906Y+007357
X+017625Y+008125
X+018437Y+008125
X+016843Y+009218
X+016301Y+009782
X+015718Y+009718
X+015218Y+009000
X+015275Y+008574
X+014500Y+008656
X+014156Y+009718
X+014309Y+010372
X+014156Y+010718
X+015125Y+010718
X+015812Y+010718
X+016843Y+011031
X+017476Y+011001
X+017468Y+010406
X+018391Y+010686
X+019062Y+010906
X+019062Y+011500
X+018768Y+011488
X+018579Y+011701
X+019312Y+011656
X+019500Y+011437
X+019906Y+011250
X+019199Y+012424
X+018312Y+012406
X+016875Y+012000
X+015812Y+012000
X+015125Y+012000
X+014805Y+012086
X+014156Y+012000
X+014490Y+013003
X+015437Y+013437
X+015437Y+014125
X+015749Y+014052
X+015906Y+014875
X+016593Y+014781
X+016593Y+015343
X+017375Y+015343
X+017375Y+014781
X+018000Y+014812
X+018000Y+015343
X+018000Y+014281
X+017000Y+013437
X+016375Y+013437
X+014875Y+014218
X+014187Y+014218
X+013531Y+014875
X+014281Y+015437
X+014504Y+015743
X+015031Y+016062
X+015531Y+016062
X+015781Y+015968
X+015272Y+015554
X+014760Y+015117
X+013531Y+016062
X+013465Y+016468
X+014093Y+016812
X+015031Y+016812
X+015531Y+016812
X+016031Y+016812
X+017187Y+017093
X+017480Y+017434
X+017750Y+017687
X+018343Y+017687
X+018343Y+017093
X+017750Y+017093
X+017667Y+016773
X+018805Y+016468
X+018343Y+018500
X+017812Y+018500
X+017250Y+018500
X+016687Y+018500
X+016125Y+018500
X+015562Y+018500
X+015000Y+018500
X+014437Y+018500
X+013875Y+018500
X+013158Y+018949
X+012093Y+019593
X+012093Y+018218
X+012093Y+016937
X+012093Y+015531
X+011375Y+015531
X+010958Y+015210
X+010718Y+015625
X+010702Y+015944
X+010500Y+015375
X+010562Y+014656
X+009500Y+014656
X+009934Y+015858
X+009678Y+016081
X+008125Y+016468
X+007937Y+014937
X+007937Y+012937
X+008812Y+012406
X+009481Y+012874
X+010562Y+013125
X+011250Y+011906
X+012343Y+012187
X+012875Y+011906
X+013118Y+011316
X+012343Y+010812
X+012156Y+013125
X+012093Y+014468
X+013500Y+013437
X+009968Y+010250
X+008906Y+011593
X+007562Y+010250
X+007937Y+007937
X+006937Y+006937
X+005937Y+005937
X+005937Y+004307
X+007937Y+004307
X+008937Y+004937
X+009937Y+004307
X+010937Y+004937
X+011937Y+004307
X+012312Y+004875
X+011937Y+005937
X+012937Y+006937
X+013468Y+006187
X+014250Y+006968
X+014687Y+007406
X+015120Y+006880
X+015625Y+007093
X+015625Y+007656
X+016064Y+008653
X+015531Y+006125
X+015937Y+004307
X+017937Y+004307
X+019937Y+004307
X+020937Y+004937
X+021937Y+004307
X+022937Y+004937
X+023937Y+004307
X+024937Y+004937
X+025937Y+004307
X+026812Y+010812
X+031062Y+009031
X+032843Y+009312
X+032406Y+010656
X+032843Y+010781
X+032437Y+011468
X+032312Y+013062
X+033371Y+013488
X+033968Y+012750
X+035031Y+013031
X+035000Y+013968
X+035531Y+014500
X+036500Y+014343
X+036500Y+014031
X+037312Y+014343
X+038406Y+014406
X+038406Y+014625
X+038406Y+014843
X+038406Y+015062
X+039031Y+015187
X+039031Y+015437
X+039031Y+015687
X+039031Y+014937
X+039031Y+014687
X+038406Y+014187
X+037968Y+013437
X+037968Y+012718
X+039031Y+013437
X+036562Y+012718
X+035531Y+011906
X+035000Y+011531
X+033937Y+010781
X+033937Y+010375
X+037031Y+008843
X+037968Y+008843
X+039406Y+008843
X+042320Y+007937
X+042320Y+005937
X+039937Y+004307
X+042320Y+009937
X+042321Y+011937
X+042320Y+013937
X+042320Y+015937
X+040937Y+016937
X+042320Y+017937
X+040937Y+018937
X+042320Y+019937
X+040937Y+020937
X+042320Y+021937
X+040937Y+022937
X+042320Y+023937
X+040937Y+024937
X+042320Y+025937
X+042320Y+027937
X+040687Y+027687
X+039437Y+027687
X+039437Y+029187
X+038187Y+029187
X+037593Y+028875
X+037093Y+028875
X+036593Y+028875
X+036093Y+028875
X+035593Y+028875
X+035093Y+028750
X+034593Y+028750
X+034093Y+028750
X+033593Y+028750
X+033093Y+028750
X+032593Y+028750
X+032093Y+028750
X+031593Y+028750
X+031593Y+029406
X+030593Y+029812
X+030593Y+030781
X+031062Y+030781
X+031343Y+030781
X+031781Y+030781
X+031842Y+031220
X+032593Y+030781
X+033093Y+030781
X+033593Y+030781
X+034093Y+030781
X+034593Y+030781
X+035093Y+030781
X+035593Y+030781
X+036093Y+030781
X+036593Y+030781
X+037093Y+030781
X+037593Y+030781
X+038187Y+030687
X+039437Y+030687
X+040687Y+030687
X+040687Y+029187
X+042320Y+029937
X+042320Y+031937
X+040812Y+032499
X+040812Y+033125
X+039812Y+033125
X+039812Y+032499
X+038812Y+032499
X+038812Y+033125
X+037812Y+033125
X+037812Y+032500
X+036812Y+032500
X+036812Y+033125
X+035812Y+033125
X+035812Y+032500
X+034812Y+032500
X+034812Y+033125
X+033812Y+033125
X+033812Y+032500
X+032812Y+032500
X+032812Y+033125
X+032062Y+033125
X+031562Y+033125
X+031562Y+032656
X+031540Y+032313
X+031125Y+032531
X+030843Y+032718
X+030875Y+033125
X+030482Y+032313
X+030000Y+032531
X+029718Y+033093
X+028687Y+033093
X+028687Y+032531
X+027812Y+032531
X+027812Y+033093
X+026781Y+033093
X+026781Y+032531
X+025812Y+032531
X+025812Y+033093
X+024812Y+033093
X+024812Y+032531
X+023843Y+032531
X+023343Y+032531
X+022843Y+032531
X+022843Y+033093
X+023343Y+033093
X+023843Y+033093
X+024468Y+034187
X+025375Y+034187
X+026343Y+034187
X+027343Y+034187
X+028343Y+034187
X+029312Y+034187
X+029937Y+036155
X+027937Y+036155
X+025937Y+036155
X+023937Y+036155
X+021937Y+036155
X+019937Y+036155
X+017937Y+036155
X+015937Y+036155
X+013937Y+036155
X+011937Y+036155
X+009937Y+036155
X+007937Y+036155
X+006937Y+034937
X+007750Y+034562
X+008031Y+033093
X+007656Y+032531
X+006875Y+032812
X+007093Y+031125
X+007562Y+031125
X+008062Y+031125
X+008593Y+031125
X+009062Y+030625
X+009593Y+030312
X+010093Y+030656
X+010562Y+030656
X+011062Y+030656
X+011593Y+030656
X+012062Y+030656
X+012593Y+030656
X+013062Y+030656
X+013562Y+030656
X+014093Y+030656
X+014968Y+030593
X+014968Y+031156
X+015062Y+030000
X+015531Y+030000
X+016062Y+030000
X+016531Y+030000
X+016531Y+029218
X+016062Y+029218
X+016031Y+028750
X+015562Y+028750
X+015562Y+029218
X+015062Y+029218
X+015062Y+028750
X+014593Y+028750
X+014593Y+029437
X+014281Y+029531
X+014093Y+029718
X+013562Y+029718
X+013062Y+029718
X+012562Y+029718
X+012062Y+029718
X+011593Y+029718
X+011062Y+029593
X+010562Y+029468
X+010093Y+029468
X+009593Y+029312
X+009062Y+029187
X+008562Y+029187
X+008218Y+028468
X+008125Y+028062
X+007500Y+028250
X+007500Y+027312
X+008500Y+027062
X+009843Y+027062
X+010687Y+027062
X+011593Y+027062
X+012820Y+027069
X+013482Y+027443
X+015562Y+026812
X+016062Y+026812
X+016500Y+025406
X+017156Y+025500
X+017531Y+025500
X+018093Y+024843
X+018656Y+025062
X+018656Y+024156
X+019187Y+023187
X+019187Y+022187
X+019135Y+021243
X+018805Y+020593
X+019841Y+020209
X+020097Y+020209
X+021315Y+021052
X+021312Y+022187
X+022562Y+021843
X+023281Y+021843
X+024093Y+022156
X+023281Y+022718
X+023281Y+023187
X+022562Y+023187
X+022562Y+022718
X+023281Y+024156
X+024343Y+024156
X+024343Y+023187
X+025406Y+023187
X+026093Y+023187
X+026625Y+023187
X+026625Y+023718
X+027062Y+023656
X+027625Y+024156
X+028031Y+023187
X+028687Y+023187
X+028687Y+023687
X+028820Y+024388
X+029281Y+024250
X+029437Y+023687
X+029437Y+023187
X+029187Y+022718
X+028406Y+021968
X+027750Y+022250
X+026781Y+021968
X+026093Y+021968
X+026187Y+021187
X+026937Y+021187
X+027687Y+021187
X+028437Y+021187
X+029187Y+021187
X+029486Y+020593
X+029000Y+020187
X+029000Y+019718
X+029000Y+019281
X+028562Y+018750
X+027968Y+019281
X+027968Y+019718
X+027968Y+020187
X+029625Y+018156
X+030516Y+018112
X+030772Y+018112
X+031284Y+018299
X+031031Y+018968
X+030516Y+018949
X+030750Y+021187
X+030625Y+022125
X+030937Y+022718
X+030937Y+023187
X+030937Y+023687
X+031000Y+024250
X+030437Y+024187
X+029937Y+024187
X+030187Y+023687
X+030187Y+023187
X+032052Y+023926
X+032308Y+023414
X+032564Y+022951
X+033187Y+022687
X+033687Y+023187
X+033187Y+023687
X+032687Y+024187
X+033187Y+024687
X+033687Y+024187
X+034187Y+024687
X+034687Y+024187
X+035687Y+023187
X+037187Y+023187
X+038437Y+023187
X+037875Y+024656
X+037062Y+026750
X+037062Y+027375
X+036593Y+027375
X+036093Y+027375
X+036281Y+026750
X+035593Y+026750
X+035093Y+026750
X+034562Y+026750
X+034156Y+026750
X+033531Y+026750
X+033125Y+026750
X+032531Y+026750
X+032125Y+026750
X+031531Y+026750
X+031125Y+026906
X+030812Y+027406
X+030531Y+026906
X+030125Y+026906
X+029562Y+026906
X+029125Y+026906
X+028562Y+026906
X+028093Y+026906
X+027593Y+026906
X+028843Y+027406
X+029843Y+027406
X+030334Y+028518
X+030093Y+028750
X+029593Y+028750
X+029093Y+028750
X+028593Y+028750
X+028093Y+028750
X+027593Y+028750
X+027093Y+028750
X+026593Y+028750
X+026093Y+028750
X+025562Y+028750
X+025062Y+028750
X+024343Y+028750
X+023843Y+028750
X+023343Y+028750
X+022843Y+028750
X+021843Y+029093
X+021843Y+029968
X+022843Y+029968
X+023343Y+029968
X+023843Y+029968
X+024343Y+029968
X+025062Y+030781
X+025562Y+030781
X+026093Y+030781
X+026593Y+030781
X+027093Y+030781
X+027593Y+030781
X+028093Y+030781
X+028593Y+030781
X+029093Y+030781
X+029593Y+030781
X+030093Y+030781
X+030593Y+028750
X+031812Y+027281
X+032843Y+027375
X+033843Y+027375
X+034718Y+027375
X+035437Y+027375
X+032187Y+024687
X+031796Y+024575
X+031540Y+024762
X+031284Y+024949
X+028820Y+025548
X+026093Y+024156
X+025406Y+024156
X+025007Y+025533
X+025820Y+026843
X+023465Y+026518
X+022125Y+025562
X+021820Y+026674
X+020843Y+026843
X+019820Y+027256
X+019843Y+025437
X+020682Y+025136
X+021062Y+024156
X+020031Y+024156
X+020281Y+023187
X+017718Y+023187
X+017187Y+022656
X+015593Y+024375
X+014562Y+024750
X+013562Y+024750
X+013000Y+024750
X+012312Y+025468
X+011156Y+024000
X+010437Y+022718
X+010446Y+022306
X+009934Y+023107
X+007500Y+023593
X+005937Y+023937
X+004273Y+022937
X+005937Y+021937
X+004273Y+020937
X+005937Y+019937
X+007500Y+019718
X+007812Y+019406
X+008117Y+020593
X+009166Y+020209
X+009166Y+017925
X+005937Y+017937
X+004273Y+016937
X+005937Y+015937
X+004273Y+014937
X+005937Y+013937
X+004273Y+012937
X+005937Y+011937
X+004273Y+010937
X+004273Y+008937
X+004273Y+006937
X+007937Y+005937
X+008937Y+006937
X+009937Y+007937
X+010937Y+006937
X+009937Y+005937
X+011937Y+007937
X+013937Y+004307
X+021125Y+016968
X+022468Y+019343
X+022468Y+019750
X+022468Y+020187
X+023250Y+020187
X+023250Y+019750
X+023250Y+019343
X+024146Y+020593
X+024092Y+021050
X+024751Y+021050
X+025007Y+021243
X+022562Y+021047
X+018343Y+019375
X+017812Y+019375
X+017250Y+019375
X+014504Y+020209
X+014156Y+021000
X+014406Y+021156
X+014500Y+021781
X+013562Y+021781
X+013281Y+021000
X+012937Y+021093
X+012437Y+021104
X+012093Y+021312
X+011784Y+020966
X+013457Y+020593
X+013000Y+023093
X+013562Y+023750
X+014562Y+023750
X+016531Y+028750
X+017062Y+028750
X+017062Y+029218
X+017593Y+029218
X+017593Y+028750
X+018031Y+028718
X+018295Y+028980
X+018531Y+029218
X+019062Y+029218
X+019531Y+029625
X+019093Y+030062
X+019875Y+030218
X+020843Y+030218
X+020843Y+031250
X+019843Y+031250
X+018968Y+031156
X+018531Y+030656
X+018093Y+031156
X+017593Y+030687
X+017062Y+030593
X+016218Y+031156
X+015843Y+032531
X+015843Y+033093
X+014843Y+033093
X+014843Y+032531
X+013812Y+032531
X+013812Y+033218
X+012812Y+033218
X+012812Y+032531
X+011843Y+032531
X+011843Y+033218
X+010812Y+033218
X+010343Y+032968
X+009812Y+033218
X+009812Y+032531
X+010812Y+032531
X+009625Y+031062
X+008593Y+030218
X+008062Y+029843
X+007562Y+029500
X+007093Y+029156
X+005937Y+029937
X+004273Y+028937
X+005937Y+027937
X+004273Y+026937
X+005937Y+025937
X+007500Y+026000
X+004273Y+024937
X+004273Y+030937
X+004273Y+032937
X+004273Y+034937
X+005937Y+036155
X+008781Y+033218
X+008781Y+032531
X+017125Y+033093
X+017625Y+032531
X+017343Y+032062
X+018093Y+033093
X+018562Y+032531
X+019062Y+033093
X+019531Y+032531
X+020000Y+033093
X+020531Y+032531
X+021062Y+033093
X+022000Y+033093
X+022000Y+032531
X+021843Y+031250
X+022843Y+031250
X+023343Y+031250
X+023843Y+031250
X+024344Y+031220
X+020937Y+029093
X+020062Y+029125
X+021343Y+034062
X+031937Y+036155
X+033937Y+036155
X+034937Y+034937
X+035937Y+036155
X+036937Y+034937
X+037937Y+036155
X+038937Y+034937
X+039937Y+036155
X+040937Y+034937
X+042320Y+033937
X+032062Y+032500
X+033187Y+021750
X+033187Y+021250
X+033343Y+019875
X+033343Y+019406
X+033343Y+018968
X+034250Y+018968
X+034250Y+019406
X+034250Y+019875
X+034826Y+020593
X+035687Y+021125
X+037343Y+021406
X+037593Y+021218
X+038187Y+021125
X+038937Y+019937
X+038937Y+018937
X+038937Y+017937
X+038625Y+017437
X+037937Y+015937
X+036875Y+016031
X+036572Y+016621
X+036292Y+016808
X+036056Y+016857
X+035598Y+016773
X+034863Y+016485
X+034750Y+016062
X+034437Y+016062
X+034098Y+015577
X+034285Y+015341
X+032946Y+016040
X+032759Y+015853
X+032187Y+015843
X+031250Y+016156
X+030525Y+016079
X+030125Y+016031
X+031468Y+014406
X+032312Y+014406
X+033133Y+017165
X+033187Y+017500
X+033843Y+017500
X+034406Y+017500
X+035113Y+017506
X+036875Y+016812
X+004273Y+018937
T02
X+040422Y+011736G85X+039989Y+011736
X+041969Y+011736G85X+041733Y+011736
X+041969Y+015138G85X+041733Y+015138
X+040422Y+015138G85X+039989Y+015138
T03
X+022590Y+006315
X+023082Y+006315
X+023574Y+006315
X+024066Y+006315
X+040414Y+012299
X+040414Y+014575
T04
X+009187Y+022065
X+008187Y+022065
X+011437Y+022065
X+012437Y+022065
X+034187Y+022065
X+035187Y+022065
X+037437Y+022065
X+038437Y+022065
T05
X+008842Y+026065
X+009842Y+026065
X+010842Y+026065
X+011842Y+026065
X+012842Y+026065
X+013842Y+026065
X+014842Y+026065
X+015842Y+026065
X+016842Y+026065
X+017842Y+026065
X+018842Y+026065
X+019842Y+026065
X+020842Y+026065
X+021842Y+026065
X+022842Y+026065
X+023842Y+026065
X+024842Y+026065
X+025842Y+026065
X+026842Y+026065
X+027842Y+026065
X+028842Y+026065
X+029842Y+026065
X+030842Y+026065
X+031842Y+026065
X+032842Y+026065
X+033842Y+026065
X+034842Y+026065
X+035842Y+026065
X+036842Y+026065
X+037842Y+026065
X+037842Y+028065
X+036842Y+028065
X+035842Y+028065
X+034842Y+028065
X+033842Y+028065
X+032842Y+028065
X+031842Y+028065
X+030842Y+028065
X+029842Y+028065
X+028842Y+028065
X+027842Y+028065
X+026842Y+028065
X+025842Y+028065
X+024842Y+028065
X+023842Y+028065
X+022842Y+028065
X+021842Y+028065
X+020842Y+028065
X+019842Y+028065
X+018842Y+028065
X+017842Y+028065
X+016842Y+028065
X+015842Y+028065
X+014842Y+028065
X+013842Y+028065
X+012842Y+028065
X+011842Y+028065
X+010842Y+028065
X+009842Y+028065
X+008842Y+028065
X+008842Y+031811
X+009842Y+031811
X+010842Y+031811
X+011842Y+031811
X+012842Y+031811
X+013842Y+031811
X+014842Y+031811
X+015842Y+031811
X+016842Y+031811
X+017842Y+031811
X+018842Y+031811
X+019842Y+031811
X+020842Y+031811
X+021842Y+031811
X+022842Y+031811
X+023842Y+031811
X+024842Y+031811
X+025842Y+031811
X+026842Y+031811
X+027842Y+031811
X+028842Y+031811
X+029842Y+031811
X+030842Y+031811
X+031842Y+031811
X+032842Y+031811
X+033842Y+031811
X+034842Y+031811
X+035842Y+031811
X+036842Y+031811
X+037842Y+031811
X+038842Y+031811
X+039842Y+031811
X+040842Y+031811
X+040842Y+033811
X+039842Y+033811
X+038842Y+033811
X+037842Y+033811
X+036842Y+033811
X+035842Y+033811
X+034842Y+033811
X+033842Y+033811
X+032842Y+033811
X+031842Y+033811
X+030842Y+033811
X+029842Y+033811
X+028842Y+033811
X+027842Y+033811
X+026842Y+033811
X+025842Y+033811
X+024842Y+033811
X+023842Y+033811
X+022842Y+033811
X+021842Y+033811
X+020842Y+033811
X+019842Y+033811
X+018842Y+033811
X+017842Y+033811
X+016842Y+033811
X+015842Y+033811
X+014842Y+033811
X+013842Y+033811
X+012842Y+033811
X+011842Y+033811
X+010842Y+033811
X+009842Y+033811
X+008842Y+033811
X+007842Y+033811
X+006842Y+033811
X+005842Y+033811
X+005842Y+031811
X+006842Y+031811
X+007842Y+031811
T06
X+006875Y+008437
X+006875Y+009437
X+013062Y+005065
X+014062Y+005065
X+015062Y+005065
X+016062Y+005065
X+017062Y+005065
X+018062Y+005065
X+027812Y+005065
X+028812Y+005065
X+029812Y+005065
X+030812Y+005065
X+031812Y+005065
X+032812Y+005065
T07
X+005000Y+035718
X+005000Y+005000
X+041625Y+005000
X+041625Y+035750
T00
M30
