G04 DipTrace 4.0.0.5*
G04 TopMask.gbr*
%MOIN*%
G04 #@! TF.FileFunction,Soldermask,Top*
G04 #@! TF.Part,Single*
%AMOUTLINE1*
4,1,28,
0.005838,-0.028937,
-0.005838,-0.028937,
-0.007649,-0.028699,
-0.009457,-0.02795,
-0.01101,-0.026758,
-0.012202,-0.025205,
-0.01295,-0.023397,
-0.013189,-0.021586,
-0.013189,0.021586,
-0.01295,0.023397,
-0.012202,0.025205,
-0.01101,0.026758,
-0.009457,0.02795,
-0.007649,0.028699,
-0.005838,0.028937,
0.005838,0.028937,
0.007649,0.028699,
0.009457,0.02795,
0.01101,0.026758,
0.012202,0.025205,
0.01295,0.023397,
0.013189,0.021586,
0.013189,-0.021586,
0.01295,-0.023397,
0.012202,-0.025205,
0.01101,-0.026758,
0.009457,-0.02795,
0.007649,-0.028699,
0.005838,-0.028937,
0*%
%AMOUTLINE4*
4,1,28,
0.028937,0.005838,
0.028937,-0.005838,
0.028699,-0.007649,
0.02795,-0.009457,
0.026758,-0.01101,
0.025205,-0.012202,
0.023397,-0.01295,
0.021586,-0.013189,
-0.021586,-0.013189,
-0.023397,-0.01295,
-0.025205,-0.012202,
-0.026758,-0.01101,
-0.02795,-0.009457,
-0.028699,-0.007649,
-0.028937,-0.005838,
-0.028937,0.005838,
-0.028699,0.007649,
-0.02795,0.009457,
-0.026758,0.01101,
-0.025205,0.012202,
-0.023397,0.01295,
-0.021586,0.013189,
0.021586,0.013189,
0.023397,0.01295,
0.025205,0.012202,
0.026758,0.01101,
0.02795,0.009457,
0.028699,0.007649,
0.028937,0.005838,
0*%
%AMOUTLINE7*
4,1,28,
-0.005838,0.028937,
0.005838,0.028937,
0.007649,0.028699,
0.009457,0.02795,
0.01101,0.026758,
0.012202,0.025205,
0.01295,0.023397,
0.013189,0.021586,
0.013189,-0.021586,
0.01295,-0.023397,
0.012202,-0.025205,
0.01101,-0.026758,
0.009457,-0.02795,
0.007649,-0.028699,
0.005838,-0.028937,
-0.005838,-0.028937,
-0.007649,-0.028699,
-0.009457,-0.02795,
-0.01101,-0.026758,
-0.012202,-0.025205,
-0.01295,-0.023397,
-0.013189,-0.021586,
-0.013189,0.021586,
-0.01295,0.023397,
-0.012202,0.025205,
-0.01101,0.026758,
-0.009457,0.02795,
-0.007649,0.028699,
-0.005838,0.028937,
0*%
%AMOUTLINE10*
4,1,28,
-0.028937,-0.005838,
-0.028937,0.005838,
-0.028699,0.007649,
-0.02795,0.009457,
-0.026758,0.01101,
-0.025205,0.012202,
-0.023397,0.01295,
-0.021586,0.013189,
0.021586,0.013189,
0.023397,0.01295,
0.025205,0.012202,
0.026758,0.01101,
0.02795,0.009457,
0.028699,0.007649,
0.028937,0.005838,
0.028937,-0.005838,
0.028699,-0.007649,
0.02795,-0.009457,
0.026758,-0.01101,
0.025205,-0.012202,
0.023397,-0.01295,
0.021586,-0.013189,
-0.021586,-0.013189,
-0.023397,-0.01295,
-0.025205,-0.012202,
-0.026758,-0.01101,
-0.02795,-0.009457,
-0.028699,-0.007649,
-0.028937,-0.005838,
0*%
%ADD24C,0.070866*%
%ADD39C,0.11811*%
%ADD40C,0.025591*%
%ADD47R,0.043307X0.03937*%
%ADD49R,0.019685X0.074803*%
%ADD51R,0.088583X0.13189*%
%ADD53R,0.088583X0.041339*%
%ADD55R,0.015748X0.066929*%
%ADD57R,0.066929X0.015748*%
%ADD59C,0.062992*%
%ADD60R,0.070866X0.070866*%
%ADD61R,0.062992X0.062992*%
%ADD62O,0.062992X0.03937*%
%ADD64O,0.082677X0.03937*%
%ADD66R,0.061024X0.027559*%
%ADD68R,0.061024X0.015748*%
%ADD70C,0.074803*%
%ADD71R,0.043307X0.043307*%
%ADD75R,0.031496X0.03937*%
%ADD77R,0.043307X0.047244*%
%ADD79R,0.03937X0.031496*%
%ADD87OUTLINE1*%
%ADD90OUTLINE4*%
%ADD93OUTLINE7*%
%ADD96OUTLINE10*%
%FSLAX26Y26*%
G04*
G70*
G90*
G75*
G01*
G04 TopMask*
%LPD*%
D79*
X2124361Y1087748D3*
X2175542D3*
X1980610Y968997D3*
X2031791D3*
D77*
X3412451Y985534D3*
Y1052463D3*
Y589963D3*
Y523034D3*
D59*
X818701Y2206499D3*
D61*
X718701D3*
D59*
X1143701D3*
D61*
X1043701D3*
D59*
X3043701D3*
D61*
X2943701D3*
D59*
X3368701D3*
D61*
X3268701D3*
D71*
X1971459Y631499D3*
X2020672D3*
X2069885D3*
X2119097D3*
D39*
X499951Y2999951D3*
X3587451Y2999950D3*
X499950Y499950D3*
X3587451D3*
D70*
X3494525Y2806499D3*
Y2606499D3*
X3394525Y2806499D3*
Y2606499D3*
X2994525Y2806499D3*
Y2606499D3*
X2894525Y2806499D3*
Y2606499D3*
X2794525Y2806499D3*
Y2606499D3*
X2494525D3*
Y2806499D3*
X2394525D3*
Y2606499D3*
X1994525D3*
X1894525D3*
X1794525D3*
X1694525D3*
X1594525D3*
X594525D3*
X694525D3*
X794525D3*
X894525D3*
X994525D3*
X1094525D3*
X1194525D3*
X1294525D3*
X1394525D3*
X1494525D3*
X1994525Y2806499D3*
X1894525D3*
X1794525D3*
X1694525D3*
X1594525D3*
X1494525D3*
X1394525D3*
X1294525D3*
X1194525D3*
X1094525D3*
X994525D3*
X894525D3*
X794525D3*
X694525D3*
X594525D3*
X2094525Y2606499D3*
Y2806499D3*
X2194525D3*
Y2606499D3*
X2294525Y2806499D3*
Y2606499D3*
X2594525D3*
Y2806499D3*
X2694525D3*
Y2606499D3*
X3094525D3*
Y2806499D3*
X3194525Y2606499D3*
Y2806499D3*
X3294525Y2606499D3*
Y2806499D3*
D68*
X3396999Y1353543D3*
Y1333858D3*
Y1314173D3*
Y1294488D3*
Y1274803D3*
Y1373228D3*
Y1392913D3*
Y1412598D3*
D66*
Y1247244D3*
Y1215748D3*
Y1471654D3*
Y1440157D3*
D64*
X3433022Y1173622D3*
Y1513780D3*
D62*
X3597589Y1173622D3*
Y1513780D3*
D40*
X3453888Y1229921D3*
Y1457480D3*
D60*
X756201Y862451D3*
D24*
Y962451D3*
D60*
X1518701Y506499D3*
D24*
X1418701D3*
X1318701D3*
X1218701D3*
X1118701D3*
X1018701D3*
D60*
X2993702D3*
D24*
X2893702D3*
X2793702D3*
X2693702D3*
X2593702D3*
X2493702D3*
D79*
X2293110D3*
X2344291D3*
X3319291Y1368999D3*
X3268110D3*
X3319291Y1318999D3*
X3268110D3*
X3319291Y1481499D3*
X3268110D3*
D75*
X568702Y1432089D3*
Y1380908D3*
X643701Y1432089D3*
Y1380908D3*
X718701Y1432089D3*
Y1380908D3*
X793701Y1432089D3*
Y1380908D3*
D57*
X2322064Y1432379D3*
Y1412694D3*
Y1393009D3*
Y1373324D3*
Y1353639D3*
Y1333954D3*
Y1314269D3*
Y1294584D3*
Y1274899D3*
Y1255214D3*
Y1235529D3*
Y1215844D3*
Y1196159D3*
Y1176474D3*
Y1156789D3*
Y1137104D3*
Y1117419D3*
Y1097734D3*
Y1078049D3*
Y1058364D3*
Y1038678D3*
Y1018993D3*
Y999308D3*
Y979623D3*
Y959938D3*
Y940253D3*
Y920568D3*
Y900883D3*
Y881198D3*
Y861513D3*
Y841828D3*
Y822143D3*
Y802458D3*
Y782773D3*
Y763088D3*
Y743403D3*
D55*
X2398836Y666631D3*
X2418521D3*
X2438206D3*
X2457891D3*
X2477576D3*
X2497261D3*
X2516946D3*
X2536631D3*
X2556316D3*
X2576001D3*
X2595686D3*
X2615371D3*
X2635056D3*
X2654741D3*
X2674427D3*
X2694112D3*
X2713797D3*
X2733482D3*
X2753167D3*
X2772852D3*
X2792537D3*
X2812222D3*
X2831907D3*
X2851592D3*
X2871277D3*
X2890962D3*
X2910647D3*
X2930332D3*
X2950017D3*
X2969702D3*
X2989387D3*
X3009072D3*
X3028757D3*
X3048442D3*
X3068127D3*
X3087812D3*
D57*
X3164584Y743403D3*
Y763088D3*
Y782773D3*
Y802458D3*
Y822143D3*
Y841828D3*
Y861513D3*
Y881198D3*
Y900883D3*
Y920568D3*
Y940253D3*
Y959938D3*
Y979623D3*
Y999308D3*
Y1018993D3*
Y1038678D3*
Y1058364D3*
Y1078049D3*
Y1097734D3*
Y1117419D3*
Y1137104D3*
Y1156789D3*
Y1176474D3*
Y1196159D3*
Y1215844D3*
Y1235529D3*
Y1255214D3*
Y1274899D3*
Y1294584D3*
Y1314269D3*
Y1333954D3*
Y1353639D3*
Y1373324D3*
Y1393009D3*
Y1412694D3*
Y1432379D3*
D55*
X3087812Y1509151D3*
X3068127D3*
X3048442D3*
X3028757D3*
X3009072D3*
X2989387D3*
X2969702D3*
X2950017D3*
X2930332D3*
X2910647D3*
X2890962D3*
X2871277D3*
X2851592D3*
X2831907D3*
X2812222D3*
X2792537D3*
X2772852D3*
X2753167D3*
X2733482D3*
X2713797D3*
X2694112D3*
X2674427D3*
X2654741D3*
X2635056D3*
X2615371D3*
X2595686D3*
X2576001D3*
X2556316D3*
X2536631D3*
X2516946D3*
X2497261D3*
X2477576D3*
X2457891D3*
X2438206D3*
X2418521D3*
X2398836D3*
D87*
X1444929Y1258612D3*
X1413433D3*
X1381937D3*
X1350441D3*
X1318945D3*
X1287449D3*
X1255953D3*
X1224457D3*
X1192961D3*
X1161465D3*
X1129969D3*
D90*
X1065992Y1194635D3*
Y1163139D3*
Y1131643D3*
Y1100147D3*
Y1068651D3*
Y1037155D3*
Y1005659D3*
Y974163D3*
Y942667D3*
Y911171D3*
Y879675D3*
D93*
X1129969Y815698D3*
X1161465D3*
X1192961D3*
X1224457D3*
X1255953D3*
X1287449D3*
X1318945D3*
X1350441D3*
X1381937D3*
X1413433D3*
X1444929D3*
D96*
X1508906Y879675D3*
Y911171D3*
Y942667D3*
Y974163D3*
Y1005659D3*
Y1037155D3*
Y1068651D3*
Y1100147D3*
Y1131643D3*
Y1163139D3*
Y1194635D3*
D53*
X3548287Y700534D3*
Y791085D3*
Y881636D3*
D51*
X3319941Y791085D3*
D49*
X577953Y1742322D3*
X603543D3*
X629134D3*
X654724D3*
X680315D3*
X705906D3*
X731496D3*
X757087D3*
X782677D3*
X808268D3*
X833858D3*
X859449D3*
Y1970676D3*
X833858Y1970668D3*
X808268D3*
X782677D3*
X757087D3*
X731496D3*
X705906D3*
X680315D3*
X654724D3*
X629134D3*
X603543D3*
X577953D3*
X1227953Y1742322D3*
X1253543D3*
X1279134D3*
X1304724D3*
X1330315D3*
X1355906D3*
X1381496D3*
X1407087D3*
X1432677D3*
X1458268D3*
X1483858D3*
X1509449D3*
Y1970676D3*
X1483858Y1970668D3*
X1458268D3*
X1432677D3*
X1407087D3*
X1381496D3*
X1355906D3*
X1330315D3*
X1304724D3*
X1279134D3*
X1253543D3*
X1227953D3*
X1877953Y1742322D3*
X1903543D3*
X1929134D3*
X1954724D3*
X1980315D3*
X2005906D3*
X2031496D3*
X2057087D3*
X2082677D3*
X2108268D3*
X2133858D3*
X2159449D3*
Y1970676D3*
X2133858Y1970668D3*
X2108268D3*
X2082677D3*
X2057087D3*
X2031496D3*
X2005906D3*
X1980315D3*
X1954724D3*
X1929134D3*
X1903543D3*
X1877953D3*
X2527953Y1742322D3*
X2553543D3*
X2579134D3*
X2604724D3*
X2630315D3*
X2655906D3*
X2681496D3*
X2707087D3*
X2732677D3*
X2758268D3*
X2783858D3*
X2809449D3*
Y1970676D3*
X2783858Y1970668D3*
X2758268D3*
X2732677D3*
X2707087D3*
X2681496D3*
X2655906D3*
X2630315D3*
X2604724D3*
X2579134D3*
X2553543D3*
X2527953D3*
X3177951Y1742322D3*
X3203542D3*
X3229133D3*
X3254723D3*
X3280314D3*
X3305904D3*
X3331495D3*
X3357085D3*
X3382676D3*
X3408266D3*
X3433857D3*
X3459448D3*
Y1970676D3*
X3433857Y1970668D3*
X3408266D3*
X3382676D3*
X3357085D3*
X3331495D3*
X3305904D3*
X3280314D3*
X3254723D3*
X3229133D3*
X3203542D3*
X3177951D3*
D47*
X2112206Y1017621D3*
X2175198D3*
X2112206Y970377D3*
X2175198D3*
M02*
