G04 DipTrace 4.0.0.5*
G04 TopMask.gbr*
%MOIN*%
G04 #@! TF.FileFunction,Soldermask,Top*
G04 #@! TF.Part,Single*
%AMOUTLINE1*
4,1,28,
0.005838,-0.028937,
-0.005838,-0.028937,
-0.007649,-0.028699,
-0.009457,-0.02795,
-0.01101,-0.026758,
-0.012202,-0.025205,
-0.01295,-0.023397,
-0.013189,-0.021586,
-0.013189,0.021586,
-0.01295,0.023397,
-0.012202,0.025205,
-0.01101,0.026758,
-0.009457,0.02795,
-0.007649,0.028699,
-0.005838,0.028937,
0.005838,0.028937,
0.007649,0.028699,
0.009457,0.02795,
0.01101,0.026758,
0.012202,0.025205,
0.01295,0.023397,
0.013189,0.021586,
0.013189,-0.021586,
0.01295,-0.023397,
0.012202,-0.025205,
0.01101,-0.026758,
0.009457,-0.02795,
0.007649,-0.028699,
0.005838,-0.028937,
0*%
%AMOUTLINE4*
4,1,28,
0.028937,0.005838,
0.028937,-0.005838,
0.028699,-0.007649,
0.02795,-0.009457,
0.026758,-0.01101,
0.025205,-0.012202,
0.023397,-0.01295,
0.021586,-0.013189,
-0.021586,-0.013189,
-0.023397,-0.01295,
-0.025205,-0.012202,
-0.026758,-0.01101,
-0.02795,-0.009457,
-0.028699,-0.007649,
-0.028937,-0.005838,
-0.028937,0.005838,
-0.028699,0.007649,
-0.02795,0.009457,
-0.026758,0.01101,
-0.025205,0.012202,
-0.023397,0.01295,
-0.021586,0.013189,
0.021586,0.013189,
0.023397,0.01295,
0.025205,0.012202,
0.026758,0.01101,
0.02795,0.009457,
0.028699,0.007649,
0.028937,0.005838,
0*%
%AMOUTLINE7*
4,1,28,
-0.005838,0.028937,
0.005838,0.028937,
0.007649,0.028699,
0.009457,0.02795,
0.01101,0.026758,
0.012202,0.025205,
0.01295,0.023397,
0.013189,0.021586,
0.013189,-0.021586,
0.01295,-0.023397,
0.012202,-0.025205,
0.01101,-0.026758,
0.009457,-0.02795,
0.007649,-0.028699,
0.005838,-0.028937,
-0.005838,-0.028937,
-0.007649,-0.028699,
-0.009457,-0.02795,
-0.01101,-0.026758,
-0.012202,-0.025205,
-0.01295,-0.023397,
-0.013189,-0.021586,
-0.013189,0.021586,
-0.01295,0.023397,
-0.012202,0.025205,
-0.01101,0.026758,
-0.009457,0.02795,
-0.007649,0.028699,
-0.005838,0.028937,
0*%
%AMOUTLINE10*
4,1,28,
-0.028937,-0.005838,
-0.028937,0.005838,
-0.028699,0.007649,
-0.02795,0.009457,
-0.026758,0.01101,
-0.025205,0.012202,
-0.023397,0.01295,
-0.021586,0.013189,
0.021586,0.013189,
0.023397,0.01295,
0.025205,0.012202,
0.026758,0.01101,
0.02795,0.009457,
0.028699,0.007649,
0.028937,0.005838,
0.028937,-0.005838,
0.028699,-0.007649,
0.02795,-0.009457,
0.026758,-0.01101,
0.025205,-0.012202,
0.023397,-0.01295,
0.021586,-0.013189,
-0.021586,-0.013189,
-0.023397,-0.01295,
-0.025205,-0.012202,
-0.026758,-0.01101,
-0.02795,-0.009457,
-0.028699,-0.007649,
-0.028937,-0.005838,
0*%
%ADD40C,0.11811*%
%ADD41C,0.025591*%
%ADD47R,0.043307X0.03937*%
%ADD49R,0.019685X0.074803*%
%ADD51R,0.088583X0.13189*%
%ADD53R,0.088583X0.041339*%
%ADD55R,0.015748X0.066929*%
%ADD57R,0.066929X0.015748*%
%ADD59C,0.070866*%
%ADD60C,0.062992*%
%ADD61R,0.070866X0.070866*%
%ADD62R,0.062992X0.062992*%
%ADD63O,0.062992X0.03937*%
%ADD65O,0.082677X0.03937*%
%ADD67R,0.061024X0.027559*%
%ADD69R,0.061024X0.015748*%
%ADD71C,0.074803*%
%ADD73R,0.043307X0.043307*%
%ADD77R,0.031496X0.03937*%
%ADD79R,0.043307X0.047244*%
%ADD81R,0.03937X0.031496*%
%ADD89OUTLINE1*%
%ADD92OUTLINE4*%
%ADD95OUTLINE7*%
%ADD98OUTLINE10*%
%FSLAX26Y26*%
G04*
G70*
G90*
G75*
G01*
G04 TopMask*
%LPD*%
D81*
X2411861Y1087748D3*
X2463042D3*
X2268110Y968997D3*
X2319291D3*
D79*
X3943701Y991487D3*
Y1058416D3*
Y583416D3*
Y516487D3*
D81*
X2668110Y1584327D3*
X2719291D3*
X2924360D3*
X2975541D3*
X3124360D3*
X3175541D3*
D77*
X3524950Y1450541D3*
Y1399360D3*
Y1181791D3*
Y1130610D3*
Y975542D3*
Y924361D3*
D81*
X3388042Y593701D3*
X3336861D3*
X3194291D3*
X3143110D3*
X2994291D3*
X2943110D3*
X2744291D3*
X2693110D3*
D77*
X2537450Y818110D3*
Y869291D3*
X2537451Y1099360D3*
Y1150541D3*
D81*
X1475541Y1331201D3*
X1424360D3*
D77*
X1281201Y1030610D3*
Y1081791D3*
X1868701Y1113042D3*
Y1061861D3*
D81*
X1593110Y737450D3*
X1644291D3*
D77*
X812450Y1775839D3*
Y1724657D3*
Y1935633D3*
Y1986814D3*
X1346486Y1775839D3*
Y1724657D3*
Y1935633D3*
Y1986814D3*
X1880521Y1775839D3*
Y1724657D3*
Y1935633D3*
Y1986814D3*
X2414558Y1775839D3*
Y1724657D3*
Y1935633D3*
Y1986814D3*
X2948593Y1775839D3*
Y1724657D3*
Y1935633D3*
Y1986814D3*
X3482629Y1775839D3*
Y1724657D3*
Y1935633D3*
Y1986814D3*
D60*
X918701Y2206499D3*
D62*
X818701D3*
D60*
X1243701D3*
D62*
X1143701D3*
D60*
X3518701D3*
D62*
X3418701D3*
D60*
X3843701D3*
D62*
X3743701D3*
D73*
X2258959Y631499D3*
X2308172D3*
X2357385D3*
X2406597D3*
D40*
X499951Y3549950D3*
X4162450D3*
X499951Y499950D3*
X4162450D3*
D71*
X882025Y2606499D3*
X982025D3*
X1082025D3*
X1182025D3*
X1282025D3*
X1382025D3*
X1482025D3*
X1582025D3*
X1682025D3*
X1782025D3*
X1882025D3*
X1982025D3*
X2082025D3*
X2182025D3*
X2282025D3*
X2382025D3*
X2482025D3*
X2582025D3*
X2682025D3*
X2782025D3*
X2882025D3*
X2982025D3*
X3082025D3*
X3182025D3*
X3282025D3*
X3382025D3*
X3482025D3*
X3582025D3*
X3682025D3*
X3782025D3*
Y2806499D3*
X3682025D3*
X3582025D3*
X3482025D3*
X3382025D3*
X3282025D3*
X3182025D3*
X3082025D3*
X2982025D3*
X2882025D3*
X2782025D3*
X2682025D3*
X2582025D3*
X2482025D3*
X2382025D3*
X2282025D3*
X2182025D3*
X2082025D3*
X1982025D3*
X1882025D3*
X1782025D3*
X1682025D3*
X1582025D3*
X1482025D3*
X1382025D3*
X1282025D3*
X1182025D3*
X1082025D3*
X982025D3*
X882025D3*
D69*
X3965748Y1353543D3*
Y1333858D3*
Y1314173D3*
Y1294488D3*
Y1274803D3*
Y1373228D3*
Y1392913D3*
Y1412598D3*
D67*
Y1247244D3*
Y1215748D3*
Y1471654D3*
Y1440157D3*
D65*
X4001772Y1173622D3*
Y1513780D3*
D63*
X4166339Y1173622D3*
Y1513780D3*
D41*
X4022638Y1229921D3*
Y1457480D3*
D61*
X687451Y843701D3*
D59*
Y943701D3*
D61*
X1806201Y506499D3*
D59*
X1706201D3*
X1606201D3*
X1506201D3*
X1406201D3*
X1306201D3*
D61*
X3281202D3*
D59*
X3181202D3*
X3081202D3*
X2981202D3*
X2881202D3*
X2781202D3*
D71*
X581412Y3181076D3*
X681412D3*
X781412D3*
X881412D3*
X981412D3*
X1081412D3*
X1181412D3*
X1281412D3*
X1381412D3*
X1481412D3*
X1581412D3*
X1681412D3*
X1781412D3*
X1881412D3*
X1981412D3*
X2081412D3*
X2181412D3*
X2281412D3*
X2381412D3*
X2481412D3*
X2581412D3*
X2681412D3*
X2781412D3*
X2881412D3*
X2981412D3*
X3081412D3*
X3181412D3*
X3281412D3*
X3381412D3*
X3481412D3*
X3581412D3*
X3681412D3*
X3781412D3*
X3881412D3*
X3981412D3*
X4081412D3*
Y3381076D3*
X3981412D3*
X3881412D3*
X3781412D3*
X3681412D3*
X3581412D3*
X3481412D3*
X3381412D3*
X3281412D3*
X3181412D3*
X3081412D3*
X2981412D3*
X2881412D3*
X2781412D3*
X2681412D3*
X2581412D3*
X2481412D3*
X2381412D3*
X2281412D3*
X2181412D3*
X2081412D3*
X1981412D3*
X1881412D3*
X1781412D3*
X1681412D3*
X1581412D3*
X1481412D3*
X1381412D3*
X1281412D3*
X1181412D3*
X1081412D3*
X981412D3*
X881412D3*
X781412D3*
X681412D3*
X581412D3*
D81*
X2580610Y506499D3*
X2631791D3*
X3669291Y1368999D3*
X3618110D3*
X3669291Y1318999D3*
X3618110D3*
X3669291Y1481499D3*
X3618110D3*
X968110Y1099950D3*
X1019291D3*
X968110Y1174949D3*
X1019291D3*
X968110Y1249949D3*
X1019291D3*
X968110Y1324949D3*
X1019291D3*
D57*
X2609564Y1432379D3*
Y1412694D3*
Y1393009D3*
Y1373324D3*
Y1353639D3*
Y1333954D3*
Y1314269D3*
Y1294584D3*
Y1274899D3*
Y1255214D3*
Y1235529D3*
Y1215844D3*
Y1196159D3*
Y1176474D3*
Y1156789D3*
Y1137104D3*
Y1117419D3*
Y1097734D3*
Y1078049D3*
Y1058364D3*
Y1038678D3*
Y1018993D3*
Y999308D3*
Y979623D3*
Y959938D3*
Y940253D3*
Y920568D3*
Y900883D3*
Y881198D3*
Y861513D3*
Y841828D3*
Y822143D3*
Y802458D3*
Y782773D3*
Y763088D3*
Y743403D3*
D55*
X2686336Y666631D3*
X2706021D3*
X2725706D3*
X2745391D3*
X2765076D3*
X2784761D3*
X2804446D3*
X2824131D3*
X2843816D3*
X2863501D3*
X2883186D3*
X2902871D3*
X2922556D3*
X2942241D3*
X2961927D3*
X2981612D3*
X3001297D3*
X3020982D3*
X3040667D3*
X3060352D3*
X3080037D3*
X3099722D3*
X3119407D3*
X3139092D3*
X3158777D3*
X3178462D3*
X3198147D3*
X3217832D3*
X3237517D3*
X3257202D3*
X3276887D3*
X3296572D3*
X3316257D3*
X3335942D3*
X3355627D3*
X3375312D3*
D57*
X3452084Y743403D3*
Y763088D3*
Y782773D3*
Y802458D3*
Y822143D3*
Y841828D3*
Y861513D3*
Y881198D3*
Y900883D3*
Y920568D3*
Y940253D3*
Y959938D3*
Y979623D3*
Y999308D3*
Y1018993D3*
Y1038678D3*
Y1058364D3*
Y1078049D3*
Y1097734D3*
Y1117419D3*
Y1137104D3*
Y1156789D3*
Y1176474D3*
Y1196159D3*
Y1215844D3*
Y1235529D3*
Y1255214D3*
Y1274899D3*
Y1294584D3*
Y1314269D3*
Y1333954D3*
Y1353639D3*
Y1373324D3*
Y1393009D3*
Y1412694D3*
Y1432379D3*
D55*
X3375312Y1509151D3*
X3355627D3*
X3335942D3*
X3316257D3*
X3296572D3*
X3276887D3*
X3257202D3*
X3237517D3*
X3217832D3*
X3198147D3*
X3178462D3*
X3158777D3*
X3139092D3*
X3119407D3*
X3099722D3*
X3080037D3*
X3060352D3*
X3040667D3*
X3020982D3*
X3001297D3*
X2981612D3*
X2961927D3*
X2942241D3*
X2922556D3*
X2902871D3*
X2883186D3*
X2863501D3*
X2843816D3*
X2824131D3*
X2804446D3*
X2784761D3*
X2765076D3*
X2745391D3*
X2725706D3*
X2706021D3*
X2686336D3*
D89*
X1732429Y1258612D3*
X1700933D3*
X1669437D3*
X1637941D3*
X1606445D3*
X1574949D3*
X1543453D3*
X1511957D3*
X1480461D3*
X1448965D3*
X1417469D3*
D92*
X1353492Y1194635D3*
Y1163139D3*
Y1131643D3*
Y1100147D3*
Y1068651D3*
Y1037155D3*
Y1005659D3*
Y974163D3*
Y942667D3*
Y911171D3*
Y879675D3*
D95*
X1417469Y815698D3*
X1448965D3*
X1480461D3*
X1511957D3*
X1543453D3*
X1574949D3*
X1606445D3*
X1637941D3*
X1669437D3*
X1700933D3*
X1732429D3*
D98*
X1796406Y879675D3*
Y911171D3*
Y942667D3*
Y974163D3*
Y1005659D3*
Y1037155D3*
Y1068651D3*
Y1100147D3*
Y1131643D3*
Y1163139D3*
Y1194635D3*
D53*
X4057874Y696900D3*
Y787451D3*
Y878003D3*
D51*
X3829528Y787451D3*
D49*
X865453Y1742322D3*
X891043D3*
X916634D3*
X942224D3*
X967815D3*
X993406D3*
X1018996D3*
X1044587D3*
X1070177D3*
X1095768D3*
X1121358D3*
X1146949D3*
Y1970676D3*
X1121358Y1970668D3*
X1095768D3*
X1070177D3*
X1044587D3*
X1018996D3*
X993406D3*
X967815D3*
X942224D3*
X916634D3*
X891043D3*
X865453D3*
X1399202Y1742322D3*
X1424793D3*
X1450383D3*
X1475974D3*
X1501564D3*
X1527155D3*
X1552745D3*
X1578336D3*
X1603927D3*
X1629517D3*
X1655108D3*
X1680698D3*
Y1970676D3*
X1655108Y1970668D3*
X1629517D3*
X1603927D3*
X1578336D3*
X1552745D3*
X1527155D3*
X1501564D3*
X1475974D3*
X1450383D3*
X1424793D3*
X1399202D3*
X1932953Y1742322D3*
X1958543D3*
X1984134D3*
X2009724D3*
X2035315D3*
X2060906D3*
X2086496D3*
X2112087D3*
X2137677D3*
X2163268D3*
X2188858D3*
X2214449D3*
Y1970676D3*
X2188858Y1970668D3*
X2163268D3*
X2137677D3*
X2112087D3*
X2086496D3*
X2060906D3*
X2035315D3*
X2009724D3*
X1984134D3*
X1958543D3*
X1932953D3*
X2466702Y1742322D3*
X2492293D3*
X2517883D3*
X2543474D3*
X2569064D3*
X2594655D3*
X2620245D3*
X2645836D3*
X2671427D3*
X2697017D3*
X2722608D3*
X2748198D3*
Y1970676D3*
X2722608Y1970668D3*
X2697017D3*
X2671427D3*
X2645836D3*
X2620245D3*
X2594655D3*
X2569064D3*
X2543474D3*
X2517883D3*
X2492293D3*
X2466702D3*
X3000453Y1742322D3*
X3026043D3*
X3051634D3*
X3077224D3*
X3102815D3*
X3128406D3*
X3153996D3*
X3179587D3*
X3205177D3*
X3230768D3*
X3256358D3*
X3281949D3*
Y1970676D3*
X3256358Y1970668D3*
X3230768D3*
X3205177D3*
X3179587D3*
X3153996D3*
X3128406D3*
X3102815D3*
X3077224D3*
X3051634D3*
X3026043D3*
X3000453D3*
X3534202Y1742322D3*
X3559793D3*
X3585383D3*
X3610974D3*
X3636564D3*
X3662155D3*
X3687745D3*
X3713336D3*
X3738927D3*
X3764517D3*
X3790108D3*
X3815698D3*
Y1970676D3*
X3790108Y1970668D3*
X3764517D3*
X3738927D3*
X3713336D3*
X3687745D3*
X3662155D3*
X3636564D3*
X3610974D3*
X3585383D3*
X3559793D3*
X3534202D3*
D47*
X2399706Y1017621D3*
X2462698D3*
X2399706Y970377D3*
X2462698D3*
M02*
