G04 DipTrace 4.3.0.2*
G04 TopSilk.gbr*
%MOIN*%
G04 #@! TF.FileFunction,Legend,Top*
G04 #@! TF.Part,Single*
%ADD10C,0.009843*%
%ADD13C,0.004724*%
%ADD38C,0.003937*%
%ADD85C,0.006176*%
%ADD86C,0.009264*%
%ADD87C,0.012351*%
%ADD88C,0.003088*%
%FSLAX26Y26*%
G04*
G70*
G90*
G75*
G01*
G04 TopSilk*
%LPD*%
X770276Y2149270D2*
D10*
Y2263727D1*
G02X770276Y2149270I98597J-57228D01*
G01*
X1095276D2*
Y2263727D1*
G02X1095276Y2149270I98597J-57228D01*
G01*
X3370276D2*
Y2263727D1*
G02X3370276Y2149270I98597J-57228D01*
G01*
X3695276D2*
Y2263727D1*
G02X3695276Y2149270I98597J-57228D01*
G01*
X2162597Y569558D2*
Y693440D1*
Y569558D2*
G03X2162597Y693440I170181J61941D01*
G01*
X3965434Y2894018D2*
Y2518974D1*
X3884268Y2756528D2*
Y2656465D1*
X705747Y2891483D2*
Y2521509D1*
X784631Y2756453D2*
Y2656539D1*
X3965434Y2518974D2*
X709332D1*
X3965434Y2894018D2*
X709332D1*
X3884268Y2656465D2*
X784631Y2656539D1*
X3884268Y2756528D2*
X784631Y2756453D1*
X3948869Y1154724D2*
X4287451D1*
Y1532677D1*
X3948869D1*
Y1154724D1*
X637446Y793689D2*
X737451D1*
Y993713D1*
X637446D1*
Y793689D1*
X1856173Y456496D2*
Y556499D1*
X1256228D1*
Y456496D1*
X1856173D1*
X3331175D2*
Y556499D1*
X2731230D1*
Y456496D1*
X3331175D1*
X402974Y3093551D2*
Y3468593D1*
X484140Y3231042D2*
Y3331102D1*
X4262661Y3096087D2*
Y3466058D1*
X4183777Y3231117D2*
Y3331028D1*
X402974Y3468593D2*
X4259076D1*
X402974Y3093551D2*
X4259076D1*
X484140Y3331102D2*
X4183777Y3331028D1*
X484140Y3231042D2*
X4183777Y3231117D1*
X2656938Y1461867D2*
Y713915D1*
X3404710D1*
Y1461867D1*
X2656938D1*
G36*
X2609625Y1446202D2*
X2608603Y1446269D1*
X2607598Y1446469D1*
X2606628Y1446798D1*
X2605709Y1447251D1*
X2604857Y1447821D1*
X2604087Y1448496D1*
X2603411Y1449267D1*
X2602842Y1450118D1*
X2602389Y1451037D1*
X2602060Y1452008D1*
X2601860Y1453012D1*
X2601793Y1454035D1*
X2601860Y1455057D1*
X2602060Y1456062D1*
X2602389Y1457032D1*
X2602842Y1457951D1*
X2603411Y1458803D1*
X2604087Y1459573D1*
X2604857Y1460249D1*
X2605709Y1460818D1*
X2606628Y1461271D1*
X2607598Y1461601D1*
X2608603Y1461800D1*
X2609625Y1461867D1*
X2609716D1*
X2610738Y1461800D1*
X2611743Y1461601D1*
X2612713Y1461271D1*
X2613632Y1460818D1*
X2614484Y1460249D1*
X2615254Y1459573D1*
X2615930Y1458803D1*
X2616499Y1457951D1*
X2616952Y1457032D1*
X2617282Y1456062D1*
X2617482Y1455057D1*
X2617549Y1454035D1*
X2617482Y1453012D1*
X2617282Y1452008D1*
X2616952Y1451037D1*
X2616499Y1450118D1*
X2615930Y1449267D1*
X2615254Y1448496D1*
X2614484Y1447821D1*
X2613632Y1447251D1*
X2612713Y1446798D1*
X2611743Y1446469D1*
X2610738Y1446269D1*
X2609716Y1446202D1*
X2609625D1*
G37*
G36*
X2656938Y1461867D2*
Y1410706D1*
X2708009Y1461867D1*
X2656938D1*
G37*
X1771799Y1213139D2*
D13*
Y1234005D1*
X1750933D1*
Y840304D2*
X1771799D1*
Y861171D1*
X1378098D2*
Y840304D1*
X1398965D1*
Y1234005D2*
X1378098D1*
Y1213139D1*
G36*
X1768256Y1275738D2*
X1768172Y1274453D1*
X1767921Y1273190D1*
X1767507Y1271971D1*
X1766937Y1270816D1*
X1766222Y1269746D1*
X1765373Y1268778D1*
X1764405Y1267929D1*
X1763335Y1267214D1*
X1762180Y1266644D1*
X1760961Y1266230D1*
X1759698Y1265979D1*
X1758413Y1265895D1*
X1757129Y1265979D1*
X1755866Y1266230D1*
X1754647Y1266644D1*
X1753492Y1267214D1*
X1752422Y1267929D1*
X1751454Y1268778D1*
X1750605Y1269746D1*
X1749890Y1270816D1*
X1749320Y1271971D1*
X1748906Y1273190D1*
X1748655Y1274453D1*
X1748571Y1275738D1*
D1*
X1748655Y1277022D1*
X1748906Y1278285D1*
X1749320Y1279504D1*
X1749890Y1280659D1*
X1750605Y1281729D1*
X1751454Y1282697D1*
X1752422Y1283546D1*
X1753492Y1284261D1*
X1754647Y1284831D1*
X1755866Y1285245D1*
X1757129Y1285496D1*
X1758413Y1285580D1*
X1759698Y1285496D1*
X1760961Y1285245D1*
X1762180Y1284831D1*
X1763335Y1284261D1*
X1764405Y1283546D1*
X1765373Y1282697D1*
X1766222Y1281729D1*
X1766937Y1280659D1*
X1767507Y1279504D1*
X1767921Y1278285D1*
X1768172Y1277022D1*
X1768256Y1275738D1*
D1*
G37*
G36*
X4088081Y666273D2*
X4089087Y666207D1*
X4090075Y666011D1*
X4091029Y665687D1*
X4091932Y665241D1*
X4092770Y664681D1*
X4093528Y664017D1*
X4094192Y663260D1*
X4094752Y662422D1*
X4095197Y661518D1*
X4095521Y660564D1*
X4095718Y659576D1*
X4095783Y658571D1*
X4095718Y657566D1*
X4095521Y656577D1*
X4095197Y655623D1*
X4094752Y654720D1*
X4094192Y653882D1*
X4093528Y653125D1*
X4092770Y652460D1*
X4091932Y651901D1*
X4091029Y651455D1*
X4090075Y651131D1*
X4089087Y650935D1*
X4088081Y650869D1*
X4088055D1*
X4087050Y650935D1*
X4086062Y651131D1*
X4085108Y651455D1*
X4084204Y651901D1*
X4083366Y652460D1*
X4082609Y653125D1*
X4081945Y653882D1*
X4081385Y654720D1*
X4080939Y655623D1*
X4080615Y656577D1*
X4080419Y657566D1*
X4080353Y658571D1*
X4080419Y659576D1*
X4080615Y660564D1*
X4080939Y661518D1*
X4081385Y662422D1*
X4081945Y663260D1*
X4082609Y664017D1*
X4083366Y664681D1*
X4084204Y665241D1*
X4085108Y665687D1*
X4086062Y666011D1*
X4087050Y666207D1*
X4088055Y666273D1*
X4088081D1*
G37*
X3998819Y657531D2*
D10*
Y917362D1*
X3888583Y657531D2*
Y917362D1*
X3998819D2*
X3888583D1*
X3998819Y657531D2*
X3888583D1*
X852642Y1793513D2*
X1159760D1*
X852642Y1919484D2*
X1159760D1*
Y1793513D2*
Y1919484D1*
X852642Y1793513D2*
Y1836810D1*
Y1876188D2*
Y1919484D1*
Y1836810D2*
G03X852642Y1876188I-3J19689D01*
G01*
X1386391Y1793513D2*
X1693509D1*
X1386391Y1919484D2*
X1693509D1*
Y1793513D2*
Y1919484D1*
X1386391Y1793513D2*
Y1836810D1*
Y1876188D2*
Y1919484D1*
Y1836810D2*
G03X1386391Y1876188I-3J19689D01*
G01*
X1920142Y1793513D2*
X2227260D1*
X1920142Y1919484D2*
X2227260D1*
Y1793513D2*
Y1919484D1*
X1920142Y1793513D2*
Y1836810D1*
Y1876188D2*
Y1919484D1*
Y1836810D2*
G03X1920142Y1876188I-3J19689D01*
G01*
X2453891Y1793513D2*
X2761009D1*
X2453891Y1919484D2*
X2761009D1*
Y1793513D2*
Y1919484D1*
X2453891Y1793513D2*
Y1836810D1*
Y1876188D2*
Y1919484D1*
Y1836810D2*
G03X2453891Y1876188I-3J19689D01*
G01*
X2987642Y1793513D2*
X3294760D1*
X2987642Y1919484D2*
X3294760D1*
Y1793513D2*
Y1919484D1*
X2987642Y1793513D2*
Y1836810D1*
Y1876188D2*
Y1919484D1*
Y1836810D2*
G03X2987642Y1876188I-3J19689D01*
G01*
X3521391Y1793513D2*
X3828509D1*
X3521391Y1919484D2*
X3828509D1*
Y1793513D2*
Y1919484D1*
X3521391Y1793513D2*
Y1836810D1*
Y1876188D2*
Y1919484D1*
Y1836810D2*
G03X3521391Y1876188I-3J19689D01*
G01*
X2372147Y1043211D2*
D38*
Y944786D1*
X2490257D1*
Y1043211D1*
X2372147D1*
X2265576Y2515576D2*
D10*
Y2481201D1*
X2393701D1*
Y2518701D1*
X800096Y954427D2*
D85*
X798195Y958230D1*
X794348Y962076D1*
X790546Y963978D1*
X782896D1*
X779049Y962076D1*
X775247Y958230D1*
X773301Y954427D1*
X771400Y948679D1*
Y939084D1*
X773301Y933380D1*
X775247Y929534D1*
X779049Y925731D1*
X782896Y923786D1*
X790546D1*
X794348Y925731D1*
X798195Y929534D1*
X800096Y933380D1*
X823944Y963978D2*
X820097Y962076D1*
X816294Y958230D1*
X814349Y954427D1*
X812448Y948679D1*
Y939084D1*
X814349Y933380D1*
X816294Y929534D1*
X820097Y925731D1*
X823944Y923786D1*
X831593D1*
X835395Y925731D1*
X839242Y929534D1*
X841143Y933380D1*
X843045Y939084D1*
Y948679D1*
X841143Y954427D1*
X839242Y958230D1*
X835395Y962076D1*
X831593Y963978D1*
X823944D1*
X866892D2*
X863045Y962076D1*
X859243Y958230D1*
X857297Y954427D1*
X855396Y948679D1*
Y939084D1*
X857297Y933380D1*
X859243Y929534D1*
X863045Y925731D1*
X866892Y923786D1*
X874542D1*
X878344Y925731D1*
X882191Y929534D1*
X884092Y933380D1*
X885993Y939084D1*
Y948679D1*
X884092Y954427D1*
X882191Y958230D1*
X878344Y962076D1*
X874542Y963978D1*
X866892D1*
X898345D2*
Y923786D1*
X921293D1*
X933644Y963978D2*
Y923786D1*
X950888D1*
X956636Y925731D1*
X958537Y927632D1*
X960439Y931435D1*
Y937183D1*
X958537Y941030D1*
X956636Y942931D1*
X950888Y944832D1*
X956636Y946778D1*
X958537Y948679D1*
X960439Y952482D1*
Y956328D1*
X958537Y960131D1*
X956636Y962076D1*
X950888Y963978D1*
X933644D1*
Y944832D2*
X950888D1*
X984286Y963978D2*
X980439Y962076D1*
X976637Y958230D1*
X974691Y954427D1*
X972790Y948679D1*
Y939084D1*
X974691Y933380D1*
X976637Y929534D1*
X980439Y925731D1*
X984286Y923786D1*
X991935D1*
X995738Y925731D1*
X999585Y929534D1*
X1001486Y933380D1*
X1003387Y939084D1*
Y948679D1*
X1001486Y954427D1*
X999585Y958230D1*
X995738Y962076D1*
X991935Y963978D1*
X984286D1*
X1015739D2*
X1031037Y944832D1*
Y923786D1*
X1046336Y963978D2*
X1031037Y944832D1*
X1109064Y963978D2*
X1105217Y962076D1*
X1101415Y958230D1*
X1099469Y954427D1*
X1097568Y948679D1*
Y939084D1*
X1099469Y933380D1*
X1101415Y929534D1*
X1105217Y925731D1*
X1109064Y923786D1*
X1116713D1*
X1120516Y925731D1*
X1124363Y929534D1*
X1126264Y933380D1*
X1128165Y939084D1*
Y948679D1*
X1126264Y954427D1*
X1124363Y958230D1*
X1120516Y962076D1*
X1116713Y963978D1*
X1109064D1*
X1165366D2*
X1140517D1*
Y923786D1*
X1165366D1*
X1140517Y944832D2*
X1155815D1*
X1097568Y974457D2*
X1177717D1*
X932820Y2433381D2*
X930918Y2437184D1*
X927071Y2441030D1*
X923269Y2442932D1*
X915620D1*
X911773Y2441030D1*
X907970Y2437184D1*
X906025Y2433381D1*
X904124Y2427633D1*
Y2418038D1*
X906025Y2412335D1*
X907970Y2408488D1*
X911773Y2404685D1*
X915620Y2402740D1*
X923269D1*
X927071Y2404685D1*
X930918Y2408488D1*
X932820Y2412335D1*
X945171Y2421885D2*
X962415D1*
X968119Y2423786D1*
X970064Y2425732D1*
X971966Y2429534D1*
Y2435282D1*
X970064Y2439085D1*
X968119Y2441030D1*
X962415Y2442932D1*
X945171D1*
Y2402740D1*
X984317Y2442932D2*
Y2414236D1*
X986218Y2408488D1*
X990065Y2404685D1*
X995813Y2402740D1*
X999616D1*
X1005364Y2404685D1*
X1009210Y2408488D1*
X1011112Y2414236D1*
Y2442932D1*
X1023463Y2402740D2*
X1050258Y2442888D1*
X1062609Y2421885D2*
X1079853D1*
X1085557Y2423786D1*
X1087503Y2425732D1*
X1089404Y2429534D1*
Y2435282D1*
X1087503Y2439085D1*
X1085557Y2441030D1*
X1079853Y2442932D1*
X1062609D1*
Y2402740D1*
X1101755Y2423786D2*
X1118955D1*
X1124703Y2425732D1*
X1126649Y2427633D1*
X1128550Y2431436D1*
Y2435282D1*
X1126649Y2439085D1*
X1124703Y2441030D1*
X1118955Y2442932D1*
X1101755D1*
Y2402740D1*
X1115153Y2423786D2*
X1128550Y2402740D1*
X1169597Y2433381D2*
X1167696Y2437184D1*
X1163849Y2441030D1*
X1160047Y2442932D1*
X1152397D1*
X1148551Y2441030D1*
X1144748Y2437184D1*
X1142803Y2433381D1*
X1140901Y2427633D1*
Y2418038D1*
X1142803Y2412335D1*
X1144748Y2408488D1*
X1148551Y2404685D1*
X1152397Y2402740D1*
X1160047D1*
X1163849Y2404685D1*
X1167696Y2408488D1*
X1169597Y2412335D1*
Y2418038D1*
X1160047D1*
X796789Y2357582D2*
X813989D1*
X819737Y2359528D1*
X821682Y2361429D1*
X823583Y2365231D1*
Y2369078D1*
X821682Y2372881D1*
X819737Y2374826D1*
X813989Y2376728D1*
X796789D1*
Y2336536D1*
X810186Y2357582D2*
X823583Y2336536D1*
X860784Y2376728D2*
X835935D1*
Y2336536D1*
X860784D1*
X835935Y2357582D2*
X851233D1*
X903777Y2336536D2*
X888434Y2376728D1*
X873135Y2336536D1*
X878883Y2349933D2*
X898029D1*
X916128Y2376728D2*
Y2336536D1*
X929525D1*
X935273Y2338481D1*
X939120Y2342284D1*
X941022Y2346130D1*
X942923Y2351834D1*
Y2361429D1*
X941022Y2367177D1*
X939120Y2370979D1*
X935273Y2374826D1*
X929525Y2376728D1*
X916128D1*
X1110797D2*
X1120392Y2336536D1*
X1129943Y2376728D1*
X1139493Y2336536D1*
X1149088Y2376728D1*
X1161439Y2357582D2*
X1178639D1*
X1184387Y2359528D1*
X1186333Y2361429D1*
X1188234Y2365231D1*
Y2369078D1*
X1186333Y2372881D1*
X1184387Y2374826D1*
X1178639Y2376728D1*
X1161439D1*
Y2336536D1*
X1174837Y2357582D2*
X1188234Y2336536D1*
X1200585Y2376728D2*
Y2336536D1*
X1226334Y2376728D2*
Y2336536D1*
X1212937Y2376728D2*
X1239732D1*
X1276932D2*
X1252083D1*
Y2336536D1*
X1276932D1*
X1252083Y2357582D2*
X1267382D1*
X3505074Y2421885D2*
X3522318D1*
X3528022Y2423786D1*
X3529968Y2425732D1*
X3531869Y2429534D1*
Y2435282D1*
X3529968Y2439085D1*
X3528022Y2441030D1*
X3522318Y2442932D1*
X3505074D1*
Y2402740D1*
X3544220Y2421885D2*
X3561464D1*
X3567168Y2423786D1*
X3569114Y2425732D1*
X3571015Y2429534D1*
Y2435282D1*
X3569114Y2439085D1*
X3567168Y2441030D1*
X3561464Y2442932D1*
X3544220D1*
Y2402740D1*
X3583366Y2442932D2*
Y2414236D1*
X3585268Y2408488D1*
X3589114Y2404685D1*
X3594862Y2402740D1*
X3598665D1*
X3604413Y2404685D1*
X3608260Y2408488D1*
X3610161Y2414236D1*
Y2442932D1*
X3622512Y2402740D2*
X3649307Y2442888D1*
X3690354Y2433381D2*
X3688453Y2437184D1*
X3684606Y2441030D1*
X3680804Y2442932D1*
X3673155D1*
X3669308Y2441030D1*
X3665505Y2437184D1*
X3663560Y2433381D1*
X3661658Y2427633D1*
Y2418038D1*
X3663560Y2412335D1*
X3665505Y2408488D1*
X3669308Y2404685D1*
X3673155Y2402740D1*
X3680804D1*
X3684606Y2404685D1*
X3688453Y2408488D1*
X3690354Y2412335D1*
X3702706Y2442932D2*
Y2402740D1*
X3729500Y2442932D2*
Y2402740D1*
X3702706Y2423786D2*
X3729500D1*
X3741852D2*
X3759052D1*
X3764800Y2425732D1*
X3766745Y2427633D1*
X3768647Y2431436D1*
Y2435282D1*
X3766745Y2439085D1*
X3764800Y2441030D1*
X3759052Y2442932D1*
X3741852D1*
Y2402740D1*
X3755249Y2423786D2*
X3768647Y2402740D1*
X3396789Y2357582D2*
X3413989D1*
X3419737Y2359528D1*
X3421682Y2361429D1*
X3423583Y2365231D1*
Y2369078D1*
X3421682Y2372881D1*
X3419737Y2374826D1*
X3413989Y2376728D1*
X3396789D1*
Y2336536D1*
X3410186Y2357582D2*
X3423583Y2336536D1*
X3460784Y2376728D2*
X3435935D1*
Y2336536D1*
X3460784D1*
X3435935Y2357582D2*
X3451233D1*
X3503777Y2336536D2*
X3488434Y2376728D1*
X3473135Y2336536D1*
X3478883Y2349933D2*
X3498029D1*
X3516128Y2376728D2*
Y2336536D1*
X3529525D1*
X3535273Y2338481D1*
X3539120Y2342284D1*
X3541022Y2346130D1*
X3542923Y2351834D1*
Y2361429D1*
X3541022Y2367177D1*
X3539120Y2370979D1*
X3535273Y2374826D1*
X3529525Y2376728D1*
X3516128D1*
X3710797D2*
X3720392Y2336536D1*
X3729943Y2376728D1*
X3739493Y2336536D1*
X3749088Y2376728D1*
X3761439Y2357582D2*
X3778639D1*
X3784387Y2359528D1*
X3786333Y2361429D1*
X3788234Y2365231D1*
Y2369078D1*
X3786333Y2372881D1*
X3784387Y2374826D1*
X3778639Y2376728D1*
X3761439D1*
Y2336536D1*
X3774837Y2357582D2*
X3788234Y2336536D1*
X3800585Y2376728D2*
Y2336536D1*
X3826334Y2376728D2*
Y2336536D1*
X3812937Y2376728D2*
X3839732D1*
X3876932D2*
X3852083D1*
Y2336536D1*
X3876932D1*
X3852083Y2357582D2*
X3867382D1*
X648613Y3579598D2*
D86*
X645761Y3585302D1*
X639991Y3591072D1*
X634287Y3593924D1*
X622813D1*
X617043Y3591072D1*
X611339Y3585302D1*
X608421Y3579598D1*
X605569Y3570976D1*
Y3556584D1*
X608421Y3548028D1*
X611339Y3542258D1*
X617043Y3536554D1*
X622813Y3533636D1*
X634287D1*
X639991Y3536554D1*
X645761Y3542258D1*
X648613Y3548028D1*
X667140Y3593924D2*
Y3533636D1*
X701562D1*
X720089Y3593924D2*
Y3550880D1*
X722941Y3542258D1*
X728711Y3536554D1*
X737333Y3533636D1*
X743037D1*
X751659Y3536554D1*
X757429Y3542258D1*
X760281Y3550880D1*
Y3593924D1*
X819000Y3585302D2*
X813296Y3591072D1*
X804674Y3593924D1*
X793200D1*
X784578Y3591072D1*
X778808Y3585302D1*
Y3579598D1*
X781726Y3573828D1*
X784578Y3570976D1*
X790282Y3568124D1*
X807526Y3562354D1*
X813296Y3559502D1*
X816148Y3556584D1*
X819000Y3550880D1*
Y3542258D1*
X813296Y3536554D1*
X804674Y3533636D1*
X793200D1*
X784578Y3536554D1*
X778808Y3542258D1*
X857623Y3593924D2*
Y3533636D1*
X837527Y3593924D2*
X877719D1*
X933520D2*
X896246D1*
Y3533636D1*
X933520D1*
X896246Y3565206D2*
X919194D1*
X952047D2*
X977847D1*
X986469Y3568124D1*
X989387Y3570976D1*
X992239Y3576680D1*
Y3582450D1*
X989387Y3588154D1*
X986469Y3591072D1*
X977847Y3593924D1*
X952047D1*
Y3533636D1*
X972143Y3565206D2*
X992239Y3533636D1*
X1010766Y3565206D2*
X1036566D1*
X1045188Y3568124D1*
X1048106Y3570976D1*
X1050958Y3576680D1*
Y3582450D1*
X1048106Y3588154D1*
X1045188Y3591072D1*
X1036566Y3593924D1*
X1010766D1*
Y3533636D1*
X1030862Y3565206D2*
X1050958Y3533636D1*
X1069485Y3565206D2*
X1095285D1*
X1103907Y3568124D1*
X1106825Y3570976D1*
X1109677Y3576680D1*
Y3582450D1*
X1106825Y3588154D1*
X1103907Y3591072D1*
X1095285Y3593924D1*
X1069485D1*
Y3533636D1*
X1089581Y3565206D2*
X1109677Y3533636D1*
X1131056Y3539406D2*
X1128204Y3536488D1*
X1131056Y3533636D1*
X1133974Y3536488D1*
X1131056Y3539406D1*
X1195545Y3579598D2*
X1192693Y3585302D1*
X1186923Y3591072D1*
X1181220Y3593924D1*
X1169746D1*
X1163975Y3591072D1*
X1158272Y3585302D1*
X1155353Y3579598D1*
X1152501Y3570976D1*
Y3556584D1*
X1155353Y3548028D1*
X1158272Y3542258D1*
X1163975Y3536554D1*
X1169746Y3533636D1*
X1181220D1*
X1186923Y3536554D1*
X1192693Y3542258D1*
X1195545Y3548028D1*
X1231317Y3593924D2*
X1225546Y3591072D1*
X1219843Y3585302D1*
X1216924Y3579598D1*
X1214072Y3570976D1*
Y3556584D1*
X1216924Y3548028D1*
X1219843Y3542258D1*
X1225546Y3536554D1*
X1231317Y3533636D1*
X1242791D1*
X1248494Y3536554D1*
X1254264Y3542258D1*
X1257116Y3548028D1*
X1259968Y3556584D1*
Y3570976D1*
X1257116Y3579598D1*
X1254264Y3585302D1*
X1248494Y3591072D1*
X1242791Y3593924D1*
X1231317D1*
X1324391Y3533636D2*
Y3593924D1*
X1301443Y3533636D1*
X1278495Y3593924D1*
Y3533636D1*
X1443414Y2248115D2*
D87*
X1393627D1*
Y2167731D1*
Y2209825D2*
X1424224D1*
X1529400Y2167731D2*
X1498714Y2248115D1*
X1468117Y2167731D1*
X1479613Y2194526D2*
X1517904D1*
X1615297Y2167731D2*
Y2248115D1*
X1584700Y2167731D1*
X1554102Y2248115D1*
Y2167731D1*
X1640000Y2248115D2*
Y2167731D1*
X1722094Y2229014D2*
X1718292Y2236619D1*
X1710598Y2244313D1*
X1702993Y2248115D1*
X1687695D1*
X1680001Y2244313D1*
X1672396Y2236619D1*
X1668505Y2229014D1*
X1664702Y2217518D1*
Y2198329D1*
X1668505Y2186921D1*
X1672396Y2179227D1*
X1680001Y2171622D1*
X1687695Y2167731D1*
X1702993D1*
X1710598Y2171622D1*
X1718292Y2179227D1*
X1722094Y2186921D1*
X1769789Y2248115D2*
X1762096Y2244313D1*
X1754491Y2236619D1*
X1750600Y2229014D1*
X1746797Y2217518D1*
Y2198329D1*
X1750600Y2186921D1*
X1754491Y2179227D1*
X1762096Y2171622D1*
X1769789Y2167731D1*
X1785088D1*
X1792693Y2171622D1*
X1800386Y2179227D1*
X1804189Y2186921D1*
X1807992Y2198329D1*
Y2217518D1*
X1804189Y2229014D1*
X1800386Y2236619D1*
X1792693Y2244313D1*
X1785088Y2248115D1*
X1769789D1*
X1893889Y2167731D2*
Y2248115D1*
X1863292Y2167731D1*
X1832694Y2248115D1*
Y2167731D1*
X1918592D2*
X1972181Y2248027D1*
X2050473Y2248115D2*
Y2167731D1*
X1996884Y2248115D1*
Y2167731D1*
X2124874Y2248115D2*
X2075176D1*
Y2167731D1*
X2124874D1*
X2075176Y2209825D2*
X2105773D1*
X2203166Y2236619D2*
X2195561Y2244313D1*
X2184065Y2248115D1*
X2168767D1*
X2157270Y2244313D1*
X2149577Y2236619D1*
Y2229014D1*
X2153468Y2221321D1*
X2157270Y2217518D1*
X2164876Y2213716D1*
X2187868Y2206022D1*
X2195561Y2202220D1*
X2199364Y2198329D1*
X2203166Y2190724D1*
Y2179227D1*
X2195561Y2171622D1*
X2184065Y2167731D1*
X2168767D1*
X2157270Y2171622D1*
X2149577Y2179227D1*
X2305631Y2248115D2*
Y2167731D1*
X2332425D1*
X2343921Y2171622D1*
X2351615Y2179227D1*
X2355417Y2186921D1*
X2359220Y2198329D1*
Y2217518D1*
X2355417Y2229014D1*
X2351615Y2236619D1*
X2343921Y2244313D1*
X2332425Y2248115D1*
X2305631D1*
X2383923D2*
Y2190724D1*
X2387725Y2179227D1*
X2395419Y2171622D1*
X2406915Y2167731D1*
X2414520D1*
X2426016Y2171622D1*
X2433710Y2179227D1*
X2437512Y2190724D1*
Y2248115D1*
X2523409Y2167731D2*
Y2248115D1*
X2492812Y2167731D1*
X2462215Y2248115D1*
Y2167731D1*
X2548112Y2206022D2*
X2582600D1*
X2594008Y2209825D1*
X2597899Y2213716D1*
X2601701Y2221321D1*
Y2232817D1*
X2597899Y2240422D1*
X2594008Y2244313D1*
X2582600Y2248115D1*
X2548112D1*
Y2167731D1*
X2676103Y2248115D2*
X2626404D1*
Y2167731D1*
X2676103D1*
X2626404Y2209825D2*
X2657001D1*
X2700805D2*
X2735205D1*
X2746701Y2213716D1*
X2750592Y2217518D1*
X2754395Y2225123D1*
Y2232817D1*
X2750592Y2240422D1*
X2746701Y2244313D1*
X2735205Y2248115D1*
X2700805D1*
Y2167731D1*
X2727600Y2209825D2*
X2754395Y2167731D1*
X2779098D2*
X2832687Y2248027D1*
X2857390Y2248115D2*
X2876579Y2167731D1*
X2895680Y2248115D1*
X2914782Y2167731D1*
X2933971Y2248115D1*
X2958674Y2209825D2*
X2993074D1*
X3004570Y2213716D1*
X3008461Y2217518D1*
X3012263Y2225123D1*
Y2232817D1*
X3008461Y2240422D1*
X3004570Y2244313D1*
X2993074Y2248115D1*
X2958674D1*
Y2167731D1*
X2985469Y2209825D2*
X3012263Y2167731D1*
X3036966Y2248115D2*
Y2167731D1*
X3088464Y2248115D2*
Y2167731D1*
X3061669Y2248115D2*
X3115258D1*
X3189659D2*
X3139961D1*
Y2167731D1*
X3189659D1*
X3139961Y2209825D2*
X3170558D1*
X3214362D2*
X3248762D1*
X3260258Y2213716D1*
X3264149Y2217518D1*
X3267952Y2225123D1*
Y2232817D1*
X3264149Y2240422D1*
X3260258Y2244313D1*
X3248762Y2248115D1*
X3214362D1*
Y2167731D1*
X3241157Y2209825D2*
X3267952Y2167731D1*
X3698972Y3564409D2*
D86*
X3724771D1*
X3733394Y3567327D1*
X3736312Y3570179D1*
X3739164Y3575883D1*
Y3581653D1*
X3736312Y3587357D1*
X3733394Y3590275D1*
X3724771Y3593127D1*
X3698972D1*
Y3532839D1*
X3719068Y3564409D2*
X3739164Y3532839D1*
X3794965Y3593127D2*
X3757691D1*
Y3532839D1*
X3794965D1*
X3757691Y3564409D2*
X3780639D1*
X3813492Y3593127D2*
X3836440Y3532839D1*
X3859387Y3593127D1*
X3880766Y3538609D2*
X3877915Y3535691D1*
X3880766Y3532839D1*
X3883685Y3535691D1*
X3880766Y3538609D1*
X3966303Y3593061D2*
X3997807D1*
X3980629Y3570113D1*
X3989251D1*
X3994955Y3567261D1*
X3997807Y3564409D1*
X4000725Y3555787D1*
Y3550083D1*
X3997807Y3541461D1*
X3992103Y3535691D1*
X3983481Y3532839D1*
X3974859D1*
X3966303Y3535691D1*
X3963451Y3538609D1*
X3960533Y3544313D1*
X4022104Y3538609D2*
X4019252Y3535691D1*
X4022104Y3532839D1*
X4025022Y3535691D1*
X4022104Y3538609D1*
X4043549Y3581587D2*
X4049319Y3584505D1*
X4057941Y3593061D1*
Y3532839D1*
X800096Y854428D2*
D85*
X798195Y858231D1*
X794348Y862078D1*
X790546Y863979D1*
X782896D1*
X779049Y862078D1*
X775247Y858231D1*
X773301Y854428D1*
X771400Y848680D1*
Y839086D1*
X773301Y833382D1*
X775247Y829535D1*
X779049Y825732D1*
X782896Y823787D1*
X790546D1*
X794348Y825732D1*
X798195Y829535D1*
X800096Y833382D1*
X823944Y863979D2*
X820097Y862078D1*
X816294Y858231D1*
X814349Y854428D1*
X812448Y848680D1*
Y839086D1*
X814349Y833382D1*
X816294Y829535D1*
X820097Y825732D1*
X823944Y823787D1*
X831593D1*
X835395Y825732D1*
X839242Y829535D1*
X841143Y833382D1*
X843045Y839086D1*
Y848680D1*
X841143Y854428D1*
X839242Y858231D1*
X835395Y862078D1*
X831593Y863979D1*
X823944D1*
X866892D2*
X863045Y862078D1*
X859243Y858231D1*
X857297Y854428D1*
X855396Y848680D1*
Y839086D1*
X857297Y833382D1*
X859243Y829535D1*
X863045Y825732D1*
X866892Y823787D1*
X874542D1*
X878344Y825732D1*
X882191Y829535D1*
X884092Y833382D1*
X885993Y839086D1*
Y848680D1*
X884092Y854428D1*
X882191Y858231D1*
X878344Y862078D1*
X874542Y863979D1*
X866892D1*
X898345D2*
Y823787D1*
X921293D1*
X933644Y863979D2*
Y823787D1*
X950888D1*
X956636Y825732D1*
X958537Y827634D1*
X960439Y831436D1*
Y837184D1*
X958537Y841031D1*
X956636Y842932D1*
X950888Y844834D1*
X956636Y846779D1*
X958537Y848680D1*
X960439Y852483D1*
Y856330D1*
X958537Y860132D1*
X956636Y862078D1*
X950888Y863979D1*
X933644D1*
Y844834D2*
X950888D1*
X984286Y863979D2*
X980439Y862078D1*
X976637Y858231D1*
X974691Y854428D1*
X972790Y848680D1*
Y839086D1*
X974691Y833382D1*
X976637Y829535D1*
X980439Y825732D1*
X984286Y823787D1*
X991935D1*
X995738Y825732D1*
X999585Y829535D1*
X1001486Y833382D1*
X1003387Y839086D1*
Y848680D1*
X1001486Y854428D1*
X999585Y858231D1*
X995738Y862078D1*
X991935Y863979D1*
X984286D1*
X1015739D2*
X1031037Y844834D1*
Y823787D1*
X1046336Y863979D2*
X1031037Y844834D1*
X1097568Y863979D2*
X1107163Y823787D1*
X1116713Y863979D1*
X1126264Y823787D1*
X1135859Y863979D1*
X1173059D2*
X1148210D1*
Y823787D1*
X1173059D1*
X1148210Y844834D2*
X1163509D1*
X1097568Y874458D2*
X1185411D1*
X2229423Y2451475D2*
D86*
X2192083D1*
Y2391187D1*
Y2422757D2*
X2215031D1*
X2247950D2*
X2273750D1*
X2282372Y2425675D1*
X2285291Y2428527D1*
X2288142Y2434231D1*
Y2440001D1*
X2285291Y2445705D1*
X2282372Y2448623D1*
X2273750Y2451475D1*
X2247950D1*
Y2391187D1*
X2268046Y2422757D2*
X2288142Y2391187D1*
X2323914Y2451475D2*
X2318143Y2448623D1*
X2312440Y2442853D1*
X2309521Y2437149D1*
X2306670Y2428527D1*
Y2414135D1*
X2309521Y2405579D1*
X2312440Y2399809D1*
X2318143Y2394105D1*
X2323914Y2391187D1*
X2335388D1*
X2341091Y2394105D1*
X2346862Y2399809D1*
X2349713Y2405579D1*
X2352565Y2414135D1*
Y2428527D1*
X2349713Y2437149D1*
X2346862Y2442853D1*
X2341091Y2448623D1*
X2335388Y2451475D1*
X2323914D1*
X2411284D2*
Y2391187D1*
X2371092Y2451475D1*
Y2391187D1*
X2449908Y2451475D2*
Y2391187D1*
X2429812Y2451475D2*
X2470004D1*
X2432980Y3498425D2*
X2470320D1*
Y3558713D1*
Y3527143D2*
X2447372D1*
X2414452D2*
X2388653D1*
X2380031Y3524225D1*
X2377112Y3521373D1*
X2374260Y3515669D1*
Y3509899D1*
X2377112Y3504195D1*
X2380031Y3501277D1*
X2388653Y3498425D1*
X2414452D1*
Y3558713D1*
X2394356Y3527143D2*
X2374260Y3558713D1*
X2338489Y3498425D2*
X2344259Y3501277D1*
X2349963Y3507047D1*
X2352881Y3512751D1*
X2355733Y3521373D1*
Y3535765D1*
X2352881Y3544321D1*
X2349963Y3550091D1*
X2344259Y3555795D1*
X2338489Y3558713D1*
X2327015D1*
X2321312Y3555795D1*
X2315541Y3550091D1*
X2312689Y3544321D1*
X2309838Y3535765D1*
Y3521373D1*
X2312689Y3512751D1*
X2315541Y3507047D1*
X2321312Y3501277D1*
X2327015Y3498425D1*
X2338489D1*
X2251118D2*
Y3558713D1*
X2291310Y3498425D1*
Y3558713D1*
X2212495Y3498425D2*
Y3558713D1*
X2232591Y3498425D2*
X2192399D1*
X2217083Y2979600D2*
Y2919312D1*
X2242949D1*
X2251571Y2922230D1*
X2254423Y2925082D1*
X2257275Y2930786D1*
Y2939408D1*
X2254423Y2945178D1*
X2251571Y2948030D1*
X2242949Y2950882D1*
X2251571Y2953800D1*
X2254423Y2956652D1*
X2257275Y2962356D1*
Y2968126D1*
X2254423Y2973830D1*
X2251571Y2976748D1*
X2242949Y2979600D1*
X2217083D1*
Y2950882D2*
X2242949D1*
X2321764Y2919312D2*
X2298750Y2979600D1*
X2275802Y2919312D1*
X2284424Y2939408D2*
X2313142D1*
X2383335Y2965274D2*
X2380484Y2970978D1*
X2374713Y2976748D1*
X2369010Y2979600D1*
X2357536D1*
X2351766Y2976748D1*
X2346062Y2970978D1*
X2343143Y2965274D1*
X2340292Y2956652D1*
Y2942260D1*
X2343143Y2933704D1*
X2346062Y2927934D1*
X2351766Y2922230D1*
X2357536Y2919312D1*
X2369010D1*
X2374713Y2922230D1*
X2380484Y2927934D1*
X2383335Y2933704D1*
X2401863Y2979600D2*
Y2919312D1*
X2442055Y2979600D2*
X2401863Y2939408D1*
X2416188Y2953800D2*
X2442055Y2919312D1*
X2442194Y3007801D2*
Y3068089D1*
X2416328D1*
X2407705Y3065170D1*
X2404854Y3062318D1*
X2402002Y3056615D1*
Y3047993D1*
X2404854Y3042222D1*
X2407705Y3039371D1*
X2416328Y3036519D1*
X2407705Y3033600D1*
X2404854Y3030748D1*
X2402002Y3025045D1*
Y3019275D1*
X2404854Y3013571D1*
X2407705Y3010652D1*
X2416328Y3007801D1*
X2442194D1*
Y3036519D2*
X2416328D1*
X2337512Y3068089D2*
X2360527Y3007801D1*
X2383475Y3068089D1*
X2374853Y3047993D2*
X2346134D1*
X2275941Y3022126D2*
X2278793Y3016423D1*
X2284563Y3010652D1*
X2290267Y3007801D1*
X2301741D1*
X2307511Y3010652D1*
X2313215Y3016423D1*
X2316133Y3022126D1*
X2318985Y3030748D1*
Y3045141D1*
X2316133Y3053696D1*
X2313215Y3059467D1*
X2307511Y3065170D1*
X2301741Y3068089D1*
X2290267D1*
X2284563Y3065170D1*
X2278793Y3059467D1*
X2275941Y3053696D1*
X2257414Y3007801D2*
Y3068089D1*
X2217222Y3007801D2*
X2257414Y3047993D1*
X2243088Y3033600D2*
X2217222Y3068089D1*
X2273369Y2508793D2*
D88*
Y2494445D1*
X2274320Y2491571D1*
X2276243Y2489669D1*
X2279117Y2488697D1*
X2281019D1*
X2283893Y2489669D1*
X2285816Y2491571D1*
X2286767Y2494445D1*
Y2508793D1*
X2292942Y2498269D2*
X2301564D1*
X2304416Y2499220D1*
X2305389Y2500193D1*
X2306340Y2502094D1*
Y2504968D1*
X2305389Y2506869D1*
X2304416Y2507842D1*
X2301564Y2508793D1*
X2292942D1*
Y2488697D1*
X2312515Y2508793D2*
Y2488697D1*
X2319214D1*
X2322088Y2489669D1*
X2324012Y2491571D1*
X2324962Y2493494D1*
X2325913Y2496346D1*
Y2501143D1*
X2324962Y2504017D1*
X2324012Y2505919D1*
X2322088Y2507842D1*
X2319214Y2508793D1*
X2312515D1*
X2347409Y2488697D2*
X2339738Y2508793D1*
X2332088Y2488697D1*
X2334963Y2495395D2*
X2344535D1*
X2360284Y2508793D2*
Y2488697D1*
X2353585Y2508793D2*
X2366982D1*
X2385583D2*
X2373158D1*
Y2488697D1*
X2385583D1*
X2373158Y2499220D2*
X2380807D1*
X2361199Y1098932D2*
D85*
X2359298Y1102735D1*
X2355451Y1106581D1*
X2351648Y1108483D1*
X2343999D1*
X2340152Y1106581D1*
X2336350Y1102735D1*
X2334404Y1098932D1*
X2332503Y1093184D1*
Y1083589D1*
X2334404Y1077885D1*
X2336350Y1074039D1*
X2340152Y1070236D1*
X2343999Y1068291D1*
X2351648D1*
X2355451Y1070236D1*
X2359298Y1074039D1*
X2361199Y1077885D1*
X2373550Y1100789D2*
X2377397Y1102735D1*
X2383145Y1108438D1*
Y1068291D1*
X2200439Y979659D2*
X2198538Y983462D1*
X2194691Y987308D1*
X2190888Y989210D1*
X2183239D1*
X2179392Y987308D1*
X2175590Y983462D1*
X2173644Y979659D1*
X2171743Y973911D1*
Y964316D1*
X2173644Y958612D1*
X2175590Y954766D1*
X2179392Y950963D1*
X2183239Y949018D1*
X2190888D1*
X2194691Y950963D1*
X2198538Y954766D1*
X2200439Y958612D1*
X2214736Y979615D2*
Y981516D1*
X2216637Y985363D1*
X2218538Y987264D1*
X2222385Y989165D1*
X2230034D1*
X2233837Y987264D1*
X2235738Y985363D1*
X2237684Y981516D1*
Y977714D1*
X2235738Y973867D1*
X2231936Y968163D1*
X2212790Y949018D1*
X2239585D1*
X3874988Y1019726D2*
X3871185Y1017825D1*
X3867339Y1013978D1*
X3865437Y1010176D1*
Y1002527D1*
X3867339Y998680D1*
X3871185Y994877D1*
X3874988Y992932D1*
X3880736Y991030D1*
X3890331D1*
X3896035Y992932D1*
X3899881Y994877D1*
X3903684Y998680D1*
X3905629Y1002527D1*
Y1010176D1*
X3903684Y1013978D1*
X3899881Y1017825D1*
X3896035Y1019726D1*
X3865482Y1035925D2*
Y1056927D1*
X3880780Y1045475D1*
Y1051223D1*
X3882681Y1055026D1*
X3884583Y1056927D1*
X3890331Y1058872D1*
X3894133D1*
X3899881Y1056927D1*
X3903728Y1053124D1*
X3905629Y1047376D1*
Y1041628D1*
X3903728Y1035925D1*
X3901783Y1034023D1*
X3897980Y1032078D1*
X3876858Y543776D2*
X3873055Y541874D1*
X3869209Y538028D1*
X3867307Y534225D1*
Y526576D1*
X3869209Y522729D1*
X3873055Y518927D1*
X3876858Y516981D1*
X3882606Y515080D1*
X3892201D1*
X3897905Y516981D1*
X3901751Y518927D1*
X3905554Y522729D1*
X3907499Y526576D1*
Y534225D1*
X3905554Y538028D1*
X3901751Y541874D1*
X3897905Y543776D1*
X3907499Y575273D2*
X3867352D1*
X3894102Y556127D1*
Y584823D1*
X2603257Y1594933D2*
X2601355Y1598736D1*
X2597509Y1602583D1*
X2593706Y1604484D1*
X2586057D1*
X2582210Y1602583D1*
X2578407Y1598736D1*
X2576462Y1594933D1*
X2574561Y1589185D1*
Y1579591D1*
X2576462Y1573887D1*
X2578407Y1570040D1*
X2582210Y1566237D1*
X2586057Y1564292D1*
X2593706D1*
X2597509Y1566237D1*
X2601355Y1570040D1*
X2603257Y1573887D1*
X2638556Y1604440D2*
X2619455D1*
X2617553Y1587240D1*
X2619455Y1589141D1*
X2625203Y1591087D1*
X2630907D1*
X2636655Y1589141D1*
X2640501Y1585339D1*
X2642403Y1579591D1*
Y1575788D1*
X2640501Y1570040D1*
X2636655Y1566193D1*
X2630907Y1564292D1*
X2625203D1*
X2619455Y1566193D1*
X2617553Y1568139D1*
X2615608Y1571941D1*
X2863269Y1597134D2*
X2861367Y1600937D1*
X2857521Y1604783D1*
X2853718Y1606685D1*
X2846069D1*
X2842222Y1604783D1*
X2838419Y1600937D1*
X2836474Y1597134D1*
X2834573Y1591386D1*
Y1581791D1*
X2836474Y1576088D1*
X2838419Y1572241D1*
X2842222Y1568438D1*
X2846069Y1566493D1*
X2853718D1*
X2857521Y1568438D1*
X2861367Y1572241D1*
X2863269Y1576088D1*
X2898568Y1600937D2*
X2896667Y1604739D1*
X2890919Y1606641D1*
X2887116D1*
X2881368Y1604739D1*
X2877521Y1598991D1*
X2875620Y1589441D1*
Y1579890D1*
X2877521Y1572241D1*
X2881368Y1568394D1*
X2887116Y1566493D1*
X2889017D1*
X2894721Y1568394D1*
X2898568Y1572241D1*
X2900469Y1577989D1*
Y1579890D1*
X2898568Y1585638D1*
X2894721Y1589441D1*
X2889017Y1591342D1*
X2887116D1*
X2881368Y1589441D1*
X2877521Y1585638D1*
X2875620Y1579890D1*
X3063474Y1597134D2*
X3061573Y1600937D1*
X3057726Y1604783D1*
X3053924Y1606685D1*
X3046275D1*
X3042428Y1604783D1*
X3038625Y1600937D1*
X3036680Y1597134D1*
X3034778Y1591386D1*
Y1581791D1*
X3036680Y1576088D1*
X3038625Y1572241D1*
X3042428Y1568438D1*
X3046275Y1566493D1*
X3053924D1*
X3057726Y1568438D1*
X3061573Y1572241D1*
X3063474Y1576088D1*
X3083475Y1566493D2*
X3102620Y1606641D1*
X3075826D1*
X3514702Y1332247D2*
X3510899Y1330346D1*
X3507052Y1326499D1*
X3505151Y1322697D1*
Y1315047D1*
X3507052Y1311201D1*
X3510899Y1307398D1*
X3514702Y1305453D1*
X3520450Y1303551D1*
X3530045D1*
X3535748Y1305453D1*
X3539595Y1307398D1*
X3543398Y1311201D1*
X3545343Y1315047D1*
Y1322697D1*
X3543398Y1326499D1*
X3539595Y1330346D1*
X3535748Y1332247D1*
X3505195Y1354149D2*
X3507097Y1348445D1*
X3510899Y1346500D1*
X3514746D1*
X3518549Y1348445D1*
X3520494Y1352248D1*
X3522395Y1359897D1*
X3524297Y1365645D1*
X3528143Y1369448D1*
X3531946Y1371349D1*
X3537694D1*
X3541496Y1369448D1*
X3543442Y1367546D1*
X3545343Y1361798D1*
Y1354149D1*
X3543442Y1348445D1*
X3541496Y1346500D1*
X3537694Y1344599D1*
X3531946D1*
X3528143Y1346500D1*
X3524297Y1350347D1*
X3522395Y1356050D1*
X3520494Y1363700D1*
X3518549Y1367546D1*
X3514746Y1369448D1*
X3510899D1*
X3507097Y1367546D1*
X3505195Y1361798D1*
Y1354149D1*
X3514702Y1073802D2*
X3510899Y1071900D1*
X3507052Y1068054D1*
X3505151Y1064251D1*
Y1056602D1*
X3507052Y1052755D1*
X3510899Y1048953D1*
X3514702Y1047007D1*
X3520450Y1045106D1*
X3530045D1*
X3535748Y1047007D1*
X3539595Y1048953D1*
X3543398Y1052755D1*
X3545343Y1056602D1*
Y1064251D1*
X3543398Y1068054D1*
X3539595Y1071900D1*
X3535748Y1073802D1*
X3518549Y1111046D2*
X3524297Y1109101D1*
X3528143Y1105298D1*
X3530045Y1099550D1*
Y1097649D1*
X3528143Y1091901D1*
X3524297Y1088099D1*
X3518549Y1086153D1*
X3516647D1*
X3510899Y1088099D1*
X3507097Y1091901D1*
X3505195Y1097649D1*
Y1099550D1*
X3507097Y1105298D1*
X3510899Y1109101D1*
X3518549Y1111046D1*
X3528143D1*
X3537694Y1109101D1*
X3543442Y1105298D1*
X3545343Y1099550D1*
Y1095748D1*
X3543442Y1090000D1*
X3539595Y1088099D1*
X3514702Y833753D2*
X3510899Y831852D1*
X3507052Y828005D1*
X3505151Y824203D1*
Y816553D1*
X3507052Y812707D1*
X3510899Y808904D1*
X3514702Y806959D1*
X3520450Y805057D1*
X3530045D1*
X3535748Y806959D1*
X3539595Y808904D1*
X3543398Y812707D1*
X3545343Y816553D1*
Y824203D1*
X3543398Y828005D1*
X3539595Y831852D1*
X3535748Y833753D1*
X3512845Y846105D2*
X3510899Y849951D1*
X3505195Y855699D1*
X3545343D1*
X3505195Y879547D2*
X3507097Y873799D1*
X3512845Y869952D1*
X3522395Y868051D1*
X3528143D1*
X3537694Y869952D1*
X3543442Y873799D1*
X3545343Y879547D1*
Y883349D1*
X3543442Y889098D1*
X3537694Y892900D1*
X3528143Y894846D1*
X3522395D1*
X3512845Y892900D1*
X3507097Y889098D1*
X3505195Y883349D1*
Y879547D1*
X3512845Y892900D2*
X3537694Y869952D1*
X3267353Y603949D2*
X3265452Y607752D1*
X3261605Y611598D1*
X3257803Y613500D1*
X3250153D1*
X3246307Y611598D1*
X3242504Y607752D1*
X3240559Y603949D1*
X3238657Y598201D1*
Y588606D1*
X3240559Y582903D1*
X3242504Y579056D1*
X3246307Y575253D1*
X3250153Y573308D1*
X3257803D1*
X3261605Y575253D1*
X3265452Y579056D1*
X3267353Y582903D1*
X3279705Y605806D2*
X3283551Y607752D1*
X3289299Y613456D1*
Y573308D1*
X3301651Y605806D2*
X3305498Y607752D1*
X3311246Y613456D1*
Y573308D1*
X3052503Y603949D2*
X3050601Y607752D1*
X3046755Y611598D1*
X3042952Y613500D1*
X3035303D1*
X3031456Y611598D1*
X3027653Y607752D1*
X3025708Y603949D1*
X3023807Y598201D1*
Y588606D1*
X3025708Y582903D1*
X3027653Y579056D1*
X3031456Y575253D1*
X3035303Y573308D1*
X3042952D1*
X3046755Y575253D1*
X3050601Y579056D1*
X3052503Y582903D1*
X3064854Y605806D2*
X3068701Y607752D1*
X3074449Y613456D1*
Y573308D1*
X3088746Y603905D2*
Y605806D1*
X3090647Y609653D1*
X3092548Y611554D1*
X3096395Y613456D1*
X3104044D1*
X3107847Y611554D1*
X3109748Y609653D1*
X3111694Y605806D1*
Y602004D1*
X3109748Y598157D1*
X3105946Y592453D1*
X3086800Y573308D1*
X3113595D1*
X2852503Y603949D2*
X2850601Y607752D1*
X2846755Y611598D1*
X2842952Y613500D1*
X2835303D1*
X2831456Y611598D1*
X2827653Y607752D1*
X2825708Y603949D1*
X2823807Y598201D1*
Y588606D1*
X2825708Y582903D1*
X2827653Y579056D1*
X2831456Y575253D1*
X2835303Y573308D1*
X2842952D1*
X2846755Y575253D1*
X2850601Y579056D1*
X2852503Y582903D1*
X2864854Y605806D2*
X2868701Y607752D1*
X2874449Y613456D1*
Y573308D1*
X2890647Y613456D2*
X2911649D1*
X2900198Y598157D1*
X2905946D1*
X2909748Y596256D1*
X2911649Y594354D1*
X2913595Y588606D1*
Y584804D1*
X2911649Y579056D1*
X2907847Y575209D1*
X2902099Y573308D1*
X2896351D1*
X2890647Y575209D1*
X2888746Y577154D1*
X2886800Y580957D1*
X2601552Y603949D2*
X2599651Y607752D1*
X2595804Y611598D1*
X2592001Y613500D1*
X2584352D1*
X2580505Y611598D1*
X2576703Y607752D1*
X2574757Y603949D1*
X2572856Y598201D1*
Y588606D1*
X2574757Y582903D1*
X2576703Y579056D1*
X2580505Y575253D1*
X2584352Y573308D1*
X2592001D1*
X2595804Y575253D1*
X2599651Y579056D1*
X2601552Y582903D1*
X2613903Y605806D2*
X2617750Y607752D1*
X2623498Y613456D1*
Y573308D1*
X2654995D2*
Y613456D1*
X2635850Y586705D1*
X2664546D1*
X2525922Y709811D2*
X2522120Y707910D1*
X2518273Y704063D1*
X2516372Y700260D1*
Y692611D1*
X2518273Y688764D1*
X2522120Y684962D1*
X2525922Y683016D1*
X2531670Y681115D1*
X2541265D1*
X2546969Y683016D1*
X2550816Y684962D1*
X2554618Y688764D1*
X2556564Y692611D1*
Y700260D1*
X2554618Y704063D1*
X2550816Y707910D1*
X2546969Y709811D1*
X2524065Y722162D2*
X2522120Y726009D1*
X2516416Y731757D1*
X2556564D1*
X2516416Y767057D2*
Y747955D1*
X2533616Y746054D1*
X2531714Y747955D1*
X2529769Y753703D1*
Y759407D1*
X2531714Y765155D1*
X2535517Y769002D1*
X2541265Y770903D1*
X2545068D1*
X2550816Y769002D1*
X2554662Y765155D1*
X2556564Y759407D1*
Y753703D1*
X2554662Y747955D1*
X2552717Y746054D1*
X2548914Y744109D1*
X2524644Y1009725D2*
X2520841Y1007823D1*
X2516995Y1003977D1*
X2515093Y1000174D1*
Y992525D1*
X2516995Y988678D1*
X2520841Y984876D1*
X2524644Y982930D1*
X2530392Y981029D1*
X2539987D1*
X2545691Y982930D1*
X2549537Y984876D1*
X2553340Y988678D1*
X2555285Y992525D1*
Y1000174D1*
X2553340Y1003977D1*
X2549537Y1007823D1*
X2545691Y1009725D1*
X2522787Y1022076D2*
X2520841Y1025923D1*
X2515138Y1031671D1*
X2555285D1*
X2520841Y1066970D2*
X2517039Y1065069D1*
X2515138Y1059321D1*
Y1055518D1*
X2517039Y1049770D1*
X2522787Y1045924D1*
X2532338Y1044022D1*
X2541888D1*
X2549537Y1045924D1*
X2553384Y1049770D1*
X2555285Y1055518D1*
Y1057420D1*
X2553384Y1063123D1*
X2549537Y1066970D1*
X2543789Y1068871D1*
X2541888D1*
X2536140Y1066970D1*
X2532338Y1063123D1*
X2530436Y1057420D1*
Y1055518D1*
X2532338Y1049770D1*
X2536140Y1045924D1*
X2541888Y1044022D1*
X1333752Y1341449D2*
X1331851Y1345252D1*
X1328004Y1349098D1*
X1324201Y1351000D1*
X1316552D1*
X1312705Y1349098D1*
X1308903Y1345252D1*
X1306957Y1341449D1*
X1305056Y1335701D1*
Y1326106D1*
X1306957Y1320403D1*
X1308903Y1316556D1*
X1312705Y1312753D1*
X1316552Y1310808D1*
X1324201D1*
X1328004Y1312753D1*
X1331851Y1316556D1*
X1333752Y1320403D1*
X1346103Y1343306D2*
X1349950Y1345252D1*
X1355698Y1350956D1*
Y1310808D1*
X1375699D2*
X1394844Y1350956D1*
X1368050D1*
X1268393Y940025D2*
X1264591Y938123D1*
X1260744Y934277D1*
X1258843Y930474D1*
Y922825D1*
X1260744Y918978D1*
X1264591Y915176D1*
X1268393Y913230D1*
X1274141Y911329D1*
X1283736D1*
X1289440Y913230D1*
X1293287Y915176D1*
X1297089Y918978D1*
X1299035Y922825D1*
Y930474D1*
X1297089Y934277D1*
X1293287Y938123D1*
X1289440Y940025D1*
X1266536Y952376D2*
X1264591Y956223D1*
X1258887Y961971D1*
X1299035D1*
X1258887Y983873D2*
X1260788Y978169D1*
X1264591Y976224D1*
X1268438D1*
X1272240Y978169D1*
X1274186Y981972D1*
X1276087Y989621D1*
X1277988Y995369D1*
X1281835Y999172D1*
X1285637Y1001073D1*
X1291386D1*
X1295188Y999172D1*
X1297134Y997270D1*
X1299035Y991522D1*
Y983873D1*
X1297134Y978169D1*
X1295188Y976224D1*
X1291386Y974322D1*
X1285637D1*
X1281835Y976224D1*
X1277988Y980070D1*
X1276087Y985774D1*
X1274186Y993423D1*
X1272240Y997270D1*
X1268438Y999172D1*
X1264591D1*
X1260788Y997270D1*
X1258887Y991522D1*
Y983873D1*
X1858452Y972204D2*
X1854650Y970303D1*
X1850803Y966456D1*
X1848902Y962653D1*
Y955004D1*
X1850803Y951157D1*
X1854650Y947355D1*
X1858452Y945409D1*
X1864200Y943508D1*
X1873795D1*
X1879499Y945409D1*
X1883346Y947355D1*
X1887148Y951157D1*
X1889094Y955004D1*
Y962653D1*
X1887148Y966456D1*
X1883346Y970303D1*
X1879499Y972204D1*
X1856595Y984555D2*
X1854650Y988402D1*
X1848946Y994150D1*
X1889094D1*
X1862299Y1031395D2*
X1868047Y1029449D1*
X1871894Y1025647D1*
X1873795Y1019899D1*
Y1017998D1*
X1871894Y1012250D1*
X1868047Y1008447D1*
X1862299Y1006502D1*
X1860398D1*
X1854650Y1008447D1*
X1850847Y1012250D1*
X1848946Y1017998D1*
Y1019899D1*
X1850847Y1025647D1*
X1854650Y1029449D1*
X1862299Y1031395D1*
X1871894D1*
X1881445Y1029449D1*
X1887193Y1025647D1*
X1889094Y1019899D1*
Y1016096D1*
X1887193Y1010348D1*
X1883346Y1008447D1*
X1481401Y750259D2*
X1479500Y754061D1*
X1475653Y757908D1*
X1471851Y759809D1*
X1464201D1*
X1460355Y757908D1*
X1456552Y754061D1*
X1454607Y750259D1*
X1452705Y744511D1*
Y734916D1*
X1454607Y729212D1*
X1456552Y725365D1*
X1460355Y721563D1*
X1464201Y719617D1*
X1471851D1*
X1475653Y721563D1*
X1479500Y725365D1*
X1481401Y729212D1*
X1495698Y750215D2*
Y752116D1*
X1497600Y755963D1*
X1499501Y757864D1*
X1503348Y759765D1*
X1510997D1*
X1514799Y757864D1*
X1516701Y755963D1*
X1518646Y752116D1*
Y748313D1*
X1516701Y744467D1*
X1512898Y738763D1*
X1493753Y719617D1*
X1520547D1*
X1544395Y759765D2*
X1538647Y757864D1*
X1534800Y752116D1*
X1532899Y742565D1*
Y736817D1*
X1534800Y727267D1*
X1538647Y721519D1*
X1544395Y719617D1*
X1548197D1*
X1553945Y721519D1*
X1557748Y727267D1*
X1559694Y736817D1*
Y742565D1*
X1557748Y752116D1*
X1553945Y757864D1*
X1548197Y759765D1*
X1544395D1*
X1557748Y752116D2*
X1534800Y727267D1*
X758723Y1734050D2*
X754920Y1732149D1*
X751073Y1728302D1*
X749172Y1724499D1*
Y1716850D1*
X751073Y1713003D1*
X754920Y1709201D1*
X758723Y1707255D1*
X764471Y1705354D1*
X774065D1*
X779769Y1707255D1*
X783616Y1709201D1*
X787418Y1713003D1*
X789364Y1716850D1*
Y1724499D1*
X787418Y1728302D1*
X783616Y1732149D1*
X779769Y1734050D1*
X758767Y1748347D2*
X756865D1*
X753019Y1750248D1*
X751117Y1752149D1*
X749216Y1755996D1*
Y1763645D1*
X751117Y1767448D1*
X753019Y1769349D1*
X756865Y1771295D1*
X760668D1*
X764515Y1769349D1*
X770219Y1765547D1*
X789364Y1746401D1*
Y1773196D1*
X756865Y1785547D2*
X754920Y1789394D1*
X749216Y1795142D1*
X789364D1*
X758723Y1936425D2*
X754920Y1934524D1*
X751073Y1930677D1*
X749172Y1926874D1*
Y1919225D1*
X751073Y1915378D1*
X754920Y1911576D1*
X758723Y1909630D1*
X764471Y1907729D1*
X774066D1*
X779769Y1909630D1*
X783616Y1911576D1*
X787419Y1915378D1*
X789364Y1919225D1*
Y1926874D1*
X787419Y1930677D1*
X783616Y1934524D1*
X779769Y1936425D1*
X758767Y1950722D2*
X756866D1*
X753019Y1952623D1*
X751118Y1954524D1*
X749216Y1958371D1*
Y1966020D1*
X751118Y1969823D1*
X753019Y1971724D1*
X756866Y1973670D1*
X760668D1*
X764515Y1971724D1*
X770219Y1967922D1*
X789364Y1948776D1*
Y1975571D1*
X758767Y1989868D2*
X756866D1*
X753019Y1991769D1*
X751118Y1993670D1*
X749216Y1997517D1*
Y2005167D1*
X751118Y2008969D1*
X753019Y2010870D1*
X756866Y2012816D1*
X760668D1*
X764515Y2010870D1*
X770219Y2007068D1*
X789364Y1987922D1*
Y2014717D1*
X1291310Y1725450D2*
X1287508Y1723549D1*
X1283661Y1719702D1*
X1281760Y1715899D1*
Y1708250D1*
X1283661Y1704403D1*
X1287508Y1700601D1*
X1291310Y1698655D1*
X1297058Y1696754D1*
X1306653D1*
X1312357Y1698655D1*
X1316204Y1700601D1*
X1320006Y1704403D1*
X1321952Y1708250D1*
Y1715899D1*
X1320006Y1719702D1*
X1316204Y1723549D1*
X1312357Y1725450D1*
X1291355Y1739747D2*
X1289453D1*
X1285607Y1741648D1*
X1283705Y1743549D1*
X1281804Y1747396D1*
Y1755045D1*
X1283705Y1758848D1*
X1285607Y1760749D1*
X1289453Y1762695D1*
X1293256D1*
X1297103Y1760749D1*
X1302807Y1756947D1*
X1321952Y1737801D1*
Y1764596D1*
X1281804Y1780794D2*
Y1801797D1*
X1297103Y1790345D1*
Y1796093D1*
X1299004Y1799895D1*
X1300905Y1801797D1*
X1306653Y1803742D1*
X1310456D1*
X1316204Y1801797D1*
X1320051Y1797994D1*
X1321952Y1792246D1*
Y1786498D1*
X1320051Y1780794D1*
X1318105Y1778893D1*
X1314303Y1776947D1*
X1291311Y1935474D2*
X1287508Y1933573D1*
X1283661Y1929726D1*
X1281760Y1925924D1*
Y1918274D1*
X1283661Y1914428D1*
X1287508Y1910625D1*
X1291311Y1908680D1*
X1297059Y1906778D1*
X1306654D1*
X1312357Y1908680D1*
X1316204Y1910625D1*
X1320007Y1914428D1*
X1321952Y1918274D1*
Y1925924D1*
X1320007Y1929726D1*
X1316204Y1933573D1*
X1312357Y1935474D1*
X1291355Y1949771D2*
X1289454D1*
X1285607Y1951673D1*
X1283706Y1953574D1*
X1281804Y1957421D1*
Y1965070D1*
X1283706Y1968872D1*
X1285607Y1970774D1*
X1289454Y1972719D1*
X1293256D1*
X1297103Y1970774D1*
X1302807Y1966971D1*
X1321952Y1947826D1*
Y1974620D1*
Y2006117D2*
X1281804D1*
X1308555Y1986972D1*
Y2015668D1*
X1825346Y1725450D2*
X1821543Y1723549D1*
X1817697Y1719702D1*
X1815795Y1715899D1*
Y1708250D1*
X1817697Y1704403D1*
X1821543Y1700601D1*
X1825346Y1698655D1*
X1831094Y1696754D1*
X1840689D1*
X1846393Y1698655D1*
X1850239Y1700601D1*
X1854042Y1704403D1*
X1855987Y1708250D1*
Y1715899D1*
X1854042Y1719702D1*
X1850239Y1723549D1*
X1846393Y1725450D1*
X1825390Y1739747D2*
X1823489D1*
X1819642Y1741648D1*
X1817741Y1743549D1*
X1815840Y1747396D1*
Y1755045D1*
X1817741Y1758848D1*
X1819642Y1760749D1*
X1823489Y1762695D1*
X1827291D1*
X1831138Y1760749D1*
X1836842Y1756947D1*
X1855987Y1737801D1*
Y1764596D1*
X1815840Y1799895D2*
Y1780794D1*
X1833039Y1778893D1*
X1831138Y1780794D1*
X1829193Y1786542D1*
Y1792246D1*
X1831138Y1797994D1*
X1834941Y1801841D1*
X1840689Y1803742D1*
X1844491D1*
X1850239Y1801841D1*
X1854086Y1797994D1*
X1855987Y1792246D1*
Y1786542D1*
X1854086Y1780794D1*
X1852141Y1778893D1*
X1848338Y1776947D1*
X1825346Y1937398D2*
X1821544Y1935496D1*
X1817697Y1931650D1*
X1815796Y1927847D1*
Y1920198D1*
X1817697Y1916351D1*
X1821544Y1912549D1*
X1825346Y1910603D1*
X1831094Y1908702D1*
X1840689D1*
X1846393Y1910603D1*
X1850240Y1912549D1*
X1854042Y1916351D1*
X1855988Y1920198D1*
Y1927847D1*
X1854042Y1931650D1*
X1850240Y1935496D1*
X1846393Y1937398D1*
X1825390Y1951695D2*
X1823489D1*
X1819642Y1953596D1*
X1817741Y1955497D1*
X1815840Y1959344D1*
Y1966993D1*
X1817741Y1970796D1*
X1819642Y1972697D1*
X1823489Y1974643D1*
X1827292D1*
X1831138Y1972697D1*
X1836842Y1968895D1*
X1855988Y1949749D1*
Y1976544D1*
X1821544Y2011843D2*
X1817741Y2009942D1*
X1815840Y2004194D1*
Y2000391D1*
X1817741Y1994643D1*
X1823489Y1990796D1*
X1833040Y1988895D1*
X1842590D1*
X1850240Y1990796D1*
X1854086Y1994643D1*
X1855988Y2000391D1*
Y2002293D1*
X1854086Y2007996D1*
X1850240Y2011843D1*
X1844491Y2013744D1*
X1842590D1*
X1836842Y2011843D1*
X1833040Y2007996D1*
X1831138Y2002293D1*
Y2000391D1*
X1833040Y1994643D1*
X1836842Y1990796D1*
X1842590Y1988895D1*
X2360830Y1725450D2*
X2357028Y1723549D1*
X2353181Y1719702D1*
X2351280Y1715899D1*
Y1708250D1*
X2353181Y1704403D1*
X2357028Y1700601D1*
X2360830Y1698655D1*
X2366578Y1696754D1*
X2376173D1*
X2381877Y1698655D1*
X2385724Y1700601D1*
X2389526Y1704403D1*
X2391472Y1708250D1*
Y1715899D1*
X2389526Y1719702D1*
X2385724Y1723549D1*
X2381877Y1725450D1*
X2360874Y1739747D2*
X2358973D1*
X2355126Y1741648D1*
X2353225Y1743549D1*
X2351324Y1747396D1*
Y1755045D1*
X2353225Y1758848D1*
X2355126Y1760749D1*
X2358973Y1762695D1*
X2362776D1*
X2366622Y1760749D1*
X2372326Y1756947D1*
X2391472Y1737801D1*
Y1764596D1*
Y1784597D2*
X2351324Y1803742D1*
Y1776947D1*
X2360830Y1936447D2*
X2357028Y1934546D1*
X2353181Y1930699D1*
X2351280Y1926897D1*
Y1919247D1*
X2353181Y1915400D1*
X2357028Y1911598D1*
X2360830Y1909652D1*
X2366578Y1907751D1*
X2376173D1*
X2381877Y1909652D1*
X2385724Y1911598D1*
X2389526Y1915400D1*
X2391472Y1919247D1*
Y1926897D1*
X2389526Y1930699D1*
X2385724Y1934546D1*
X2381877Y1936447D1*
X2360875Y1950744D2*
X2358973D1*
X2355127Y1952645D1*
X2353225Y1954547D1*
X2351324Y1958393D1*
Y1966043D1*
X2353225Y1969845D1*
X2355127Y1971746D1*
X2358973Y1973692D1*
X2362776D1*
X2366623Y1971746D1*
X2372326Y1967944D1*
X2391472Y1948799D1*
Y1975593D1*
X2351324Y1997495D2*
X2353225Y1991791D1*
X2357028Y1989846D1*
X2360875D1*
X2364677Y1991791D1*
X2366623Y1995594D1*
X2368524Y2003243D1*
X2370425Y2008991D1*
X2374272Y2012794D1*
X2378074Y2014695D1*
X2383823D1*
X2387625Y2012794D1*
X2389571Y2010892D1*
X2391472Y2005144D1*
Y1997495D1*
X2389571Y1991791D1*
X2387625Y1989846D1*
X2383823Y1987945D1*
X2378074D1*
X2374272Y1989846D1*
X2370425Y1993693D1*
X2368524Y1999396D1*
X2366623Y2007046D1*
X2364677Y2010892D1*
X2360875Y2012794D1*
X2357028D1*
X2353225Y2010892D1*
X2351324Y2005144D1*
Y1997495D1*
X2894866Y1726401D2*
X2891063Y1724499D1*
X2887216Y1720653D1*
X2885315Y1716850D1*
Y1709201D1*
X2887216Y1705354D1*
X2891063Y1701551D1*
X2894866Y1699606D1*
X2900614Y1697705D1*
X2910208D1*
X2915912Y1699606D1*
X2919759Y1701551D1*
X2923562Y1705354D1*
X2925507Y1709201D1*
Y1716850D1*
X2923562Y1720653D1*
X2919759Y1724499D1*
X2915912Y1726401D1*
X2894910Y1740697D2*
X2893009D1*
X2889162Y1742599D1*
X2887260Y1744500D1*
X2885359Y1748347D1*
Y1755996D1*
X2887260Y1759799D1*
X2889162Y1761700D1*
X2893009Y1763645D1*
X2896811D1*
X2900658Y1761700D1*
X2906362Y1757897D1*
X2925507Y1738752D1*
Y1765547D1*
X2898712Y1802791D2*
X2904460Y1800846D1*
X2908307Y1797043D1*
X2910208Y1791295D1*
Y1789394D1*
X2908307Y1783646D1*
X2904460Y1779844D1*
X2898712Y1777898D1*
X2896811D1*
X2891063Y1779844D1*
X2887260Y1783646D1*
X2885359Y1789394D1*
Y1791295D1*
X2887260Y1797043D1*
X2891063Y1800846D1*
X2898712Y1802791D1*
X2908307D1*
X2917858Y1800846D1*
X2923606Y1797043D1*
X2925507Y1791295D1*
Y1787493D1*
X2923606Y1781745D1*
X2919759Y1779844D1*
X2894866Y1936425D2*
X2891063Y1934524D1*
X2887217Y1930677D1*
X2885315Y1926874D1*
Y1919225D1*
X2887217Y1915378D1*
X2891063Y1911576D1*
X2894866Y1909630D1*
X2900614Y1907729D1*
X2910209D1*
X2915912Y1909630D1*
X2919759Y1911576D1*
X2923562Y1915378D1*
X2925507Y1919225D1*
Y1926874D1*
X2923562Y1930677D1*
X2919759Y1934524D1*
X2915912Y1936425D1*
X2885359Y1952623D2*
Y1973626D1*
X2900658Y1962174D1*
Y1967922D1*
X2902559Y1971724D1*
X2904461Y1973626D1*
X2910209Y1975571D1*
X2914011D1*
X2919759Y1973626D1*
X2923606Y1969823D1*
X2925507Y1964075D1*
Y1958327D1*
X2923606Y1952623D1*
X2921660Y1950722D1*
X2917858Y1948776D1*
X2885359Y1999419D2*
X2887261Y1993670D1*
X2893009Y1989824D1*
X2902559Y1987922D1*
X2908307D1*
X2917858Y1989824D1*
X2923606Y1993670D1*
X2925507Y1999419D1*
Y2003221D1*
X2923606Y2008969D1*
X2917858Y2012772D1*
X2908307Y2014717D1*
X2902559D1*
X2893009Y2012772D1*
X2887261Y2008969D1*
X2885359Y2003221D1*
Y1999419D1*
X2893009Y2012772D2*
X2917858Y1989824D1*
X3428901Y1734050D2*
X3425098Y1732149D1*
X3421252Y1728302D1*
X3419350Y1724499D1*
Y1716850D1*
X3421252Y1713003D1*
X3425098Y1709201D1*
X3428901Y1707255D1*
X3434649Y1705354D1*
X3444244D1*
X3449948Y1707255D1*
X3453794Y1709201D1*
X3457597Y1713003D1*
X3459542Y1716850D1*
Y1724499D1*
X3457597Y1728302D1*
X3453794Y1732149D1*
X3449948Y1734050D1*
X3419395Y1750248D2*
Y1771250D1*
X3434693Y1759799D1*
Y1765547D1*
X3436595Y1769349D1*
X3438496Y1771250D1*
X3444244Y1773196D1*
X3448046D1*
X3453794Y1771250D1*
X3457641Y1767448D1*
X3459542Y1761700D1*
Y1755952D1*
X3457641Y1750248D1*
X3455696Y1748347D1*
X3451893Y1746401D1*
X3427044Y1785547D2*
X3425098Y1789394D1*
X3419395Y1795142D1*
X3459542D1*
X3428901Y1936425D2*
X3425099Y1934524D1*
X3421252Y1930677D1*
X3419351Y1926874D1*
Y1919225D1*
X3421252Y1915378D1*
X3425099Y1911576D1*
X3428901Y1909630D1*
X3434649Y1907729D1*
X3444244D1*
X3449948Y1909630D1*
X3453795Y1911576D1*
X3457597Y1915378D1*
X3459543Y1919225D1*
Y1926874D1*
X3457597Y1930677D1*
X3453795Y1934524D1*
X3449948Y1936425D1*
X3419395Y1952623D2*
Y1973626D1*
X3434693Y1962174D1*
Y1967922D1*
X3436595Y1971724D1*
X3438496Y1973626D1*
X3444244Y1975571D1*
X3448047D1*
X3453795Y1973626D1*
X3457641Y1969823D1*
X3459543Y1964075D1*
Y1958327D1*
X3457641Y1952623D1*
X3455696Y1950722D1*
X3451893Y1948776D1*
X3428945Y1989868D2*
X3427044D1*
X3423197Y1991769D1*
X3421296Y1993670D1*
X3419395Y1997517D1*
Y2005167D1*
X3421296Y2008969D1*
X3423197Y2010870D1*
X3427044Y2012816D1*
X3430847D1*
X3434693Y2010870D1*
X3440397Y2007068D1*
X3459543Y1987922D1*
Y2014717D1*
X696304Y2114006D2*
Y2073814D1*
X709701D1*
X715449Y2075760D1*
X719296Y2079562D1*
X721198Y2083409D1*
X723099Y2089113D1*
Y2098708D1*
X721198Y2104456D1*
X719296Y2108258D1*
X715449Y2112105D1*
X709701Y2114006D1*
X696304D1*
X735450Y2106313D2*
X739297Y2108258D1*
X745045Y2113962D1*
Y2073814D1*
X1008100Y2114124D2*
Y2073932D1*
X1021498D1*
X1027246Y2075878D1*
X1031093Y2079680D1*
X1032994Y2083527D1*
X1034895Y2089231D1*
Y2098826D1*
X1032994Y2104574D1*
X1031093Y2108376D1*
X1027246Y2112223D1*
X1021498Y2114124D1*
X1008100D1*
X1049192Y2104530D2*
Y2106431D1*
X1051093Y2110278D1*
X1052995Y2112179D1*
X1056841Y2114080D1*
X1064491D1*
X1068293Y2112179D1*
X1070194Y2110278D1*
X1072140Y2106431D1*
Y2102628D1*
X1070194Y2098782D1*
X1066392Y2093078D1*
X1047247Y2073932D1*
X1074041D1*
X3281982Y2110522D2*
Y2070330D1*
X3295380D1*
X3301128Y2072276D1*
X3304975Y2076078D1*
X3306876Y2079925D1*
X3308777Y2085629D1*
Y2095223D1*
X3306876Y2100971D1*
X3304975Y2104774D1*
X3301128Y2108621D1*
X3295380Y2110522D1*
X3281982D1*
X3324975Y2110478D2*
X3345978D1*
X3334526Y2095179D1*
X3340274D1*
X3344076Y2093278D1*
X3345978Y2091377D1*
X3347923Y2085629D1*
Y2081826D1*
X3345978Y2076078D1*
X3342175Y2072231D1*
X3336427Y2070330D1*
X3330679D1*
X3324975Y2072231D1*
X3323074Y2074177D1*
X3321128Y2077979D1*
X3613399Y2112325D2*
Y2072133D1*
X3626797D1*
X3632545Y2074079D1*
X3636391Y2077881D1*
X3638293Y2081728D1*
X3640194Y2087432D1*
Y2097027D1*
X3638293Y2102775D1*
X3636391Y2106577D1*
X3632545Y2110424D1*
X3626797Y2112325D1*
X3613399D1*
X3671691Y2072133D2*
Y2112281D1*
X3652545Y2085531D1*
X3681241D1*
X2067948Y641778D2*
Y601586D1*
X2081346D1*
X2087094Y603531D1*
X2090940Y607334D1*
X2092842Y611181D1*
X2094743Y616885D1*
Y626479D1*
X2092842Y632227D1*
X2090940Y636030D1*
X2087094Y639877D1*
X2081346Y641778D1*
X2067948D1*
X2130042Y641734D2*
X2110941D1*
X2109040Y624534D1*
X2110941Y626435D1*
X2116689Y628381D1*
X2122393D1*
X2128141Y626435D1*
X2131988Y622633D1*
X2133889Y616885D1*
Y613082D1*
X2131988Y607334D1*
X2128141Y603487D1*
X2122393Y601586D1*
X2116689D1*
X2110941Y603487D1*
X2109040Y605433D1*
X2107094Y609235D1*
X3931417Y2496347D2*
Y2465750D1*
X3929516Y2460002D1*
X3927570Y2458101D1*
X3923768Y2456155D1*
X3919921D1*
X3916118Y2458101D1*
X3914217Y2460002D1*
X3912272Y2465750D1*
Y2469553D1*
X3943768Y2488654D2*
X3947615Y2490599D1*
X3953363Y2496303D1*
Y2456155D1*
X4108160Y1591256D2*
Y1560658D1*
X4106258Y1554910D1*
X4104313Y1553009D1*
X4100510Y1551064D1*
X4096664D1*
X4092861Y1553009D1*
X4090960Y1554910D1*
X4089014Y1560658D1*
Y1564461D1*
X4122457Y1581661D2*
Y1583562D1*
X4124358Y1587409D1*
X4126259Y1589310D1*
X4130106Y1591211D1*
X4137755D1*
X4141558Y1589310D1*
X4143459Y1587409D1*
X4145405Y1583562D1*
Y1579760D1*
X4143459Y1575913D1*
X4139657Y1570209D1*
X4120511Y1551064D1*
X4147306D1*
X678779Y1054149D2*
Y1023552D1*
X676878Y1017804D1*
X674932Y1015903D1*
X671130Y1013957D1*
X667283D1*
X663481Y1015903D1*
X661579Y1017804D1*
X659634Y1023552D1*
Y1027355D1*
X694977Y1054105D2*
X715980D1*
X704528Y1038807D1*
X710276D1*
X714078Y1036905D1*
X715980Y1035004D1*
X717925Y1029256D1*
Y1025453D1*
X715980Y1019705D1*
X712177Y1015859D1*
X706429Y1013957D1*
X700681D1*
X694977Y1015859D1*
X693076Y1017804D1*
X691131Y1021607D1*
X1892153Y526376D2*
Y495779D1*
X1890251Y490031D1*
X1888306Y488130D1*
X1884503Y486184D1*
X1880657D1*
X1876854Y488130D1*
X1874953Y490031D1*
X1873007Y495779D1*
Y499582D1*
X1923649Y486184D2*
Y526332D1*
X1904504Y499582D1*
X1933200D1*
X3366724Y526320D2*
Y495723D1*
X3364823Y489975D1*
X3362877Y488073D1*
X3359075Y486128D1*
X3355228D1*
X3351425Y488073D1*
X3349524Y489975D1*
X3347579Y495723D1*
Y499525D1*
X3402023Y526276D2*
X3382922D1*
X3381021Y509076D1*
X3382922Y510977D1*
X3388670Y512923D1*
X3394374D1*
X3400122Y510977D1*
X3403969Y507175D1*
X3405870Y501427D1*
Y497624D1*
X3403969Y491876D1*
X3400122Y488029D1*
X3394374Y486128D1*
X3388670D1*
X3382922Y488029D1*
X3381021Y489975D1*
X3379075Y493777D1*
X450186Y3070609D2*
Y3040011D1*
X448285Y3034263D1*
X446339Y3032362D1*
X442537Y3030417D1*
X438690D1*
X434887Y3032362D1*
X432986Y3034263D1*
X431041Y3040011D1*
Y3043814D1*
X485485Y3064861D2*
X483584Y3068663D1*
X477836Y3070564D1*
X474033D1*
X468285Y3068663D1*
X464439Y3062915D1*
X462537Y3053365D1*
Y3043814D1*
X464439Y3036165D1*
X468285Y3032318D1*
X474033Y3030417D1*
X475935D1*
X481639Y3032318D1*
X485485Y3036165D1*
X487387Y3041913D1*
Y3043814D1*
X485485Y3049562D1*
X481639Y3053365D1*
X475935Y3055266D1*
X474033D1*
X468285Y3053365D1*
X464439Y3049562D1*
X462537Y3043814D1*
X2581830Y459711D2*
X2599030D1*
X2604778Y461657D1*
X2606724Y463558D1*
X2608625Y467361D1*
Y471207D1*
X2606724Y475010D1*
X2604778Y476955D1*
X2599030Y478857D1*
X2581830D1*
Y438665D1*
X2595228Y459711D2*
X2608625Y438665D1*
X2620976Y471163D2*
X2624823Y473109D1*
X2630571Y478812D1*
Y438665D1*
X3697561Y1373642D2*
X3714761D1*
X3720509Y1375587D1*
X3722455Y1377489D1*
X3724356Y1381291D1*
Y1385138D1*
X3722455Y1388940D1*
X3720509Y1390886D1*
X3714761Y1392787D1*
X3697561D1*
Y1352595D1*
X3710958Y1373642D2*
X3724356Y1352595D1*
X3738653Y1383192D2*
Y1385094D1*
X3740554Y1388940D1*
X3742455Y1390842D1*
X3746302Y1392743D1*
X3753951D1*
X3757754Y1390842D1*
X3759655Y1388940D1*
X3761601Y1385094D1*
Y1381291D1*
X3759655Y1377444D1*
X3755853Y1371740D1*
X3736707Y1352595D1*
X3763502D1*
X3698013Y1320827D2*
X3715212D1*
X3720960Y1322772D1*
X3722906Y1324674D1*
X3724807Y1328476D1*
Y1332323D1*
X3722906Y1336125D1*
X3720960Y1338071D1*
X3715212Y1339972D1*
X3698013D1*
Y1299780D1*
X3711410Y1320827D2*
X3724807Y1299780D1*
X3741005Y1339928D2*
X3762008D1*
X3750556Y1324629D1*
X3756304D1*
X3760107Y1322728D1*
X3762008Y1320827D1*
X3763953Y1315079D1*
Y1311276D1*
X3762008Y1305528D1*
X3758205Y1301681D1*
X3752457Y1299780D1*
X3746709D1*
X3741005Y1301681D1*
X3739104Y1303627D1*
X3737159Y1307429D1*
X3698432Y1480369D2*
X3715632D1*
X3721380Y1482314D1*
X3723325Y1484216D1*
X3725227Y1488018D1*
Y1491865D1*
X3723325Y1495667D1*
X3721380Y1497613D1*
X3715632Y1499514D1*
X3698432D1*
Y1459322D1*
X3711829Y1480369D2*
X3725227Y1459322D1*
X3756723D2*
Y1499470D1*
X3737578Y1472719D1*
X3766274D1*
X858784Y1097508D2*
X875984D1*
X881732Y1099453D1*
X883678Y1101355D1*
X885579Y1105157D1*
Y1109004D1*
X883678Y1112807D1*
X881732Y1114752D1*
X875984Y1116653D1*
X858784D1*
Y1076461D1*
X872182Y1097508D2*
X885579Y1076461D1*
X920878Y1116609D2*
X901777D1*
X899876Y1099409D1*
X901777Y1101310D1*
X907525Y1103256D1*
X913229D1*
X918977Y1101310D1*
X922824Y1097508D1*
X924725Y1091760D1*
Y1087957D1*
X922824Y1082209D1*
X918977Y1078363D1*
X913229Y1076461D1*
X907525D1*
X901777Y1078363D1*
X899876Y1080308D1*
X897930Y1084111D1*
X858434Y1174240D2*
X875634D1*
X881382Y1176186D1*
X883328Y1178087D1*
X885229Y1181889D1*
Y1185736D1*
X883328Y1189539D1*
X881382Y1191484D1*
X875634Y1193386D1*
X858434D1*
Y1153194D1*
X871831Y1174240D2*
X885229Y1153194D1*
X920528Y1187638D2*
X918627Y1191440D1*
X912879Y1193341D1*
X909076D1*
X903328Y1191440D1*
X899481Y1185692D1*
X897580Y1176141D1*
Y1166591D1*
X899481Y1158942D1*
X903328Y1155095D1*
X909076Y1153194D1*
X910978D1*
X916681Y1155095D1*
X920528Y1158942D1*
X922429Y1164690D1*
Y1166591D1*
X920528Y1172339D1*
X916681Y1176141D1*
X910978Y1178043D1*
X909076D1*
X903328Y1176141D1*
X899481Y1172339D1*
X897580Y1166591D1*
X859564Y1250623D2*
X876764D1*
X882512Y1252569D1*
X884457Y1254470D1*
X886358Y1258273D1*
Y1262119D1*
X884457Y1265922D1*
X882512Y1267867D1*
X876764Y1269769D1*
X859564D1*
Y1229577D1*
X872961Y1250623D2*
X886358Y1229577D1*
X906359D2*
X925504Y1269725D1*
X898710D1*
X859596Y1325301D2*
X876796D1*
X882544Y1327246D1*
X884490Y1329147D1*
X886391Y1332950D1*
Y1336797D1*
X884490Y1340599D1*
X882544Y1342545D1*
X876796Y1344446D1*
X859596D1*
Y1304254D1*
X872994Y1325301D2*
X886391Y1304254D1*
X908293Y1344402D2*
X902589Y1342500D1*
X900644Y1338698D1*
Y1334851D1*
X902589Y1331049D1*
X906392Y1329103D1*
X914041Y1327202D1*
X919789Y1325301D1*
X923592Y1321454D1*
X925493Y1317651D1*
Y1311903D1*
X923592Y1308101D1*
X921690Y1306155D1*
X915942Y1304254D1*
X908293D1*
X902589Y1306155D1*
X900644Y1308101D1*
X898742Y1311903D1*
Y1317651D1*
X900644Y1321454D1*
X904490Y1325301D1*
X910194Y1327202D1*
X917844Y1329103D1*
X921690Y1331049D1*
X923592Y1334851D1*
Y1338698D1*
X921690Y1342500D1*
X915942Y1344402D1*
X908293D1*
X3418954Y1524225D2*
Y1495530D1*
X3420855Y1489781D1*
X3424702Y1485979D1*
X3430450Y1484033D1*
X3434252D1*
X3440000Y1485979D1*
X3443847Y1489781D1*
X3445748Y1495530D1*
Y1524225D1*
X3458100Y1516532D2*
X3461947Y1518477D1*
X3467695Y1524181D1*
Y1484033D1*
X1548228Y1345685D2*
Y1316989D1*
X1550129Y1311241D1*
X1553976Y1307438D1*
X1559724Y1305493D1*
X1563526D1*
X1569274Y1307438D1*
X1573121Y1311241D1*
X1575022Y1316989D1*
Y1345685D1*
X1589319Y1336090D2*
Y1337991D1*
X1591221Y1341838D1*
X1593122Y1343739D1*
X1596969Y1345641D1*
X1604618D1*
X1608420Y1343739D1*
X1610322Y1341838D1*
X1612267Y1337991D1*
Y1334189D1*
X1610322Y1330342D1*
X1606519Y1324638D1*
X1587374Y1305493D1*
X1614169D1*
X3728873Y749149D2*
X3757569D1*
X3763317Y751050D1*
X3767119Y754897D1*
X3769065Y760645D1*
Y764448D1*
X3767119Y770196D1*
X3763317Y774042D1*
X3757569Y775944D1*
X3728873D1*
X3728917Y792142D2*
Y813144D1*
X3744216Y801692D1*
Y807440D1*
X3746117Y811243D1*
X3748018Y813144D1*
X3753766Y815090D1*
X3757569D1*
X3763317Y813144D1*
X3767164Y809342D1*
X3769065Y803594D1*
Y797846D1*
X3767164Y792142D1*
X3765218Y790241D1*
X3761416Y788295D1*
X794063Y1822578D2*
X822759D1*
X828507Y1824479D1*
X832310Y1828326D1*
X834255Y1834074D1*
Y1837876D1*
X832310Y1843624D1*
X828507Y1847471D1*
X822759Y1849372D1*
X794063D1*
X834255Y1880869D2*
X794107D1*
X820858Y1861724D1*
Y1890420D1*
X1327813Y1823528D2*
X1356509D1*
X1362257Y1825430D1*
X1366059Y1829276D1*
X1368005Y1835024D1*
Y1838827D1*
X1366059Y1844575D1*
X1362257Y1848422D1*
X1356509Y1850323D1*
X1327813D1*
X1327857Y1885622D2*
Y1866521D1*
X1345057Y1864620D1*
X1343155Y1866521D1*
X1341210Y1872269D1*
Y1877973D1*
X1343155Y1883721D1*
X1346958Y1887568D1*
X1352706Y1889469D1*
X1356509D1*
X1362257Y1887568D1*
X1366103Y1883721D1*
X1368005Y1877973D1*
Y1872269D1*
X1366103Y1866521D1*
X1364158Y1864620D1*
X1360355Y1862674D1*
X1861563Y1824501D2*
X1890259D1*
X1896007Y1826402D1*
X1899810Y1830249D1*
X1901755Y1835997D1*
Y1839800D1*
X1899810Y1845548D1*
X1896007Y1849394D1*
X1890259Y1851296D1*
X1861563D1*
X1867311Y1886595D2*
X1863509Y1884694D1*
X1861607Y1878946D1*
Y1875143D1*
X1863509Y1869395D1*
X1869257Y1865548D1*
X1878807Y1863647D1*
X1888358D1*
X1896007Y1865548D1*
X1899854Y1869395D1*
X1901755Y1875143D1*
Y1877044D1*
X1899854Y1882748D1*
X1896007Y1886595D1*
X1890259Y1888496D1*
X1888358D1*
X1882610Y1886595D1*
X1878807Y1882748D1*
X1876906Y1877044D1*
Y1875143D1*
X1878807Y1869395D1*
X1882610Y1865548D1*
X1888358Y1863647D1*
X2395313Y1823528D2*
X2424009D1*
X2429757Y1825430D1*
X2433559Y1829276D1*
X2435505Y1835024D1*
Y1838827D1*
X2433559Y1844575D1*
X2429757Y1848422D1*
X2424009Y1850323D1*
X2395313D1*
X2435505Y1870324D2*
X2395357Y1889469D1*
Y1862674D1*
X2929063Y1823550D2*
X2957759D1*
X2963507Y1825452D1*
X2967310Y1829298D1*
X2969255Y1835046D1*
Y1838849D1*
X2967310Y1844597D1*
X2963507Y1848444D1*
X2957759Y1850345D1*
X2929063D1*
X2929107Y1872247D2*
X2931009Y1866543D1*
X2934811Y1864598D1*
X2938658D1*
X2942461Y1866543D1*
X2944406Y1870346D1*
X2946307Y1877995D1*
X2948209Y1883743D1*
X2952055Y1887546D1*
X2955858Y1889447D1*
X2961606D1*
X2965409Y1887546D1*
X2967354Y1885644D1*
X2969255Y1879896D1*
Y1872247D1*
X2967354Y1866543D1*
X2965409Y1864598D1*
X2961606Y1862696D1*
X2955858D1*
X2952055Y1864598D1*
X2948209Y1868445D1*
X2946307Y1874148D1*
X2944406Y1881798D1*
X2942461Y1885644D1*
X2938658Y1887546D1*
X2934811D1*
X2931009Y1885644D1*
X2929107Y1879896D1*
Y1872247D1*
X3462813Y1824479D2*
X3491509D1*
X3497257Y1826380D1*
X3501059Y1830227D1*
X3503005Y1835975D1*
Y1839778D1*
X3501059Y1845526D1*
X3497257Y1849372D1*
X3491509Y1851274D1*
X3462813D1*
X3476210Y1888518D2*
X3481958Y1886573D1*
X3485805Y1882770D1*
X3487706Y1877022D1*
Y1875121D1*
X3485805Y1869373D1*
X3481958Y1865571D1*
X3476210Y1863625D1*
X3474309D1*
X3468561Y1865571D1*
X3464758Y1869373D1*
X3462857Y1875121D1*
Y1877022D1*
X3464758Y1882770D1*
X3468561Y1886573D1*
X3476210Y1888518D1*
X3485805D1*
X3495355Y1886573D1*
X3501103Y1882770D1*
X3503005Y1877022D1*
Y1873220D1*
X3501103Y1867472D1*
X3497257Y1865571D1*
X2404024Y928290D2*
X2419322Y909144D1*
Y888098D1*
X2434621Y928290D2*
X2419322Y909144D1*
X2446972Y920596D2*
X2450819Y922542D1*
X2456567Y928246D1*
Y888098D1*
M02*
