G04 DipTrace 4.0.0.5*
G04 TopSilk.gbr*
%MOIN*%
G04 #@! TF.FileFunction,Legend,Top*
G04 #@! TF.Part,Single*
%ADD10C,0.009843*%
%ADD13C,0.004724*%
%ADD36C,0.003937*%
%ADD81C,0.00772*%
%ADD82C,0.006176*%
%ADD83C,0.009264*%
%ADD84C,0.012351*%
%FSLAX26Y26*%
G04*
G70*
G90*
G75*
G01*
G04 TopSilk*
%LPD*%
X670276Y2149270D2*
D10*
Y2263727D1*
G02X670276Y2149270I98597J-57228D01*
G01*
X995276D2*
Y2263727D1*
G02X995276Y2149270I98597J-57228D01*
G01*
X2895276D2*
Y2263727D1*
G02X2895276Y2149270I98597J-57228D01*
G01*
X3220276D2*
Y2263727D1*
G02X3220276Y2149270I98597J-57228D01*
G01*
X1875097Y569558D2*
Y693440D1*
Y569558D2*
G03X1875097Y693440I170181J61941D01*
G01*
X3675774Y2894018D2*
Y2518974D1*
X3594608Y2756528D2*
Y2656465D1*
X416087Y2891483D2*
Y2521509D1*
X494971Y2756453D2*
Y2656539D1*
X3675774Y2518974D2*
X419672D1*
X3675774Y2894018D2*
X419672D1*
X3594608Y2656465D2*
X494971Y2656539D1*
X3594608Y2756528D2*
X494971Y2756453D1*
X3361369Y1154724D2*
X3699951D1*
Y1532677D1*
X3361369D1*
Y1154724D1*
X706196Y812440D2*
X806201D1*
Y1012463D1*
X706196D1*
Y812440D1*
X1568673Y456496D2*
Y556499D1*
X968728D1*
Y456496D1*
X1568673D1*
X3043675D2*
Y556499D1*
X2443730D1*
Y456496D1*
X3043675D1*
X2369438Y1461867D2*
Y713915D1*
X3117210D1*
Y1461867D1*
X2369438D1*
G36*
X2322125Y1446202D2*
X2321103Y1446269D1*
X2320098Y1446469D1*
X2319128Y1446798D1*
X2318209Y1447251D1*
X2317357Y1447821D1*
X2316587Y1448496D1*
X2315911Y1449267D1*
X2315342Y1450118D1*
X2314889Y1451037D1*
X2314560Y1452008D1*
X2314360Y1453012D1*
X2314293Y1454035D1*
X2314360Y1455057D1*
X2314560Y1456062D1*
X2314889Y1457032D1*
X2315342Y1457951D1*
X2315911Y1458803D1*
X2316587Y1459573D1*
X2317357Y1460249D1*
X2318209Y1460818D1*
X2319128Y1461271D1*
X2320098Y1461601D1*
X2321103Y1461800D1*
X2322125Y1461867D1*
X2322216D1*
X2323238Y1461800D1*
X2324243Y1461601D1*
X2325213Y1461271D1*
X2326132Y1460818D1*
X2326984Y1460249D1*
X2327754Y1459573D1*
X2328430Y1458803D1*
X2328999Y1457951D1*
X2329452Y1457032D1*
X2329782Y1456062D1*
X2329982Y1455057D1*
X2330049Y1454035D1*
X2329982Y1453012D1*
X2329782Y1452008D1*
X2329452Y1451037D1*
X2328999Y1450118D1*
X2328430Y1449267D1*
X2327754Y1448496D1*
X2326984Y1447821D1*
X2326132Y1447251D1*
X2325213Y1446798D1*
X2324243Y1446469D1*
X2323238Y1446269D1*
X2322216Y1446202D1*
X2322125D1*
G37*
G36*
X2369438Y1461867D2*
Y1410706D1*
X2420509Y1461867D1*
X2369438D1*
G37*
X1484299Y1213139D2*
D13*
Y1234005D1*
X1463433D1*
Y840304D2*
X1484299D1*
Y861171D1*
X1090598D2*
Y840304D1*
X1111465D1*
Y1234005D2*
X1090598D1*
Y1213139D1*
G36*
X1480756Y1275738D2*
X1480672Y1274453D1*
X1480421Y1273190D1*
X1480007Y1271971D1*
X1479437Y1270816D1*
X1478722Y1269746D1*
X1477873Y1268778D1*
X1476905Y1267929D1*
X1475835Y1267214D1*
X1474680Y1266644D1*
X1473461Y1266230D1*
X1472198Y1265979D1*
X1470913Y1265895D1*
X1469629Y1265979D1*
X1468366Y1266230D1*
X1467147Y1266644D1*
X1465992Y1267214D1*
X1464922Y1267929D1*
X1463954Y1268778D1*
X1463105Y1269746D1*
X1462390Y1270816D1*
X1461820Y1271971D1*
X1461406Y1273190D1*
X1461155Y1274453D1*
X1461071Y1275738D1*
D1*
X1461155Y1277022D1*
X1461406Y1278285D1*
X1461820Y1279504D1*
X1462390Y1280659D1*
X1463105Y1281729D1*
X1463954Y1282697D1*
X1464922Y1283546D1*
X1465992Y1284261D1*
X1467147Y1284831D1*
X1468366Y1285245D1*
X1469629Y1285496D1*
X1470913Y1285580D1*
X1472198Y1285496D1*
X1473461Y1285245D1*
X1474680Y1284831D1*
X1475835Y1284261D1*
X1476905Y1283546D1*
X1477873Y1282697D1*
X1478722Y1281729D1*
X1479437Y1280659D1*
X1480007Y1279504D1*
X1480421Y1278285D1*
X1480672Y1277022D1*
X1480756Y1275738D1*
D1*
G37*
G36*
X3578495Y669907D2*
X3579500Y669841D1*
X3580488Y669644D1*
X3581442Y669321D1*
X3582346Y668875D1*
X3583183Y668315D1*
X3583941Y667651D1*
X3584605Y666893D1*
X3585165Y666056D1*
X3585611Y665152D1*
X3585934Y664198D1*
X3586131Y663210D1*
X3586197Y662205D1*
X3586131Y661199D1*
X3585934Y660211D1*
X3585611Y659257D1*
X3585165Y658354D1*
X3584605Y657516D1*
X3583941Y656759D1*
X3583183Y656094D1*
X3582346Y655535D1*
X3581442Y655089D1*
X3580488Y654765D1*
X3579500Y654569D1*
X3578495Y654503D1*
X3578469D1*
X3577463Y654569D1*
X3576475Y654765D1*
X3575521Y655089D1*
X3574617Y655535D1*
X3573780Y656094D1*
X3573022Y656759D1*
X3572358Y657516D1*
X3571798Y658354D1*
X3571353Y659257D1*
X3571029Y660211D1*
X3570832Y661199D1*
X3570766Y662205D1*
X3570832Y663210D1*
X3571029Y664198D1*
X3571353Y665152D1*
X3571798Y666056D1*
X3572358Y666893D1*
X3573022Y667651D1*
X3573780Y668315D1*
X3574617Y668875D1*
X3575521Y669321D1*
X3576475Y669644D1*
X3577463Y669841D1*
X3578468Y669907D1*
X3578495D1*
G37*
X3489232Y661165D2*
D10*
Y920996D1*
X3378996Y661165D2*
Y920996D1*
X3489232D2*
X3378996D1*
X3489232Y661165D2*
X3378996D1*
X565142Y1793513D2*
X872260D1*
X565142Y1919484D2*
X872260D1*
Y1793513D2*
Y1919484D1*
X565142Y1793513D2*
Y1836810D1*
Y1876188D2*
Y1919484D1*
Y1836810D2*
G03X565142Y1876188I-3J19689D01*
G01*
X1215142Y1793513D2*
X1522260D1*
X1215142Y1919484D2*
X1522260D1*
Y1793513D2*
Y1919484D1*
X1215142Y1793513D2*
Y1836810D1*
Y1876188D2*
Y1919484D1*
Y1836810D2*
G03X1215142Y1876188I-3J19689D01*
G01*
X1865142Y1793513D2*
X2172260D1*
X1865142Y1919484D2*
X2172260D1*
Y1793513D2*
Y1919484D1*
X1865142Y1793513D2*
Y1836810D1*
Y1876188D2*
Y1919484D1*
Y1836810D2*
G03X1865142Y1876188I-3J19689D01*
G01*
X2515142Y1793513D2*
X2822260D1*
X2515142Y1919484D2*
X2822260D1*
Y1793513D2*
Y1919484D1*
X2515142Y1793513D2*
Y1836810D1*
Y1876188D2*
Y1919484D1*
Y1836810D2*
G03X2515142Y1876188I-3J19689D01*
G01*
X3165140Y1793513D2*
X3472259D1*
X3165140Y1919484D2*
X3472259D1*
Y1793513D2*
Y1919484D1*
X3165140Y1793513D2*
Y1836810D1*
Y1876188D2*
Y1919484D1*
Y1836810D2*
G03X3165140Y1876188I-3J19689D01*
G01*
X2084647Y1043211D2*
D36*
Y944786D1*
X2202757D1*
Y1043211D1*
X2084647D1*
X850095Y973178D2*
D82*
X848194Y976980D1*
X844347Y980827D1*
X840544Y982728D1*
X832895D1*
X829048Y980827D1*
X825246Y976980D1*
X823300Y973178D1*
X821399Y967430D1*
Y957835D1*
X823300Y952131D1*
X825246Y948284D1*
X829048Y944482D1*
X832895Y942536D1*
X840544D1*
X844347Y944482D1*
X848194Y948284D1*
X850095Y952131D1*
X862446Y982728D2*
Y942536D1*
X879690D1*
X885438Y944482D1*
X887340Y946383D1*
X889241Y950186D1*
Y955934D1*
X887340Y959780D1*
X885438Y961682D1*
X879690Y963583D1*
X885438Y965528D1*
X887340Y967430D1*
X889241Y971232D1*
Y975079D1*
X887340Y978882D1*
X885438Y980827D1*
X879690Y982728D1*
X862446D1*
Y963583D2*
X879690D1*
X951969Y982728D2*
X948122Y980827D1*
X944320Y976980D1*
X942374Y973178D1*
X940473Y967430D1*
Y957835D1*
X942374Y952131D1*
X944320Y948284D1*
X948122Y944482D1*
X951969Y942536D1*
X959618D1*
X963421Y944482D1*
X967268Y948284D1*
X969169Y952131D1*
X971070Y957835D1*
Y967430D1*
X969169Y973178D1*
X967268Y976980D1*
X963421Y980827D1*
X959618Y982728D1*
X951969D1*
X1008271D2*
X983422D1*
Y942536D1*
X1008271D1*
X983422Y963583D2*
X998720D1*
X940473Y993207D2*
X1020622D1*
X832820Y2433381D2*
X830918Y2437184D1*
X827071Y2441030D1*
X823269Y2442932D1*
X815620D1*
X811773Y2441030D1*
X807970Y2437184D1*
X806025Y2433381D1*
X804124Y2427633D1*
Y2418038D1*
X806025Y2412335D1*
X807970Y2408488D1*
X811773Y2404685D1*
X815620Y2402740D1*
X823269D1*
X827071Y2404685D1*
X830918Y2408488D1*
X832820Y2412335D1*
X845171Y2421885D2*
X862415D1*
X868119Y2423786D1*
X870064Y2425732D1*
X871966Y2429534D1*
Y2435282D1*
X870064Y2439085D1*
X868119Y2441030D1*
X862415Y2442932D1*
X845171D1*
Y2402740D1*
X884317Y2442932D2*
Y2414236D1*
X886218Y2408488D1*
X890065Y2404685D1*
X895813Y2402740D1*
X899616D1*
X905364Y2404685D1*
X909210Y2408488D1*
X911112Y2414236D1*
Y2442932D1*
X923463Y2402740D2*
X950258Y2442888D1*
X962609Y2421885D2*
X979853D1*
X985557Y2423786D1*
X987503Y2425732D1*
X989404Y2429534D1*
Y2435282D1*
X987503Y2439085D1*
X985557Y2441030D1*
X979853Y2442932D1*
X962609D1*
Y2402740D1*
X1001755Y2423786D2*
X1018955D1*
X1024703Y2425732D1*
X1026649Y2427633D1*
X1028550Y2431436D1*
Y2435282D1*
X1026649Y2439085D1*
X1024703Y2441030D1*
X1018955Y2442932D1*
X1001755D1*
Y2402740D1*
X1015153Y2423786D2*
X1028550Y2402740D1*
X1069597Y2433381D2*
X1067696Y2437184D1*
X1063849Y2441030D1*
X1060047Y2442932D1*
X1052397D1*
X1048551Y2441030D1*
X1044748Y2437184D1*
X1042803Y2433381D1*
X1040901Y2427633D1*
Y2418038D1*
X1042803Y2412335D1*
X1044748Y2408488D1*
X1048551Y2404685D1*
X1052397Y2402740D1*
X1060047D1*
X1063849Y2404685D1*
X1067696Y2408488D1*
X1069597Y2412335D1*
Y2418038D1*
X1060047D1*
X696789Y2357582D2*
X713989D1*
X719737Y2359528D1*
X721682Y2361429D1*
X723583Y2365231D1*
Y2369078D1*
X721682Y2372881D1*
X719737Y2374826D1*
X713989Y2376728D1*
X696789D1*
Y2336536D1*
X710186Y2357582D2*
X723583Y2336536D1*
X760784Y2376728D2*
X735935D1*
Y2336536D1*
X760784D1*
X735935Y2357582D2*
X751233D1*
X803777Y2336536D2*
X788434Y2376728D1*
X773135Y2336536D1*
X778883Y2349933D2*
X798029D1*
X816128Y2376728D2*
Y2336536D1*
X829525D1*
X835273Y2338481D1*
X839120Y2342284D1*
X841022Y2346130D1*
X842923Y2351834D1*
Y2361429D1*
X841022Y2367177D1*
X839120Y2370979D1*
X835273Y2374826D1*
X829525Y2376728D1*
X816128D1*
X1010797D2*
X1020392Y2336536D1*
X1029943Y2376728D1*
X1039493Y2336536D1*
X1049088Y2376728D1*
X1061439Y2357582D2*
X1078639D1*
X1084387Y2359528D1*
X1086333Y2361429D1*
X1088234Y2365231D1*
Y2369078D1*
X1086333Y2372881D1*
X1084387Y2374826D1*
X1078639Y2376728D1*
X1061439D1*
Y2336536D1*
X1074837Y2357582D2*
X1088234Y2336536D1*
X1100585Y2376728D2*
Y2336536D1*
X1126334Y2376728D2*
Y2336536D1*
X1112937Y2376728D2*
X1139732D1*
X1176932D2*
X1152083D1*
Y2336536D1*
X1176932D1*
X1152083Y2357582D2*
X1167382D1*
X3030074Y2421885D2*
X3047318D1*
X3053022Y2423786D1*
X3054968Y2425732D1*
X3056869Y2429534D1*
Y2435282D1*
X3054968Y2439085D1*
X3053022Y2441030D1*
X3047318Y2442932D1*
X3030074D1*
Y2402740D1*
X3069220Y2421885D2*
X3086464D1*
X3092168Y2423786D1*
X3094114Y2425732D1*
X3096015Y2429534D1*
Y2435282D1*
X3094114Y2439085D1*
X3092168Y2441030D1*
X3086464Y2442932D1*
X3069220D1*
Y2402740D1*
X3108366Y2442932D2*
Y2414236D1*
X3110268Y2408488D1*
X3114114Y2404685D1*
X3119862Y2402740D1*
X3123665D1*
X3129413Y2404685D1*
X3133260Y2408488D1*
X3135161Y2414236D1*
Y2442932D1*
X3147512Y2402740D2*
X3174307Y2442888D1*
X3215354Y2433381D2*
X3213453Y2437184D1*
X3209606Y2441030D1*
X3205804Y2442932D1*
X3198155D1*
X3194308Y2441030D1*
X3190505Y2437184D1*
X3188560Y2433381D1*
X3186658Y2427633D1*
Y2418038D1*
X3188560Y2412335D1*
X3190505Y2408488D1*
X3194308Y2404685D1*
X3198155Y2402740D1*
X3205804D1*
X3209606Y2404685D1*
X3213453Y2408488D1*
X3215354Y2412335D1*
X3227706Y2442932D2*
Y2402740D1*
X3254500Y2442932D2*
Y2402740D1*
X3227706Y2423786D2*
X3254500D1*
X3266852D2*
X3284052D1*
X3289800Y2425732D1*
X3291745Y2427633D1*
X3293647Y2431436D1*
Y2435282D1*
X3291745Y2439085D1*
X3289800Y2441030D1*
X3284052Y2442932D1*
X3266852D1*
Y2402740D1*
X3280249Y2423786D2*
X3293647Y2402740D1*
X2921789Y2357582D2*
X2938989D1*
X2944737Y2359528D1*
X2946682Y2361429D1*
X2948583Y2365231D1*
Y2369078D1*
X2946682Y2372881D1*
X2944737Y2374826D1*
X2938989Y2376728D1*
X2921789D1*
Y2336536D1*
X2935186Y2357582D2*
X2948583Y2336536D1*
X2985784Y2376728D2*
X2960935D1*
Y2336536D1*
X2985784D1*
X2960935Y2357582D2*
X2976233D1*
X3028777Y2336536D2*
X3013434Y2376728D1*
X2998135Y2336536D1*
X3003883Y2349933D2*
X3023029D1*
X3041128Y2376728D2*
Y2336536D1*
X3054525D1*
X3060273Y2338481D1*
X3064120Y2342284D1*
X3066022Y2346130D1*
X3067923Y2351834D1*
Y2361429D1*
X3066022Y2367177D1*
X3064120Y2370979D1*
X3060273Y2374826D1*
X3054525Y2376728D1*
X3041128D1*
X3235797D2*
X3245392Y2336536D1*
X3254943Y2376728D1*
X3264493Y2336536D1*
X3274088Y2376728D1*
X3286439Y2357582D2*
X3303639D1*
X3309387Y2359528D1*
X3311333Y2361429D1*
X3313234Y2365231D1*
Y2369078D1*
X3311333Y2372881D1*
X3309387Y2374826D1*
X3303639Y2376728D1*
X3286439D1*
Y2336536D1*
X3299837Y2357582D2*
X3313234Y2336536D1*
X3325585Y2376728D2*
Y2336536D1*
X3351334Y2376728D2*
Y2336536D1*
X3337937Y2376728D2*
X3364732D1*
X3401932D2*
X3377083D1*
Y2336536D1*
X3401932D1*
X3377083Y2357582D2*
X3392382D1*
X642363Y2988973D2*
D83*
X639511Y2994677D1*
X633741Y3000447D1*
X628037Y3003299D1*
X616564D1*
X610793Y3000447D1*
X605090Y2994677D1*
X602171Y2988973D1*
X599319Y2980351D1*
Y2965959D1*
X602171Y2957403D1*
X605090Y2951633D1*
X610793Y2945929D1*
X616564Y2943011D1*
X628037D1*
X633741Y2945929D1*
X639511Y2951633D1*
X642363Y2957403D1*
X660890Y3003299D2*
Y2943011D1*
X695312D1*
X713839Y3003299D2*
Y2960255D1*
X716691Y2951633D1*
X722461Y2945929D1*
X731084Y2943011D1*
X736787D1*
X745409Y2945929D1*
X751180Y2951633D1*
X754031Y2960255D1*
Y3003299D1*
X812751Y2994677D2*
X807047Y3000447D1*
X798425Y3003299D1*
X786951D1*
X778329Y3000447D1*
X772559Y2994677D1*
Y2988973D1*
X775477Y2983203D1*
X778329Y2980351D1*
X784032Y2977499D1*
X801277Y2971729D1*
X807047Y2968877D1*
X809899Y2965959D1*
X812751Y2960255D1*
Y2951633D1*
X807047Y2945929D1*
X798425Y2943011D1*
X786951D1*
X778329Y2945929D1*
X772559Y2951633D1*
X851374Y3003299D2*
Y2943011D1*
X831278Y3003299D2*
X871470D1*
X927270D2*
X889997D1*
Y2943011D1*
X927270D1*
X889997Y2974581D2*
X912945D1*
X945798D2*
X971597D1*
X980219Y2977499D1*
X983138Y2980351D1*
X985990Y2986055D1*
Y2991825D1*
X983138Y2997529D1*
X980219Y3000447D1*
X971597Y3003299D1*
X945798D1*
Y2943011D1*
X965894Y2974581D2*
X985990Y2943011D1*
X1004517Y2974581D2*
X1030316D1*
X1038939Y2977499D1*
X1041857Y2980351D1*
X1044709Y2986055D1*
Y2991825D1*
X1041857Y2997529D1*
X1038939Y3000447D1*
X1030316Y3003299D1*
X1004517D1*
Y2943011D1*
X1024613Y2974581D2*
X1044709Y2943011D1*
X1063236Y2974581D2*
X1089036D1*
X1097658Y2977499D1*
X1100576Y2980351D1*
X1103428Y2986055D1*
Y2991825D1*
X1100576Y2997529D1*
X1097658Y3000447D1*
X1089036Y3003299D1*
X1063236D1*
Y2943011D1*
X1083332Y2974581D2*
X1103428Y2943011D1*
X1124807Y2948781D2*
X1121955Y2945863D1*
X1124807Y2943011D1*
X1127725Y2945863D1*
X1124807Y2948781D1*
X1189296Y2988973D2*
X1186444Y2994677D1*
X1180674Y3000447D1*
X1174970Y3003299D1*
X1163496D1*
X1157726Y3000447D1*
X1152022Y2994677D1*
X1149104Y2988973D1*
X1146252Y2980351D1*
Y2965959D1*
X1149104Y2957403D1*
X1152022Y2951633D1*
X1157726Y2945929D1*
X1163496Y2943011D1*
X1174970D1*
X1180674Y2945929D1*
X1186444Y2951633D1*
X1189296Y2957403D1*
X1225067Y3003299D2*
X1219297Y3000447D1*
X1213593Y2994677D1*
X1210675Y2988973D1*
X1207823Y2980351D1*
Y2965959D1*
X1210675Y2957403D1*
X1213593Y2951633D1*
X1219297Y2945929D1*
X1225067Y2943011D1*
X1236541D1*
X1242245Y2945929D1*
X1248015Y2951633D1*
X1250867Y2957403D1*
X1253719Y2965959D1*
Y2980351D1*
X1250867Y2988973D1*
X1248015Y2994677D1*
X1242245Y3000447D1*
X1236541Y3003299D1*
X1225067D1*
X1318142Y2943011D2*
Y3003299D1*
X1295194Y2943011D1*
X1272246Y3003299D1*
Y2943011D1*
X1312163Y2248115D2*
D84*
X1262376D1*
Y2167731D1*
Y2209825D2*
X1292974D1*
X1398149Y2167731D2*
X1367463Y2248115D1*
X1336866Y2167731D1*
X1348362Y2194526D2*
X1386653D1*
X1484046Y2167731D2*
Y2248115D1*
X1453449Y2167731D1*
X1422852Y2248115D1*
Y2167731D1*
X1508749Y2248115D2*
Y2167731D1*
X1590844Y2229014D2*
X1587041Y2236619D1*
X1579348Y2244313D1*
X1571742Y2248115D1*
X1556444D1*
X1548750Y2244313D1*
X1541145Y2236619D1*
X1537254Y2229014D1*
X1533452Y2217518D1*
Y2198329D1*
X1537254Y2186921D1*
X1541145Y2179227D1*
X1548750Y2171622D1*
X1556444Y2167731D1*
X1571742D1*
X1579348Y2171622D1*
X1587041Y2179227D1*
X1590844Y2186921D1*
X1638539Y2248115D2*
X1630845Y2244313D1*
X1623240Y2236619D1*
X1619349Y2229014D1*
X1615546Y2217518D1*
Y2198329D1*
X1619349Y2186921D1*
X1623240Y2179227D1*
X1630845Y2171622D1*
X1638539Y2167731D1*
X1653837D1*
X1661442Y2171622D1*
X1669136Y2179227D1*
X1672938Y2186921D1*
X1676741Y2198329D1*
Y2217518D1*
X1672938Y2229014D1*
X1669136Y2236619D1*
X1661442Y2244313D1*
X1653837Y2248115D1*
X1638539D1*
X1762638Y2167731D2*
Y2248115D1*
X1732041Y2167731D1*
X1701444Y2248115D1*
Y2167731D1*
X1865102Y2248115D2*
Y2167731D1*
X1891897D1*
X1903393Y2171622D1*
X1911087Y2179227D1*
X1914889Y2186921D1*
X1918692Y2198329D1*
Y2217518D1*
X1914889Y2229014D1*
X1911087Y2236619D1*
X1903393Y2244313D1*
X1891897Y2248115D1*
X1865102D1*
X1943395D2*
Y2190724D1*
X1947197Y2179227D1*
X1954891Y2171622D1*
X1966387Y2167731D1*
X1973992D1*
X1985488Y2171622D1*
X1993181Y2179227D1*
X1996984Y2190724D1*
Y2248115D1*
X2082881Y2167731D2*
Y2248115D1*
X2052284Y2167731D1*
X2021687Y2248115D1*
Y2167731D1*
X2107584Y2206022D2*
X2142072D1*
X2153480Y2209825D1*
X2157371Y2213716D1*
X2161173Y2221321D1*
Y2232817D1*
X2157371Y2240422D1*
X2153480Y2244313D1*
X2142072Y2248115D1*
X2107584D1*
Y2167731D1*
X2235574Y2248115D2*
X2185876D1*
Y2167731D1*
X2235574D1*
X2185876Y2209825D2*
X2216473D1*
X2260277D2*
X2294677D1*
X2306173Y2213716D1*
X2310064Y2217518D1*
X2313867Y2225123D1*
Y2232817D1*
X2310064Y2240422D1*
X2306173Y2244313D1*
X2294677Y2248115D1*
X2260277D1*
Y2167731D1*
X2287072Y2209825D2*
X2313867Y2167731D1*
X2338569D2*
X2392159Y2248027D1*
X2416861Y2248115D2*
X2436051Y2167731D1*
X2455152Y2248115D1*
X2474253Y2167731D1*
X2493443Y2248115D1*
X2518146Y2209825D2*
X2552545D1*
X2564042Y2213716D1*
X2567933Y2217518D1*
X2571735Y2225123D1*
Y2232817D1*
X2567933Y2240422D1*
X2564042Y2244313D1*
X2552545Y2248115D1*
X2518146D1*
Y2167731D1*
X2544940Y2209825D2*
X2571735Y2167731D1*
X2596438Y2248115D2*
Y2167731D1*
X2647935Y2248115D2*
Y2167731D1*
X2621141Y2248115D2*
X2674730D1*
X2749131D2*
X2699433D1*
Y2167731D1*
X2749131D1*
X2699433Y2209825D2*
X2730030D1*
X2773834D2*
X2808234D1*
X2819730Y2213716D1*
X2823621Y2217518D1*
X2827423Y2225123D1*
Y2232817D1*
X2823621Y2240422D1*
X2819730Y2244313D1*
X2808234Y2248115D1*
X2773834D1*
Y2167731D1*
X2800629Y2209825D2*
X2827423Y2167731D1*
X3130221Y2973785D2*
D83*
X3156021D1*
X3164643Y2976703D1*
X3167561Y2979555D1*
X3170413Y2985258D1*
Y2991029D1*
X3167561Y2996732D1*
X3164643Y2999651D1*
X3156021Y3002503D1*
X3130221D1*
Y2942215D1*
X3150317Y2973785D2*
X3170413Y2942215D1*
X3226214Y3002503D2*
X3188940D1*
Y2942215D1*
X3226214D1*
X3188940Y2973785D2*
X3211888D1*
X3244741Y3002503D2*
X3267689Y2942215D1*
X3290637Y3002503D1*
X3312016Y2947985D2*
X3309164Y2945066D1*
X3312016Y2942215D1*
X3314934Y2945066D1*
X3312016Y2947985D1*
X3394701Y2988110D2*
Y2990962D1*
X3397552Y2996732D1*
X3400404Y2999584D1*
X3406174Y3002436D1*
X3417648D1*
X3423352Y2999584D1*
X3426204Y2996732D1*
X3429122Y2990962D1*
Y2985258D1*
X3426204Y2979488D1*
X3420500Y2970933D1*
X3391782Y2942215D1*
X3431974D1*
X3453353Y2947985D2*
X3450501Y2945066D1*
X3453353Y2942215D1*
X3456272Y2945066D1*
X3453353Y2947985D1*
X3474799Y2990962D2*
X3480569Y2993881D1*
X3489191Y3002436D1*
Y2942215D1*
X850095Y873179D2*
D82*
X848194Y876982D1*
X844347Y880828D1*
X840544Y882730D1*
X832895D1*
X829048Y880828D1*
X825246Y876982D1*
X823300Y873179D1*
X821399Y867431D1*
Y857836D1*
X823300Y852132D1*
X825246Y848286D1*
X829048Y844483D1*
X832895Y842538D1*
X840544D1*
X844347Y844483D1*
X848194Y848286D1*
X850095Y852132D1*
X862446Y882730D2*
Y842538D1*
X879690D1*
X885438Y844483D1*
X887340Y846384D1*
X889241Y850187D1*
Y855935D1*
X887340Y859782D1*
X885438Y861683D1*
X879690Y863584D1*
X885438Y865530D1*
X887340Y867431D1*
X889241Y871234D1*
Y875080D1*
X887340Y878883D1*
X885438Y880828D1*
X879690Y882730D1*
X862446D1*
Y863584D2*
X879690D1*
X940473Y882730D2*
X950068Y842538D1*
X959618Y882730D1*
X969169Y842538D1*
X978764Y882730D1*
X1015964D2*
X991115D1*
Y842538D1*
X1015964D1*
X991115Y863584D2*
X1006414D1*
X940473Y893209D2*
X1028316D1*
X2154170Y1162812D2*
D81*
X2151793Y1167566D1*
X2146985Y1172374D1*
X2142232Y1174751D1*
X2132670D1*
X2127862Y1172374D1*
X2123109Y1167566D1*
X2120677Y1162812D1*
X2118300Y1155627D1*
Y1143634D1*
X2120677Y1136504D1*
X2123109Y1131696D1*
X2127862Y1126942D1*
X2132670Y1124511D1*
X2142232D1*
X2146985Y1126942D1*
X2151793Y1131696D1*
X2154170Y1136504D1*
X2169609Y1165134D2*
X2174418Y1167566D1*
X2181603Y1174695D1*
Y1124511D1*
X1999669Y1044062D2*
X1997293Y1048815D1*
X1992484Y1053623D1*
X1987731Y1056000D1*
X1978170D1*
X1973361Y1053623D1*
X1968608Y1048815D1*
X1966176Y1044062D1*
X1963800Y1036877D1*
Y1024883D1*
X1966176Y1017753D1*
X1968608Y1012945D1*
X1973361Y1008192D1*
X1978170Y1005760D1*
X1987731D1*
X1992484Y1008192D1*
X1997293Y1012945D1*
X1999669Y1017753D1*
X2017541Y1044006D2*
Y1046383D1*
X2019917Y1051192D1*
X2022294Y1053568D1*
X2027102Y1055945D1*
X2036664D1*
X2041417Y1053568D1*
X2043794Y1051192D1*
X2046225Y1046383D1*
Y1041630D1*
X2043794Y1036821D1*
X2039040Y1029692D1*
X2015109Y1005760D1*
X2048602D1*
X3331482Y1012467D2*
X3326728Y1010091D1*
X3321920Y1005282D1*
X3319543Y1000529D1*
Y990968D1*
X3321920Y986159D1*
X3326728Y981406D1*
X3331482Y978974D1*
X3338667Y976597D1*
X3350660D1*
X3357790Y978974D1*
X3362598Y981406D1*
X3367351Y986159D1*
X3369783Y990968D1*
Y1000529D1*
X3367351Y1005282D1*
X3362598Y1010091D1*
X3357790Y1012467D1*
X3319599Y1032715D2*
Y1058968D1*
X3338722Y1044653D1*
Y1051838D1*
X3341098Y1056591D1*
X3343475Y1058968D1*
X3350660Y1061400D1*
X3355413D1*
X3362598Y1058968D1*
X3367407Y1054215D1*
X3369783Y1047030D1*
Y1039845D1*
X3367407Y1032715D1*
X3364975Y1030338D1*
X3360222Y1027907D1*
X3333352Y548779D2*
X3328598Y546402D1*
X3323790Y541594D1*
X3321413Y536841D1*
Y527279D1*
X3323790Y522471D1*
X3328598Y517718D1*
X3333352Y515286D1*
X3340537Y512909D1*
X3352530D1*
X3359660Y515286D1*
X3364468Y517718D1*
X3369222Y522471D1*
X3371653Y527279D1*
Y536841D1*
X3369222Y541594D1*
X3364468Y546402D1*
X3359660Y548779D1*
X3371653Y588150D2*
X3321469D1*
X3354907Y564218D1*
Y600088D1*
X590212Y2128651D2*
Y2078411D1*
X606958D1*
X614143Y2080843D1*
X618952Y2085596D1*
X621328Y2090404D1*
X623705Y2097534D1*
Y2109528D1*
X621328Y2116713D1*
X618952Y2121466D1*
X614143Y2126274D1*
X606958Y2128651D1*
X590212D1*
X639144Y2119034D2*
X643953Y2121466D1*
X651138Y2128596D1*
Y2078411D1*
X899858Y2128769D2*
Y2078529D1*
X916605D1*
X923790Y2080961D1*
X928598Y2085714D1*
X930975Y2090522D1*
X933351Y2097652D1*
Y2109646D1*
X930975Y2116831D1*
X928598Y2121584D1*
X923790Y2126392D1*
X916605Y2128769D1*
X899858D1*
X951222Y2116776D2*
Y2119152D1*
X953599Y2123961D1*
X955976Y2126337D1*
X960784Y2128714D1*
X970346D1*
X975099Y2126337D1*
X977475Y2123961D1*
X979907Y2119152D1*
Y2114399D1*
X977475Y2109590D1*
X972722Y2102461D1*
X948790Y2078529D1*
X982284D1*
X2798740Y2125167D2*
Y2074927D1*
X2815486D1*
X2822672Y2077358D1*
X2827480Y2082112D1*
X2829857Y2086920D1*
X2832233Y2094050D1*
Y2106043D1*
X2829857Y2113228D1*
X2827480Y2117982D1*
X2822672Y2122790D1*
X2815486Y2125167D1*
X2798740D1*
X2852481Y2125111D2*
X2878734D1*
X2864419Y2105988D1*
X2871604D1*
X2876357Y2103612D1*
X2878734Y2101235D1*
X2881166Y2094050D1*
Y2089297D1*
X2878734Y2082112D1*
X2873981Y2077303D1*
X2866796Y2074927D1*
X2859611D1*
X2852481Y2077303D1*
X2850104Y2079735D1*
X2847672Y2084488D1*
X3129919Y2126970D2*
Y2076730D1*
X3146666D1*
X3153851Y2079162D1*
X3158659Y2083915D1*
X3161036Y2088723D1*
X3163412Y2095853D1*
Y2107847D1*
X3161036Y2115032D1*
X3158659Y2119785D1*
X3153851Y2124593D1*
X3146666Y2126970D1*
X3129919D1*
X3202783Y2076730D2*
Y2126915D1*
X3178852Y2093476D1*
X3214721D1*
X1772206Y656423D2*
Y606183D1*
X1788952D1*
X1796137Y608614D1*
X1800946Y613368D1*
X1803322Y618176D1*
X1805699Y625306D1*
Y637299D1*
X1803322Y644484D1*
X1800946Y649238D1*
X1796137Y654046D1*
X1788952Y656423D1*
X1772206D1*
X1849823Y656367D2*
X1825947D1*
X1823570Y634867D1*
X1825947Y637244D1*
X1833132Y639676D1*
X1840262D1*
X1847447Y637244D1*
X1852255Y632491D1*
X1854632Y625306D1*
Y620553D1*
X1852255Y613368D1*
X1847447Y608559D1*
X1840262Y606183D1*
X1833132D1*
X1825947Y608559D1*
X1823570Y610991D1*
X1821138Y615744D1*
X1908523Y2482762D2*
D84*
X1858736D1*
Y2402378D1*
Y2444472D2*
X1889333D1*
X1933226D2*
X1967625D1*
X1979121Y2448363D1*
X1983012Y2452165D1*
X1986815Y2459770D1*
Y2467464D1*
X1983012Y2475069D1*
X1979121Y2478960D1*
X1967625Y2482762D1*
X1933226D1*
Y2402378D1*
X1960020Y2444472D2*
X1986815Y2402378D1*
X2034510Y2482762D2*
X2026816Y2478960D1*
X2019211Y2471266D1*
X2015320Y2463661D1*
X2011518Y2452165D1*
Y2432976D1*
X2015320Y2421568D1*
X2019211Y2413874D1*
X2026816Y2406269D1*
X2034510Y2402378D1*
X2049809D1*
X2057414Y2406269D1*
X2065107Y2413874D1*
X2068910Y2421568D1*
X2072712Y2432976D1*
Y2452165D1*
X2068910Y2463661D1*
X2065107Y2471266D1*
X2057414Y2478960D1*
X2049809Y2482762D1*
X2034510D1*
X2151004D2*
Y2402378D1*
X2097415Y2482762D1*
Y2402378D1*
X2202502Y2482762D2*
Y2402378D1*
X2175707Y2482762D2*
X2229296D1*
X1891409Y3008555D2*
Y2928171D1*
X1925897D1*
X1937394Y2932062D1*
X1941196Y2935865D1*
X1944999Y2943470D1*
Y2954966D1*
X1941196Y2962659D1*
X1937394Y2966462D1*
X1925897Y2970264D1*
X1937394Y2974155D1*
X1941196Y2977958D1*
X1944999Y2985563D1*
Y2993256D1*
X1941196Y3000862D1*
X1937394Y3004753D1*
X1925897Y3008555D1*
X1891409D1*
Y2970264D2*
X1925897D1*
X2030984Y2928171D2*
X2000299Y3008555D1*
X1969701Y2928171D1*
X1981197Y2954966D2*
X2019488D1*
X2113079Y2989454D2*
X2109276Y2997059D1*
X2101583Y3004753D1*
X2093978Y3008555D1*
X2078679D1*
X2070986Y3004753D1*
X2063381Y2997059D1*
X2059490Y2989454D1*
X2055687Y2977958D1*
Y2958768D1*
X2059490Y2947361D1*
X2063381Y2939667D1*
X2070986Y2932062D1*
X2078679Y2928171D1*
X2093978D1*
X2101583Y2932062D1*
X2109276Y2939667D1*
X2113079Y2947361D1*
X2137782Y3008555D2*
Y2928171D1*
X2191371Y3008555D2*
X2137782Y2954966D1*
X2156883Y2974155D2*
X2191371Y2928171D1*
X3603566Y2492241D2*
D81*
Y2453995D1*
X3601189Y2446810D1*
X3598757Y2444433D1*
X3594004Y2442001D1*
X3589196D1*
X3584443Y2444433D1*
X3582066Y2446810D1*
X3579634Y2453995D1*
Y2458748D1*
X3619005Y2482625D2*
X3623813Y2485056D1*
X3630999Y2492186D1*
Y2442001D1*
X3518160Y1605900D2*
Y1567654D1*
X3515783Y1560469D1*
X3513351Y1558092D1*
X3508598Y1555660D1*
X3503790D1*
X3499036Y1558092D1*
X3496660Y1560469D1*
X3494228Y1567654D1*
Y1572407D1*
X3536031Y1593907D2*
Y1596283D1*
X3538407Y1601092D1*
X3540784Y1603468D1*
X3545592Y1605845D1*
X3555154D1*
X3559907Y1603468D1*
X3562284Y1601092D1*
X3564716Y1596283D1*
Y1591530D1*
X3562284Y1586722D1*
X3557531Y1579592D1*
X3533599Y1555660D1*
X3567092D1*
X745028Y1087545D2*
Y1049298D1*
X742652Y1042113D1*
X740220Y1039736D1*
X735467Y1037305D1*
X730658D1*
X725905Y1039736D1*
X723529Y1042113D1*
X721097Y1049298D1*
Y1054051D1*
X765276Y1087489D2*
X791529D1*
X777214Y1068366D1*
X784399D1*
X789153Y1065989D1*
X791529Y1063613D1*
X793961Y1056428D1*
Y1051675D1*
X791529Y1044490D1*
X786776Y1039681D1*
X779591Y1037305D1*
X772406D1*
X765276Y1039681D1*
X762900Y1042113D1*
X760468Y1046866D1*
X1614415Y528521D2*
Y490274D1*
X1612038Y483089D1*
X1609606Y480713D1*
X1604853Y478281D1*
X1600045D1*
X1595292Y480713D1*
X1592915Y483089D1*
X1590483Y490274D1*
Y495028D1*
X1653786Y478281D2*
Y528466D1*
X1629854Y495028D1*
X1665724D1*
X3095473Y528465D2*
Y490218D1*
X3093097Y483033D1*
X3090665Y480656D1*
X3085912Y478225D1*
X3081103D1*
X3076350Y480656D1*
X3073973Y483033D1*
X3071542Y490218D1*
Y494971D1*
X3139597Y528409D2*
X3115721D1*
X3113344Y506909D1*
X3115721Y509286D1*
X3122906Y511718D1*
X3130036D1*
X3137221Y509286D1*
X3142029Y504533D1*
X3144406Y497348D1*
Y492595D1*
X3142029Y485410D1*
X3137221Y480601D1*
X3130036Y478225D1*
X3122906D1*
X3115721Y480601D1*
X3113344Y483033D1*
X3110913Y487786D1*
X2288238Y569570D2*
X2309738D1*
X2316923Y572001D1*
X2319354Y574378D1*
X2321731Y579131D1*
Y583940D1*
X2319354Y588693D1*
X2316923Y591125D1*
X2309738Y593501D1*
X2288238D1*
Y543261D1*
X2304984Y569570D2*
X2321731Y543261D1*
X2337170Y583884D2*
X2341979Y586316D1*
X2349164Y593446D1*
Y543261D1*
X3251819Y1421000D2*
X3273318D1*
X3280503Y1423432D1*
X3282935Y1425808D1*
X3285312Y1430562D1*
Y1435370D1*
X3282935Y1440123D1*
X3280503Y1442555D1*
X3273318Y1444932D1*
X3251819D1*
Y1394692D1*
X3268565Y1421000D2*
X3285312Y1394692D1*
X3303183Y1432938D2*
Y1435315D1*
X3305560Y1440123D1*
X3307936Y1442500D1*
X3312745Y1444876D1*
X3322306D1*
X3327059Y1442500D1*
X3329436Y1440123D1*
X3331868Y1435315D1*
Y1430562D1*
X3329436Y1425753D1*
X3324683Y1418623D1*
X3300751Y1394692D1*
X3334244D1*
X3254487Y1268185D2*
X3275986D1*
X3283171Y1270617D1*
X3285603Y1272994D1*
X3287980Y1277747D1*
Y1282555D1*
X3285603Y1287308D1*
X3283171Y1289740D1*
X3275986Y1292117D1*
X3254487D1*
Y1241877D1*
X3271233Y1268185D2*
X3287980Y1241877D1*
X3308228Y1292062D2*
X3334481D1*
X3320166Y1272938D1*
X3327351D1*
X3332104Y1270562D1*
X3334481Y1268185D1*
X3336912Y1261000D1*
Y1256247D1*
X3334481Y1249062D1*
X3329727Y1244253D1*
X3322542Y1241877D1*
X3315357D1*
X3308228Y1244253D1*
X3305851Y1246685D1*
X3303419Y1251438D1*
X3252452Y1533976D2*
X3273952D1*
X3281137Y1536408D1*
X3283569Y1538785D1*
X3285945Y1543538D1*
Y1548346D1*
X3283569Y1553100D1*
X3281137Y1555532D1*
X3273952Y1557908D1*
X3252452D1*
Y1507668D1*
X3269198Y1533976D2*
X3285945Y1507668D1*
X3325316D2*
Y1557853D1*
X3301384Y1524415D1*
X3337254D1*
X564231Y1261518D2*
Y1283018D1*
X561799Y1290203D1*
X559422Y1292635D1*
X554669Y1295011D1*
X549861D1*
X545108Y1292635D1*
X542676Y1290203D1*
X540299Y1283018D1*
Y1261518D1*
X590539D1*
X564231Y1278265D2*
X590539Y1295011D1*
X540355Y1339135D2*
Y1315259D1*
X561854Y1312882D1*
X559478Y1315259D1*
X557046Y1322444D1*
Y1329574D1*
X559478Y1336759D1*
X564231Y1341567D1*
X571416Y1343944D1*
X576169D1*
X583354Y1341567D1*
X588163Y1336759D1*
X590539Y1329574D1*
Y1322444D1*
X588163Y1315259D1*
X585731Y1312882D1*
X580978Y1310451D1*
X638678Y1261082D2*
Y1282582D1*
X636247Y1289767D1*
X633870Y1292198D1*
X629117Y1294575D1*
X624308D1*
X619555Y1292198D1*
X617123Y1289767D1*
X614747Y1282582D1*
Y1261082D1*
X664987D1*
X638678Y1277828D2*
X664987Y1294575D1*
X621932Y1338699D2*
X617179Y1336323D1*
X614802Y1329138D1*
Y1324384D1*
X617179Y1317199D1*
X624364Y1312391D1*
X636302Y1310014D1*
X648240D1*
X657802Y1312391D1*
X662610Y1317199D1*
X664987Y1324384D1*
Y1326761D1*
X662610Y1333891D1*
X657802Y1338699D1*
X650617Y1341076D1*
X648240D1*
X641055Y1338699D1*
X636302Y1333891D1*
X633925Y1326761D1*
Y1324384D1*
X636302Y1317199D1*
X641055Y1312391D1*
X648240Y1310014D1*
X715331Y1259316D2*
Y1280816D1*
X712899Y1288001D1*
X710522Y1290433D1*
X705769Y1292809D1*
X700961D1*
X696207Y1290433D1*
X693776Y1288001D1*
X691399Y1280816D1*
Y1259316D1*
X741639D1*
X715331Y1276063D2*
X741639Y1292809D1*
Y1317810D2*
X691454Y1341742D1*
Y1308248D1*
X794409Y1256916D2*
Y1278416D1*
X791978Y1285601D1*
X789601Y1288032D1*
X784848Y1290409D1*
X780039D1*
X775286Y1288032D1*
X772854Y1285601D1*
X770478Y1278416D1*
Y1256916D1*
X820718D1*
X794409Y1273662D2*
X820718Y1290409D1*
X770533Y1317787D2*
X772910Y1310657D1*
X777663Y1308225D1*
X782471D1*
X787224Y1310657D1*
X789656Y1315410D1*
X792033Y1324972D1*
X794409Y1332157D1*
X799218Y1336910D1*
X803971Y1339286D1*
X811156D1*
X815909Y1336910D1*
X818341Y1334533D1*
X820718Y1327348D1*
Y1317787D1*
X818341Y1310657D1*
X815909Y1308225D1*
X811156Y1305848D1*
X803971D1*
X799218Y1308225D1*
X794409Y1313033D1*
X792033Y1320163D1*
X789656Y1329725D1*
X787224Y1334533D1*
X782471Y1336910D1*
X777663D1*
X772910Y1334533D1*
X770533Y1327348D1*
Y1317787D1*
X2712861Y1613870D2*
Y1578000D1*
X2715238Y1570815D1*
X2720046Y1566062D1*
X2727231Y1563630D1*
X2731984D1*
X2739169Y1566062D1*
X2743978Y1570815D1*
X2746354Y1578000D1*
Y1613870D1*
X2761794Y1604253D2*
X2766602Y1606685D1*
X2773787Y1613815D1*
Y1563630D1*
X1252485Y1360329D2*
Y1324459D1*
X1254862Y1317274D1*
X1259670Y1312521D1*
X1266855Y1310089D1*
X1271608D1*
X1278794Y1312521D1*
X1283602Y1317274D1*
X1285979Y1324459D1*
Y1360329D1*
X1303850Y1348336D2*
Y1350712D1*
X1306226Y1355521D1*
X1308603Y1357898D1*
X1313411Y1360274D1*
X1322973D1*
X1327726Y1357898D1*
X1330103Y1355521D1*
X1332535Y1350712D1*
Y1345959D1*
X1330103Y1341151D1*
X1325349Y1334021D1*
X1301418Y1310089D1*
X1334911D1*
X3273391Y619540D2*
X3309261D1*
X3316446Y621917D1*
X3321199Y626725D1*
X3323631Y633910D1*
Y638664D1*
X3321199Y645849D1*
X3316446Y650657D1*
X3309261Y653034D1*
X3273391D1*
X3273446Y673281D2*
Y699534D1*
X3292570Y685220D1*
Y692405D1*
X3294946Y697158D1*
X3297323Y699534D1*
X3304508Y701966D1*
X3309261D1*
X3316446Y699534D1*
X3321255Y694781D1*
X3323631Y687596D1*
Y680411D1*
X3321255Y673281D1*
X3318823Y670905D1*
X3314069Y668473D1*
X491919Y1814097D2*
X527789D1*
X534974Y1816474D1*
X539727Y1821282D1*
X542159Y1828468D1*
Y1833221D1*
X539727Y1840406D1*
X534974Y1845214D1*
X527789Y1847591D1*
X491919D1*
X542159Y1886962D2*
X491974D1*
X525412Y1863030D1*
Y1898900D1*
X1141919Y1815286D2*
X1177789D1*
X1184974Y1817662D1*
X1189727Y1822471D1*
X1192159Y1829656D1*
Y1834409D1*
X1189727Y1841594D1*
X1184974Y1846402D1*
X1177789Y1848779D1*
X1141919D1*
X1141974Y1892903D2*
Y1869027D1*
X1163474Y1866650D1*
X1161097Y1869027D1*
X1158665Y1876212D1*
Y1883342D1*
X1161097Y1890527D1*
X1165850Y1895335D1*
X1173035Y1897712D1*
X1177789D1*
X1184974Y1895335D1*
X1189782Y1890527D1*
X1192159Y1883342D1*
Y1876212D1*
X1189782Y1869027D1*
X1187350Y1866650D1*
X1182597Y1864218D1*
X1791919Y1816502D2*
X1827789D1*
X1834974Y1818878D1*
X1839727Y1823687D1*
X1842159Y1830872D1*
Y1835625D1*
X1839727Y1842810D1*
X1834974Y1847618D1*
X1827789Y1849995D1*
X1791919D1*
X1799104Y1894119D2*
X1794351Y1891743D1*
X1791974Y1884557D1*
Y1879804D1*
X1794351Y1872619D1*
X1801536Y1867811D1*
X1813474Y1865434D1*
X1825412D1*
X1834974Y1867811D1*
X1839782Y1872619D1*
X1842159Y1879804D1*
Y1882181D1*
X1839782Y1889311D1*
X1834974Y1894119D1*
X1827789Y1896496D1*
X1825412D1*
X1818227Y1894119D1*
X1813474Y1889311D1*
X1811097Y1882181D1*
Y1879804D1*
X1813474Y1872619D1*
X1818227Y1867811D1*
X1825412Y1865434D1*
X2441919Y1815286D2*
X2477789D1*
X2484974Y1817662D1*
X2489727Y1822471D1*
X2492159Y1829656D1*
Y1834409D1*
X2489727Y1841594D1*
X2484974Y1846402D1*
X2477789Y1848779D1*
X2441919D1*
X2492159Y1873780D2*
X2441974Y1897712D1*
Y1864218D1*
X3091917Y1815313D2*
X3127787D1*
X3134972Y1817690D1*
X3139725Y1822498D1*
X3142157Y1829683D1*
Y1834437D1*
X3139725Y1841622D1*
X3134972Y1846430D1*
X3127787Y1848807D1*
X3091917D1*
X3091973Y1876184D2*
X3094349Y1869054D1*
X3099102Y1866623D1*
X3103911D1*
X3108664Y1869054D1*
X3111096Y1873808D1*
X3113472Y1883369D1*
X3115849Y1890554D1*
X3120658Y1895307D1*
X3125411Y1897684D1*
X3132596D1*
X3137349Y1895307D1*
X3139781Y1892931D1*
X3142157Y1885746D1*
Y1876184D1*
X3139781Y1869054D1*
X3137349Y1866623D1*
X3132596Y1864246D1*
X3125411D1*
X3120658Y1866623D1*
X3115849Y1871431D1*
X3113472Y1878561D1*
X3111096Y1888122D1*
X3108664Y1892931D1*
X3103911Y1895307D1*
X3099102D1*
X3094349Y1892931D1*
X3091973Y1885746D1*
Y1876184D1*
X2107034Y928329D2*
X2126158Y904398D1*
Y878089D1*
X2145281Y928329D2*
X2126158Y904398D1*
X2160720Y918712D2*
X2165529Y921144D1*
X2172714Y928274D1*
Y878089D1*
M02*
