G04 DipTrace 4.0.0.5*
G04 TopSilk.gbr*
%MOIN*%
G04 #@! TF.FileFunction,Legend,Top*
G04 #@! TF.Part,Single*
%ADD10C,0.009843*%
%ADD13C,0.004724*%
%ADD36C,0.003937*%
%ADD79C,0.00772*%
%ADD80C,0.006176*%
%ADD81C,0.009264*%
%ADD82C,0.012351*%
%FSLAX26Y26*%
G04*
G70*
G90*
G75*
G01*
G04 TopSilk*
%LPD*%
X670276Y2149270D2*
D10*
Y2263727D1*
G02X670276Y2149270I98597J-57228D01*
G01*
X995276D2*
Y2263727D1*
G02X995276Y2149270I98597J-57228D01*
G01*
X2895276D2*
Y2263727D1*
G02X2895276Y2149270I98597J-57228D01*
G01*
X3220276D2*
Y2263727D1*
G02X3220276Y2149270I98597J-57228D01*
G01*
X1875097Y569558D2*
Y693440D1*
Y569558D2*
G03X1875097Y693440I170181J61941D01*
G01*
X3675774Y2894018D2*
Y2518974D1*
X3594608Y2756528D2*
Y2656465D1*
X416087Y2891483D2*
Y2521509D1*
X494971Y2756453D2*
Y2656539D1*
X3675774Y2518974D2*
X419672D1*
X3675774Y2894018D2*
X419672D1*
X3594608Y2656465D2*
X494971Y2656539D1*
X3594608Y2756528D2*
X494971Y2756453D1*
X1568673Y456496D2*
Y556499D1*
X968728D1*
Y456496D1*
X1568673D1*
X843706Y1106480D2*
X743701D1*
Y806517D1*
X843706D1*
Y1106480D1*
X3043675Y456496D2*
Y556499D1*
X2443730D1*
Y456496D1*
X3043675D1*
X3696663Y1201757D2*
Y1511240D1*
X3577369Y1502160D2*
X3565937D1*
X3577369Y1210837D2*
X3565937D1*
X3696663D2*
X3674202D1*
X3696663Y1502160D2*
X3674202D1*
G36*
X3460423Y1297459D2*
X3459397Y1297527D1*
X3458388Y1297727D1*
X3457414Y1298058D1*
X3456491Y1298513D1*
X3455636Y1299084D1*
X3454862Y1299763D1*
X3454184Y1300536D1*
X3453613Y1301391D1*
X3453158Y1302314D1*
X3452827Y1303288D1*
X3452626Y1304297D1*
X3452559Y1305323D1*
X3452626Y1306350D1*
X3452827Y1307359D1*
X3453158Y1308333D1*
X3453613Y1309256D1*
X3454184Y1310111D1*
X3454862Y1310884D1*
X3455636Y1311563D1*
X3456491Y1312134D1*
X3457414Y1312589D1*
X3458388Y1312920D1*
X3459397Y1313120D1*
X3460423Y1313188D1*
X3460464D1*
X3461490Y1313120D1*
X3462499Y1312920D1*
X3463473Y1312589D1*
X3464396Y1312134D1*
X3465251Y1311563D1*
X3466025Y1310884D1*
X3466703Y1310111D1*
X3467274Y1309256D1*
X3467729Y1308333D1*
X3468060Y1307359D1*
X3468261Y1306350D1*
X3468328Y1305323D1*
X3468261Y1304297D1*
X3468060Y1303288D1*
X3467729Y1302314D1*
X3467274Y1301391D1*
X3466703Y1300536D1*
X3466025Y1299763D1*
X3465251Y1299084D1*
X3464396Y1298513D1*
X3463473Y1298058D1*
X3462499Y1297727D1*
X3461490Y1297527D1*
X3460464Y1297459D1*
X3460423D1*
G37*
X3720276Y1201757D2*
D10*
Y1511240D1*
X3696663Y1201757D2*
X3720276D1*
X3696663Y1511240D2*
X3720276D1*
X2369438Y1461867D2*
Y713915D1*
X3117210D1*
Y1461867D1*
X2369438D1*
G36*
X2322125Y1446202D2*
X2321103Y1446269D1*
X2320098Y1446469D1*
X2319128Y1446798D1*
X2318209Y1447251D1*
X2317357Y1447821D1*
X2316587Y1448496D1*
X2315911Y1449267D1*
X2315342Y1450118D1*
X2314889Y1451037D1*
X2314560Y1452008D1*
X2314360Y1453012D1*
X2314293Y1454035D1*
X2314360Y1455057D1*
X2314560Y1456062D1*
X2314889Y1457032D1*
X2315342Y1457951D1*
X2315911Y1458803D1*
X2316587Y1459573D1*
X2317357Y1460249D1*
X2318209Y1460818D1*
X2319128Y1461271D1*
X2320098Y1461601D1*
X2321103Y1461800D1*
X2322125Y1461867D1*
X2322216D1*
X2323238Y1461800D1*
X2324243Y1461601D1*
X2325213Y1461271D1*
X2326132Y1460818D1*
X2326984Y1460249D1*
X2327754Y1459573D1*
X2328430Y1458803D1*
X2328999Y1457951D1*
X2329452Y1457032D1*
X2329782Y1456062D1*
X2329982Y1455057D1*
X2330049Y1454035D1*
X2329982Y1453012D1*
X2329782Y1452008D1*
X2329452Y1451037D1*
X2328999Y1450118D1*
X2328430Y1449267D1*
X2327754Y1448496D1*
X2326984Y1447821D1*
X2326132Y1447251D1*
X2325213Y1446798D1*
X2324243Y1446469D1*
X2323238Y1446269D1*
X2322216Y1446202D1*
X2322125D1*
G37*
G36*
X2369438Y1461867D2*
Y1410706D1*
X2420509Y1461867D1*
X2369438D1*
G37*
X565142Y1793513D2*
D10*
X872260D1*
X565142Y1919484D2*
X872260D1*
Y1793513D2*
Y1919484D1*
X565142Y1793513D2*
Y1836810D1*
Y1876188D2*
Y1919484D1*
Y1836810D2*
G03X565142Y1876188I-3J19689D01*
G01*
X1215142Y1793513D2*
X1522260D1*
X1215142Y1919484D2*
X1522260D1*
Y1793513D2*
Y1919484D1*
X1215142Y1793513D2*
Y1836810D1*
Y1876188D2*
Y1919484D1*
Y1836810D2*
G03X1215142Y1876188I-3J19689D01*
G01*
X1865142Y1793513D2*
X2172260D1*
X1865142Y1919484D2*
X2172260D1*
Y1793513D2*
Y1919484D1*
X1865142Y1793513D2*
Y1836810D1*
Y1876188D2*
Y1919484D1*
Y1836810D2*
G03X1865142Y1876188I-3J19689D01*
G01*
X2515142Y1793513D2*
X2822260D1*
X2515142Y1919484D2*
X2822260D1*
Y1793513D2*
Y1919484D1*
X2515142Y1793513D2*
Y1836810D1*
Y1876188D2*
Y1919484D1*
Y1836810D2*
G03X2515142Y1876188I-3J19689D01*
G01*
X3165140Y1793513D2*
X3472259D1*
X3165140Y1919484D2*
X3472259D1*
Y1793513D2*
Y1919484D1*
X3165140Y1793513D2*
Y1836810D1*
Y1876188D2*
Y1919484D1*
Y1836810D2*
G03X3165140Y1876188I-3J19689D01*
G01*
X1544291Y1330711D2*
D13*
Y1357089D1*
X1517913D1*
Y805908D2*
X1544291D1*
Y832286D1*
X993110D2*
Y805908D1*
X1019488D1*
Y1357089D2*
X993110D1*
Y1330711D1*
G36*
X1535236Y1394885D2*
X1535152Y1393600D1*
X1534901Y1392337D1*
X1534487Y1391118D1*
X1533918Y1389963D1*
X1533202Y1388893D1*
X1532353Y1387925D1*
X1531385Y1387076D1*
X1530315Y1386361D1*
X1529160Y1385791D1*
X1527941Y1385377D1*
X1526678Y1385126D1*
X1525394Y1385042D1*
X1524109Y1385126D1*
X1522846Y1385377D1*
X1521627Y1385791D1*
X1520472Y1386361D1*
X1519402Y1387076D1*
X1518434Y1387925D1*
X1517585Y1388893D1*
X1516870Y1389963D1*
X1516300Y1391118D1*
X1515887Y1392337D1*
X1515635Y1393600D1*
X1515551Y1394885D1*
D1*
X1515635Y1396169D1*
X1515887Y1397432D1*
X1516300Y1398651D1*
X1516870Y1399806D1*
X1517585Y1400876D1*
X1518434Y1401844D1*
X1519402Y1402693D1*
X1520472Y1403408D1*
X1521627Y1403978D1*
X1522846Y1404392D1*
X1524109Y1404643D1*
X1525394Y1404727D1*
X1526678Y1404643D1*
X1527941Y1404392D1*
X1529160Y1403978D1*
X1530315Y1403408D1*
X1531385Y1402693D1*
X1532353Y1401844D1*
X1533202Y1400876D1*
X1533918Y1399806D1*
X1534487Y1398651D1*
X1534901Y1397432D1*
X1535152Y1396169D1*
X1535236Y1394885D1*
D1*
G37*
G36*
X3578495Y788656D2*
X3579500Y788590D1*
X3580488Y788394D1*
X3581442Y788070D1*
X3582346Y787624D1*
X3583183Y787065D1*
X3583941Y786400D1*
X3584605Y785643D1*
X3585165Y784805D1*
X3585611Y783902D1*
X3585934Y782948D1*
X3586131Y781959D1*
X3586197Y780954D1*
X3586131Y779949D1*
X3585934Y778961D1*
X3585611Y778007D1*
X3585165Y777103D1*
X3584605Y776265D1*
X3583941Y775508D1*
X3583183Y774844D1*
X3582346Y774284D1*
X3581442Y773838D1*
X3580488Y773514D1*
X3579500Y773318D1*
X3578495Y773252D1*
X3578469D1*
X3577463Y773318D1*
X3576475Y773514D1*
X3575521Y773838D1*
X3574617Y774284D1*
X3573780Y774844D1*
X3573022Y775508D1*
X3572358Y776265D1*
X3571798Y777103D1*
X3571353Y778007D1*
X3571029Y778961D1*
X3570832Y779949D1*
X3570766Y780954D1*
X3570832Y781959D1*
X3571029Y782948D1*
X3571353Y783902D1*
X3571798Y784805D1*
X3572358Y785643D1*
X3573022Y786400D1*
X3573780Y787065D1*
X3574617Y787624D1*
X3575521Y788070D1*
X3576475Y788394D1*
X3577463Y788590D1*
X3578468Y788656D1*
X3578495D1*
G37*
X3489232Y779915D2*
D10*
Y1039745D1*
X3378996Y779915D2*
Y1039745D1*
X3489232D2*
X3378996D1*
X3489232Y779915D2*
X3378996D1*
X2084647Y1043211D2*
D36*
Y944786D1*
X2202757D1*
Y1043211D1*
X2084647D1*
X622328Y1070774D2*
D79*
X619952Y1075527D1*
X615143Y1080335D1*
X610390Y1082712D1*
X600828D1*
X596020Y1080335D1*
X591267Y1075527D1*
X588835Y1070774D1*
X586458Y1063589D1*
Y1051595D1*
X588835Y1044465D1*
X591267Y1039657D1*
X596020Y1034904D1*
X600828Y1032472D1*
X610390D1*
X615143Y1034904D1*
X619952Y1039657D1*
X622328Y1044465D1*
Y1051595D1*
X610390D1*
X671261Y1082712D2*
Y1032472D1*
X637768Y1082712D1*
Y1032472D1*
X686700Y1082712D2*
Y1032472D1*
X703447D1*
X710632Y1034904D1*
X715440Y1039657D1*
X717817Y1044465D1*
X720193Y1051595D1*
Y1063589D1*
X717817Y1070774D1*
X715440Y1075527D1*
X710632Y1080335D1*
X703447Y1082712D1*
X686700D1*
X473541Y971467D2*
X471164Y976221D1*
X466356Y981029D1*
X461603Y983406D1*
X452041D1*
X447233Y981029D1*
X442479Y976221D1*
X440048Y971467D1*
X437671Y964282D1*
Y952289D1*
X440048Y945159D1*
X442479Y940351D1*
X447233Y935597D1*
X452041Y933166D1*
X461603D1*
X466356Y935597D1*
X471164Y940351D1*
X473541Y945159D1*
X488980Y983406D2*
Y933166D1*
X510535D1*
X517720Y935597D1*
X520097Y937974D1*
X522473Y942727D1*
Y949912D1*
X520097Y954721D1*
X517720Y957097D1*
X510535Y959474D1*
X517720Y961906D1*
X520097Y964282D1*
X522473Y969035D1*
Y973844D1*
X520097Y978597D1*
X517720Y981029D1*
X510535Y983406D1*
X488980D1*
Y959474D2*
X510535D1*
X586514Y933166D2*
X620007Y983350D1*
X649816Y983406D2*
X645008Y981029D1*
X640255Y976221D1*
X637823Y971467D1*
X635446Y964282D1*
Y952289D1*
X637823Y945159D1*
X640255Y940351D1*
X645008Y935597D1*
X649816Y933166D1*
X659378D1*
X664131Y935597D1*
X668940Y940351D1*
X671316Y945159D1*
X673693Y952289D1*
Y964282D1*
X671316Y971467D1*
X668940Y976221D1*
X664131Y981029D1*
X659378Y983406D1*
X649816D1*
X720193D2*
X689132D1*
Y933166D1*
X720193D1*
X689132Y959474D2*
X708255D1*
X463924Y872161D2*
X461547Y876914D1*
X456739Y881723D1*
X451986Y884099D1*
X442424D1*
X437616Y881723D1*
X432862Y876914D1*
X430431Y872161D1*
X428054Y864976D1*
Y852982D1*
X430431Y845853D1*
X432862Y841044D1*
X437616Y836291D1*
X442424Y833859D1*
X451986D1*
X456739Y836291D1*
X461547Y841044D1*
X463924Y845853D1*
X479363Y884099D2*
Y833859D1*
X500918D1*
X508103Y836291D1*
X510480Y838668D1*
X512857Y843421D1*
Y850606D1*
X510480Y855414D1*
X508103Y857791D1*
X500918Y860168D1*
X508103Y862599D1*
X510480Y864976D1*
X512857Y869729D1*
Y874538D1*
X510480Y879291D1*
X508103Y881723D1*
X500918Y884099D1*
X479363D1*
Y860168D2*
X500918D1*
X576897Y833859D2*
X610390Y884044D1*
X625829Y884099D2*
X637823Y833859D1*
X649761Y884099D1*
X661699Y833859D1*
X673693Y884099D1*
X720193D2*
X689132D1*
Y833859D1*
X720193D1*
X689132Y860168D2*
X708255D1*
X832820Y2433381D2*
D80*
X830918Y2437184D1*
X827071Y2441030D1*
X823269Y2442932D1*
X815620D1*
X811773Y2441030D1*
X807970Y2437184D1*
X806025Y2433381D1*
X804124Y2427633D1*
Y2418038D1*
X806025Y2412335D1*
X807970Y2408488D1*
X811773Y2404685D1*
X815620Y2402740D1*
X823269D1*
X827071Y2404685D1*
X830918Y2408488D1*
X832820Y2412335D1*
X845171Y2421885D2*
X862415D1*
X868119Y2423786D1*
X870064Y2425732D1*
X871966Y2429534D1*
Y2435282D1*
X870064Y2439085D1*
X868119Y2441030D1*
X862415Y2442932D1*
X845171D1*
Y2402740D1*
X884317Y2442932D2*
Y2414236D1*
X886218Y2408488D1*
X890065Y2404685D1*
X895813Y2402740D1*
X899616D1*
X905364Y2404685D1*
X909210Y2408488D1*
X911112Y2414236D1*
Y2442932D1*
X923463Y2402740D2*
X950258Y2442888D1*
X962609Y2421885D2*
X979853D1*
X985557Y2423786D1*
X987503Y2425732D1*
X989404Y2429534D1*
Y2435282D1*
X987503Y2439085D1*
X985557Y2441030D1*
X979853Y2442932D1*
X962609D1*
Y2402740D1*
X1001755Y2423786D2*
X1018955D1*
X1024703Y2425732D1*
X1026649Y2427633D1*
X1028550Y2431436D1*
Y2435282D1*
X1026649Y2439085D1*
X1024703Y2441030D1*
X1018955Y2442932D1*
X1001755D1*
Y2402740D1*
X1015153Y2423786D2*
X1028550Y2402740D1*
X1069597Y2433381D2*
X1067696Y2437184D1*
X1063849Y2441030D1*
X1060047Y2442932D1*
X1052397D1*
X1048551Y2441030D1*
X1044748Y2437184D1*
X1042803Y2433381D1*
X1040901Y2427633D1*
Y2418038D1*
X1042803Y2412335D1*
X1044748Y2408488D1*
X1048551Y2404685D1*
X1052397Y2402740D1*
X1060047D1*
X1063849Y2404685D1*
X1067696Y2408488D1*
X1069597Y2412335D1*
Y2418038D1*
X1060047D1*
X696789Y2357582D2*
X713989D1*
X719737Y2359528D1*
X721682Y2361429D1*
X723583Y2365231D1*
Y2369078D1*
X721682Y2372881D1*
X719737Y2374826D1*
X713989Y2376728D1*
X696789D1*
Y2336536D1*
X710186Y2357582D2*
X723583Y2336536D1*
X760784Y2376728D2*
X735935D1*
Y2336536D1*
X760784D1*
X735935Y2357582D2*
X751233D1*
X803777Y2336536D2*
X788434Y2376728D1*
X773135Y2336536D1*
X778883Y2349933D2*
X798029D1*
X816128Y2376728D2*
Y2336536D1*
X829525D1*
X835273Y2338481D1*
X839120Y2342284D1*
X841022Y2346130D1*
X842923Y2351834D1*
Y2361429D1*
X841022Y2367177D1*
X839120Y2370979D1*
X835273Y2374826D1*
X829525Y2376728D1*
X816128D1*
X1010797D2*
X1020392Y2336536D1*
X1029943Y2376728D1*
X1039493Y2336536D1*
X1049088Y2376728D1*
X1061439Y2357582D2*
X1078639D1*
X1084387Y2359528D1*
X1086333Y2361429D1*
X1088234Y2365231D1*
Y2369078D1*
X1086333Y2372881D1*
X1084387Y2374826D1*
X1078639Y2376728D1*
X1061439D1*
Y2336536D1*
X1074837Y2357582D2*
X1088234Y2336536D1*
X1100585Y2376728D2*
Y2336536D1*
X1126334Y2376728D2*
Y2336536D1*
X1112937Y2376728D2*
X1139732D1*
X1176932D2*
X1152083D1*
Y2336536D1*
X1176932D1*
X1152083Y2357582D2*
X1167382D1*
X3030074Y2421885D2*
X3047318D1*
X3053022Y2423786D1*
X3054968Y2425732D1*
X3056869Y2429534D1*
Y2435282D1*
X3054968Y2439085D1*
X3053022Y2441030D1*
X3047318Y2442932D1*
X3030074D1*
Y2402740D1*
X3069220Y2421885D2*
X3086464D1*
X3092168Y2423786D1*
X3094114Y2425732D1*
X3096015Y2429534D1*
Y2435282D1*
X3094114Y2439085D1*
X3092168Y2441030D1*
X3086464Y2442932D1*
X3069220D1*
Y2402740D1*
X3108366Y2442932D2*
Y2414236D1*
X3110268Y2408488D1*
X3114114Y2404685D1*
X3119862Y2402740D1*
X3123665D1*
X3129413Y2404685D1*
X3133260Y2408488D1*
X3135161Y2414236D1*
Y2442932D1*
X3147512Y2402740D2*
X3174307Y2442888D1*
X3215354Y2433381D2*
X3213453Y2437184D1*
X3209606Y2441030D1*
X3205804Y2442932D1*
X3198155D1*
X3194308Y2441030D1*
X3190505Y2437184D1*
X3188560Y2433381D1*
X3186658Y2427633D1*
Y2418038D1*
X3188560Y2412335D1*
X3190505Y2408488D1*
X3194308Y2404685D1*
X3198155Y2402740D1*
X3205804D1*
X3209606Y2404685D1*
X3213453Y2408488D1*
X3215354Y2412335D1*
X3227706Y2442932D2*
Y2402740D1*
X3254500Y2442932D2*
Y2402740D1*
X3227706Y2423786D2*
X3254500D1*
X3266852D2*
X3284052D1*
X3289800Y2425732D1*
X3291745Y2427633D1*
X3293647Y2431436D1*
Y2435282D1*
X3291745Y2439085D1*
X3289800Y2441030D1*
X3284052Y2442932D1*
X3266852D1*
Y2402740D1*
X3280249Y2423786D2*
X3293647Y2402740D1*
X2921789Y2357582D2*
X2938989D1*
X2944737Y2359528D1*
X2946682Y2361429D1*
X2948583Y2365231D1*
Y2369078D1*
X2946682Y2372881D1*
X2944737Y2374826D1*
X2938989Y2376728D1*
X2921789D1*
Y2336536D1*
X2935186Y2357582D2*
X2948583Y2336536D1*
X2985784Y2376728D2*
X2960935D1*
Y2336536D1*
X2985784D1*
X2960935Y2357582D2*
X2976233D1*
X3028777Y2336536D2*
X3013434Y2376728D1*
X2998135Y2336536D1*
X3003883Y2349933D2*
X3023029D1*
X3041128Y2376728D2*
Y2336536D1*
X3054525D1*
X3060273Y2338481D1*
X3064120Y2342284D1*
X3066022Y2346130D1*
X3067923Y2351834D1*
Y2361429D1*
X3066022Y2367177D1*
X3064120Y2370979D1*
X3060273Y2374826D1*
X3054525Y2376728D1*
X3041128D1*
X3235797D2*
X3245392Y2336536D1*
X3254943Y2376728D1*
X3264493Y2336536D1*
X3274088Y2376728D1*
X3286439Y2357582D2*
X3303639D1*
X3309387Y2359528D1*
X3311333Y2361429D1*
X3313234Y2365231D1*
Y2369078D1*
X3311333Y2372881D1*
X3309387Y2374826D1*
X3303639Y2376728D1*
X3286439D1*
Y2336536D1*
X3299837Y2357582D2*
X3313234Y2336536D1*
X3325585Y2376728D2*
Y2336536D1*
X3351334Y2376728D2*
Y2336536D1*
X3337937Y2376728D2*
X3364732D1*
X3401932D2*
X3377083D1*
Y2336536D1*
X3401932D1*
X3377083Y2357582D2*
X3392382D1*
X494159Y2991301D2*
D81*
X491307Y2997005D1*
X485537Y3002775D1*
X479833Y3005627D1*
X468359D1*
X462589Y3002775D1*
X456885Y2997005D1*
X453967Y2991301D1*
X451115Y2982679D1*
Y2968287D1*
X453967Y2959731D1*
X456885Y2953961D1*
X462589Y2948257D1*
X468359Y2945339D1*
X479833D1*
X485537Y2948257D1*
X491307Y2953961D1*
X494159Y2959731D1*
X512686Y3005627D2*
Y2945339D1*
X547108D1*
X565635Y3005627D2*
Y2962583D1*
X568487Y2953961D1*
X574257Y2948257D1*
X582879Y2945339D1*
X588583D1*
X597205Y2948257D1*
X602975Y2953961D1*
X605827Y2962583D1*
Y3005627D1*
X664546Y2997005D2*
X658842Y3002775D1*
X650220Y3005627D1*
X638746D1*
X630124Y3002775D1*
X624354Y2997005D1*
Y2991301D1*
X627272Y2985531D1*
X630124Y2982679D1*
X635828Y2979827D1*
X653072Y2974057D1*
X658842Y2971205D1*
X661694Y2968287D1*
X664546Y2962583D1*
Y2953961D1*
X658842Y2948257D1*
X650220Y2945339D1*
X638746D1*
X630124Y2948257D1*
X624354Y2953961D1*
X703169Y3005627D2*
Y2945339D1*
X683073Y3005627D2*
X723265D1*
X779066D2*
X741792D1*
Y2945339D1*
X779066D1*
X741792Y2976909D2*
X764740D1*
X797593D2*
X823393D1*
X832015Y2979827D1*
X834933Y2982679D1*
X837785Y2988383D1*
Y2994153D1*
X834933Y2999857D1*
X832015Y3002775D1*
X823393Y3005627D1*
X797593D1*
Y2945339D1*
X817689Y2976909D2*
X837785Y2945339D1*
X856312Y2976909D2*
X882112D1*
X890734Y2979827D1*
X893652Y2982679D1*
X896504Y2988383D1*
Y2994153D1*
X893652Y2999857D1*
X890734Y3002775D1*
X882112Y3005627D1*
X856312D1*
Y2945339D1*
X876408Y2976909D2*
X896504Y2945339D1*
X915031Y2976909D2*
X940831D1*
X949453Y2979827D1*
X952371Y2982679D1*
X955223Y2988383D1*
Y2994153D1*
X952371Y2999857D1*
X949453Y3002775D1*
X940831Y3005627D1*
X915031D1*
Y2945339D1*
X935127Y2976909D2*
X955223Y2945339D1*
X976602Y2951109D2*
X973750Y2948191D1*
X976602Y2945339D1*
X979520Y2948191D1*
X976602Y2951109D1*
X1041091Y2991301D2*
X1038239Y2997005D1*
X1032469Y3002775D1*
X1026765Y3005627D1*
X1015291D1*
X1009521Y3002775D1*
X1003818Y2997005D1*
X1000899Y2991301D1*
X998047Y2982679D1*
Y2968287D1*
X1000899Y2959731D1*
X1003818Y2953961D1*
X1009521Y2948257D1*
X1015291Y2945339D1*
X1026765D1*
X1032469Y2948257D1*
X1038239Y2953961D1*
X1041091Y2959731D1*
X1076862Y3005627D2*
X1071092Y3002775D1*
X1065389Y2997005D1*
X1062470Y2991301D1*
X1059618Y2982679D1*
Y2968287D1*
X1062470Y2959731D1*
X1065389Y2953961D1*
X1071092Y2948257D1*
X1076862Y2945339D1*
X1088336D1*
X1094040Y2948257D1*
X1099810Y2953961D1*
X1102662Y2959731D1*
X1105514Y2968287D1*
Y2982679D1*
X1102662Y2991301D1*
X1099810Y2997005D1*
X1094040Y3002775D1*
X1088336Y3005627D1*
X1076862D1*
X1169937Y2945339D2*
Y3005627D1*
X1146989Y2945339D1*
X1124041Y3005627D1*
Y2945339D1*
X3292724Y2991260D2*
X3298494Y2994178D1*
X3307116Y3002734D1*
Y2942512D1*
X3325643Y2991260D2*
X3331413Y2994178D1*
X3340035Y3002734D1*
Y2942512D1*
X3358562D2*
X3398754Y3002734D1*
X3420200Y2988408D2*
Y2991260D1*
X3423051Y2997030D1*
X3425903Y2999882D1*
X3431673Y3002734D1*
X3443147D1*
X3448851Y2999882D1*
X3451703Y2997030D1*
X3454621Y2991260D1*
Y2985556D1*
X3451703Y2979786D1*
X3445999Y2971231D1*
X3417281Y2942512D1*
X3457473D1*
X3493244Y3002734D2*
X3484622Y2999882D1*
X3478852Y2991260D1*
X3476000Y2976934D1*
Y2968312D1*
X3478852Y2953986D1*
X3484622Y2945364D1*
X3493244Y2942512D1*
X3498948D1*
X3507570Y2945364D1*
X3513274Y2953986D1*
X3516192Y2968312D1*
Y2976934D1*
X3513274Y2991260D1*
X3507570Y2999882D1*
X3498948Y3002734D1*
X3493244D1*
X3513274Y2991260D2*
X3478852Y2953986D1*
X3537638Y2988408D2*
Y2991260D1*
X3540490Y2997030D1*
X3543342Y2999882D1*
X3549112Y3002734D1*
X3560586D1*
X3566289Y2999882D1*
X3569141Y2997030D1*
X3572060Y2991260D1*
Y2985556D1*
X3569141Y2979786D1*
X3563438Y2971231D1*
X3534720Y2942512D1*
X3574912D1*
X3610683Y3002734D2*
X3602061Y2999882D1*
X3596291Y2991260D1*
X3593439Y2976934D1*
Y2968312D1*
X3596291Y2953986D1*
X3602061Y2945364D1*
X3610683Y2942512D1*
X3616387D1*
X3625009Y2945364D1*
X3630712Y2953986D1*
X3633631Y2968312D1*
Y2976934D1*
X3630712Y2991260D1*
X3625009Y2999882D1*
X3616387Y3002734D1*
X3610683D1*
X3630712Y2991260D2*
X3596291Y2953986D1*
X1312163Y2248115D2*
D82*
X1262376D1*
Y2167731D1*
Y2209825D2*
X1292974D1*
X1398149Y2167731D2*
X1367463Y2248115D1*
X1336866Y2167731D1*
X1348362Y2194526D2*
X1386653D1*
X1484046Y2167731D2*
Y2248115D1*
X1453449Y2167731D1*
X1422852Y2248115D1*
Y2167731D1*
X1508749Y2248115D2*
Y2167731D1*
X1590844Y2229014D2*
X1587041Y2236619D1*
X1579348Y2244313D1*
X1571742Y2248115D1*
X1556444D1*
X1548750Y2244313D1*
X1541145Y2236619D1*
X1537254Y2229014D1*
X1533452Y2217518D1*
Y2198329D1*
X1537254Y2186921D1*
X1541145Y2179227D1*
X1548750Y2171622D1*
X1556444Y2167731D1*
X1571742D1*
X1579348Y2171622D1*
X1587041Y2179227D1*
X1590844Y2186921D1*
X1638539Y2248115D2*
X1630845Y2244313D1*
X1623240Y2236619D1*
X1619349Y2229014D1*
X1615546Y2217518D1*
Y2198329D1*
X1619349Y2186921D1*
X1623240Y2179227D1*
X1630845Y2171622D1*
X1638539Y2167731D1*
X1653837D1*
X1661442Y2171622D1*
X1669136Y2179227D1*
X1672938Y2186921D1*
X1676741Y2198329D1*
Y2217518D1*
X1672938Y2229014D1*
X1669136Y2236619D1*
X1661442Y2244313D1*
X1653837Y2248115D1*
X1638539D1*
X1762638Y2167731D2*
Y2248115D1*
X1732041Y2167731D1*
X1701444Y2248115D1*
Y2167731D1*
X1865102Y2248115D2*
Y2167731D1*
X1891897D1*
X1903393Y2171622D1*
X1911087Y2179227D1*
X1914889Y2186921D1*
X1918692Y2198329D1*
Y2217518D1*
X1914889Y2229014D1*
X1911087Y2236619D1*
X1903393Y2244313D1*
X1891897Y2248115D1*
X1865102D1*
X1943395D2*
Y2190724D1*
X1947197Y2179227D1*
X1954891Y2171622D1*
X1966387Y2167731D1*
X1973992D1*
X1985488Y2171622D1*
X1993181Y2179227D1*
X1996984Y2190724D1*
Y2248115D1*
X2082881Y2167731D2*
Y2248115D1*
X2052284Y2167731D1*
X2021687Y2248115D1*
Y2167731D1*
X2107584Y2206022D2*
X2142072D1*
X2153480Y2209825D1*
X2157371Y2213716D1*
X2161173Y2221321D1*
Y2232817D1*
X2157371Y2240422D1*
X2153480Y2244313D1*
X2142072Y2248115D1*
X2107584D1*
Y2167731D1*
X2235574Y2248115D2*
X2185876D1*
Y2167731D1*
X2235574D1*
X2185876Y2209825D2*
X2216473D1*
X2260277D2*
X2294677D1*
X2306173Y2213716D1*
X2310064Y2217518D1*
X2313867Y2225123D1*
Y2232817D1*
X2310064Y2240422D1*
X2306173Y2244313D1*
X2294677Y2248115D1*
X2260277D1*
Y2167731D1*
X2287072Y2209825D2*
X2313867Y2167731D1*
X2338569D2*
X2392159Y2248027D1*
X2416861Y2248115D2*
X2436051Y2167731D1*
X2455152Y2248115D1*
X2474253Y2167731D1*
X2493443Y2248115D1*
X2518146Y2209825D2*
X2552545D1*
X2564042Y2213716D1*
X2567933Y2217518D1*
X2571735Y2225123D1*
Y2232817D1*
X2567933Y2240422D1*
X2564042Y2244313D1*
X2552545Y2248115D1*
X2518146D1*
Y2167731D1*
X2544940Y2209825D2*
X2571735Y2167731D1*
X2596438Y2248115D2*
Y2167731D1*
X2647935Y2248115D2*
Y2167731D1*
X2621141Y2248115D2*
X2674730D1*
X2749131D2*
X2699433D1*
Y2167731D1*
X2749131D1*
X2699433Y2209825D2*
X2730030D1*
X2773834D2*
X2808234D1*
X2819730Y2213716D1*
X2823621Y2217518D1*
X2827423Y2225123D1*
Y2232817D1*
X2823621Y2240422D1*
X2819730Y2244313D1*
X2808234Y2248115D1*
X2773834D1*
Y2167731D1*
X2800629Y2209825D2*
X2827423Y2167731D1*
X2147921Y1169063D2*
D79*
X2145544Y1173816D1*
X2140736Y1178625D1*
X2135982Y1181001D1*
X2126421D1*
X2121612Y1178625D1*
X2116859Y1173816D1*
X2114427Y1169063D1*
X2112051Y1161878D1*
Y1149885D1*
X2114427Y1142755D1*
X2116859Y1137946D1*
X2121612Y1133193D1*
X2126421Y1130761D1*
X2135982D1*
X2140736Y1133193D1*
X2145544Y1137946D1*
X2147921Y1142755D1*
X2163360Y1171384D2*
X2168168Y1173816D1*
X2175353Y1180946D1*
Y1130761D1*
X1999669Y1037812D2*
X1997293Y1042566D1*
X1992484Y1047374D1*
X1987731Y1049751D1*
X1978170D1*
X1973361Y1047374D1*
X1968608Y1042566D1*
X1966176Y1037812D1*
X1963800Y1030627D1*
Y1018634D1*
X1966176Y1011504D1*
X1968608Y1006696D1*
X1973361Y1001942D1*
X1978170Y999511D1*
X1987731D1*
X1992484Y1001942D1*
X1997293Y1006696D1*
X1999669Y1011504D1*
X2017541Y1037757D2*
Y1040134D1*
X2019917Y1044942D1*
X2022294Y1047319D1*
X2027102Y1049695D1*
X2036664D1*
X2041417Y1047319D1*
X2043794Y1044942D1*
X2046225Y1040134D1*
Y1035381D1*
X2043794Y1030572D1*
X2039040Y1023442D1*
X2015109Y999511D1*
X2048602D1*
X3331482Y1131217D2*
X3326728Y1128840D1*
X3321920Y1124032D1*
X3319543Y1119278D1*
Y1109717D1*
X3321920Y1104908D1*
X3326728Y1100155D1*
X3331482Y1097723D1*
X3338667Y1095347D1*
X3350660D1*
X3357790Y1097723D1*
X3362598Y1100155D1*
X3367351Y1104908D1*
X3369783Y1109717D1*
Y1119278D1*
X3367351Y1124032D1*
X3362598Y1128840D1*
X3357790Y1131217D1*
X3319599Y1151464D2*
Y1177717D1*
X3338722Y1163403D1*
Y1170588D1*
X3341098Y1175341D1*
X3343475Y1177717D1*
X3350660Y1180149D1*
X3355413D1*
X3362598Y1177717D1*
X3367407Y1172964D1*
X3369783Y1165779D1*
Y1158594D1*
X3367407Y1151464D1*
X3364975Y1149088D1*
X3360222Y1146656D1*
X3333352Y667530D2*
X3328598Y665153D1*
X3323790Y660345D1*
X3321413Y655592D1*
Y646030D1*
X3323790Y641221D1*
X3328598Y636468D1*
X3333352Y634036D1*
X3340537Y631660D1*
X3352530D1*
X3359660Y634036D1*
X3364468Y636468D1*
X3369222Y641221D1*
X3371653Y646030D1*
Y655592D1*
X3369222Y660345D1*
X3364468Y665153D1*
X3359660Y667530D1*
X3371653Y706901D2*
X3321469D1*
X3354907Y682969D1*
Y718839D1*
X590212Y2128651D2*
Y2078411D1*
X606958D1*
X614143Y2080843D1*
X618952Y2085596D1*
X621328Y2090404D1*
X623705Y2097534D1*
Y2109528D1*
X621328Y2116713D1*
X618952Y2121466D1*
X614143Y2126274D1*
X606958Y2128651D1*
X590212D1*
X639144Y2119034D2*
X643953Y2121466D1*
X651138Y2128596D1*
Y2078411D1*
X899858Y2128769D2*
Y2078529D1*
X916605D1*
X923790Y2080961D1*
X928598Y2085714D1*
X930975Y2090522D1*
X933351Y2097652D1*
Y2109646D1*
X930975Y2116831D1*
X928598Y2121584D1*
X923790Y2126392D1*
X916605Y2128769D1*
X899858D1*
X951222Y2116776D2*
Y2119152D1*
X953599Y2123961D1*
X955976Y2126337D1*
X960784Y2128714D1*
X970346D1*
X975099Y2126337D1*
X977475Y2123961D1*
X979907Y2119152D1*
Y2114399D1*
X977475Y2109590D1*
X972722Y2102461D1*
X948790Y2078529D1*
X982284D1*
X2798740Y2125167D2*
Y2074927D1*
X2815486D1*
X2822672Y2077358D1*
X2827480Y2082112D1*
X2829857Y2086920D1*
X2832233Y2094050D1*
Y2106043D1*
X2829857Y2113228D1*
X2827480Y2117982D1*
X2822672Y2122790D1*
X2815486Y2125167D1*
X2798740D1*
X2852481Y2125111D2*
X2878734D1*
X2864419Y2105988D1*
X2871604D1*
X2876357Y2103612D1*
X2878734Y2101235D1*
X2881166Y2094050D1*
Y2089297D1*
X2878734Y2082112D1*
X2873981Y2077303D1*
X2866796Y2074927D1*
X2859611D1*
X2852481Y2077303D1*
X2850104Y2079735D1*
X2847672Y2084488D1*
X3129919Y2126970D2*
Y2076730D1*
X3146666D1*
X3153851Y2079162D1*
X3158659Y2083915D1*
X3161036Y2088723D1*
X3163412Y2095853D1*
Y2107847D1*
X3161036Y2115032D1*
X3158659Y2119785D1*
X3153851Y2124593D1*
X3146666Y2126970D1*
X3129919D1*
X3202783Y2076730D2*
Y2126915D1*
X3178852Y2093476D1*
X3214721D1*
X1772206Y656423D2*
Y606183D1*
X1788952D1*
X1796137Y608614D1*
X1800946Y613368D1*
X1803322Y618176D1*
X1805699Y625306D1*
Y637299D1*
X1803322Y644484D1*
X1800946Y649238D1*
X1796137Y654046D1*
X1788952Y656423D1*
X1772206D1*
X1849823Y656367D2*
X1825947D1*
X1823570Y634867D1*
X1825947Y637244D1*
X1833132Y639676D1*
X1840262D1*
X1847447Y637244D1*
X1852255Y632491D1*
X1854632Y625306D1*
Y620553D1*
X1852255Y613368D1*
X1847447Y608559D1*
X1840262Y606183D1*
X1833132D1*
X1825947Y608559D1*
X1823570Y610991D1*
X1821138Y615744D1*
X1908523Y2482762D2*
D82*
X1858736D1*
Y2402378D1*
Y2444472D2*
X1889333D1*
X1933226D2*
X1967625D1*
X1979121Y2448363D1*
X1983012Y2452165D1*
X1986815Y2459770D1*
Y2467464D1*
X1983012Y2475069D1*
X1979121Y2478960D1*
X1967625Y2482762D1*
X1933226D1*
Y2402378D1*
X1960020Y2444472D2*
X1986815Y2402378D1*
X2034510Y2482762D2*
X2026816Y2478960D1*
X2019211Y2471266D1*
X2015320Y2463661D1*
X2011518Y2452165D1*
Y2432976D1*
X2015320Y2421568D1*
X2019211Y2413874D1*
X2026816Y2406269D1*
X2034510Y2402378D1*
X2049809D1*
X2057414Y2406269D1*
X2065107Y2413874D1*
X2068910Y2421568D1*
X2072712Y2432976D1*
Y2452165D1*
X2068910Y2463661D1*
X2065107Y2471266D1*
X2057414Y2478960D1*
X2049809Y2482762D1*
X2034510D1*
X2151004D2*
Y2402378D1*
X2097415Y2482762D1*
Y2402378D1*
X2202502Y2482762D2*
Y2402378D1*
X2175707Y2482762D2*
X2229296D1*
X1891409Y3008555D2*
Y2928171D1*
X1925897D1*
X1937394Y2932062D1*
X1941196Y2935865D1*
X1944999Y2943470D1*
Y2954966D1*
X1941196Y2962659D1*
X1937394Y2966462D1*
X1925897Y2970264D1*
X1937394Y2974155D1*
X1941196Y2977958D1*
X1944999Y2985563D1*
Y2993256D1*
X1941196Y3000862D1*
X1937394Y3004753D1*
X1925897Y3008555D1*
X1891409D1*
Y2970264D2*
X1925897D1*
X2030984Y2928171D2*
X2000299Y3008555D1*
X1969701Y2928171D1*
X1981197Y2954966D2*
X2019488D1*
X2113079Y2989454D2*
X2109276Y2997059D1*
X2101583Y3004753D1*
X2093978Y3008555D1*
X2078679D1*
X2070986Y3004753D1*
X2063381Y2997059D1*
X2059490Y2989454D1*
X2055687Y2977958D1*
Y2958768D1*
X2059490Y2947361D1*
X2063381Y2939667D1*
X2070986Y2932062D1*
X2078679Y2928171D1*
X2093978D1*
X2101583Y2932062D1*
X2109276Y2939667D1*
X2113079Y2947361D1*
X2137782Y3008555D2*
Y2928171D1*
X2191371Y3008555D2*
X2137782Y2954966D1*
X2156883Y2974155D2*
X2191371Y2928171D1*
X3603566Y2492241D2*
D79*
Y2453995D1*
X3601189Y2446810D1*
X3598757Y2444433D1*
X3594004Y2442001D1*
X3589196D1*
X3584443Y2444433D1*
X3582066Y2446810D1*
X3579634Y2453995D1*
Y2458748D1*
X3619005Y2482625D2*
X3623813Y2485056D1*
X3630999Y2492186D1*
Y2442001D1*
X1615603Y528521D2*
Y490274D1*
X1613227Y483089D1*
X1610795Y480713D1*
X1606042Y478281D1*
X1601233D1*
X1596480Y480713D1*
X1594103Y483089D1*
X1591672Y490274D1*
Y495028D1*
X1633474Y516527D2*
Y518904D1*
X1635851Y523713D1*
X1638228Y526089D1*
X1643036Y528466D1*
X1652598D1*
X1657351Y526089D1*
X1659727Y523713D1*
X1662159Y518904D1*
Y514151D1*
X1659727Y509342D1*
X1654974Y502213D1*
X1631042Y478281D1*
X1664536D1*
X926769Y968999D2*
X888522D1*
X881337Y971376D1*
X878961Y973808D1*
X876529Y978561D1*
Y983369D1*
X878961Y988122D1*
X881337Y990499D1*
X888522Y992931D1*
X893276D1*
X926714Y948751D2*
Y922498D1*
X907590Y936813D1*
Y929628D1*
X905214Y924875D1*
X902837Y922498D1*
X895652Y920067D1*
X890899D1*
X883714Y922498D1*
X878906Y927252D1*
X876529Y934437D1*
Y941622D1*
X878906Y948751D1*
X881337Y951128D1*
X886091Y953560D1*
X3095473Y528465D2*
Y490218D1*
X3093097Y483033D1*
X3090665Y480656D1*
X3085912Y478225D1*
X3081103D1*
X3076350Y480656D1*
X3073973Y483033D1*
X3071542Y490218D1*
Y494971D1*
X3139597Y528409D2*
X3115721D1*
X3113344Y506909D1*
X3115721Y509286D1*
X3122906Y511718D1*
X3130036D1*
X3137221Y509286D1*
X3142029Y504533D1*
X3144406Y497348D1*
Y492595D1*
X3142029Y485410D1*
X3137221Y480601D1*
X3130036Y478225D1*
X3122906D1*
X3115721Y480601D1*
X3113344Y483033D1*
X3110913Y487786D1*
X3579336Y1095214D2*
X3617582D1*
X3624768Y1092838D1*
X3627144Y1090406D1*
X3629576Y1085653D1*
Y1080844D1*
X3627144Y1076091D1*
X3624768Y1073714D1*
X3617582Y1071282D1*
X3612829D1*
X3586521Y1139338D2*
X3581768Y1136962D1*
X3579391Y1129777D1*
Y1125024D1*
X3581768Y1117838D1*
X3588953Y1113030D1*
X3600891Y1110653D1*
X3612829D1*
X3622391Y1113030D1*
X3627199Y1117838D1*
X3629576Y1125024D1*
Y1127400D1*
X3627199Y1134530D1*
X3622391Y1139338D1*
X3615206Y1141715D1*
X3612829D1*
X3605644Y1139338D1*
X3600891Y1134530D1*
X3598515Y1127400D1*
Y1125024D1*
X3600891Y1117838D1*
X3605644Y1113030D1*
X3612829Y1110653D1*
X2288238Y569570D2*
X2309738D1*
X2316923Y572001D1*
X2319354Y574378D1*
X2321731Y579131D1*
Y583940D1*
X2319354Y588693D1*
X2316923Y591125D1*
X2309738Y593501D1*
X2288238D1*
Y543261D1*
X2304984Y569570D2*
X2321731Y543261D1*
X2337170Y583884D2*
X2341979Y586316D1*
X2349164Y593446D1*
Y543261D1*
X3351819Y1383500D2*
X3373318D1*
X3380503Y1385932D1*
X3382935Y1388308D1*
X3385312Y1393062D1*
Y1397870D1*
X3382935Y1402623D1*
X3380503Y1405055D1*
X3373318Y1407432D1*
X3351819D1*
Y1357192D1*
X3368565Y1383500D2*
X3385312Y1357192D1*
X3403183Y1395438D2*
Y1397815D1*
X3405560Y1402623D1*
X3407936Y1405000D1*
X3412745Y1407376D1*
X3422306D1*
X3427059Y1405000D1*
X3429436Y1402623D1*
X3431868Y1397815D1*
Y1393062D1*
X3429436Y1388253D1*
X3424683Y1381123D1*
X3400751Y1357192D1*
X3434244D1*
X3354487Y1305685D2*
X3375986D1*
X3383171Y1308117D1*
X3385603Y1310494D1*
X3387980Y1315247D1*
Y1320055D1*
X3385603Y1324808D1*
X3383171Y1327240D1*
X3375986Y1329617D1*
X3354487D1*
Y1279377D1*
X3371233Y1305685D2*
X3387980Y1279377D1*
X3408228Y1329562D2*
X3434481D1*
X3420166Y1310438D1*
X3427351D1*
X3432104Y1308062D1*
X3434481Y1305685D1*
X3436912Y1298500D1*
Y1293747D1*
X3434481Y1286562D1*
X3429727Y1281753D1*
X3422542Y1279377D1*
X3415357D1*
X3408228Y1281753D1*
X3405851Y1284185D1*
X3403419Y1288938D1*
X3352452Y1458976D2*
X3373952D1*
X3381137Y1461408D1*
X3383569Y1463785D1*
X3385945Y1468538D1*
Y1473346D1*
X3383569Y1478100D1*
X3381137Y1480532D1*
X3373952Y1482908D1*
X3352452D1*
Y1432668D1*
X3369198Y1458976D2*
X3385945Y1432668D1*
X3425316D2*
Y1482853D1*
X3401384Y1449415D1*
X3437254D1*
X564231Y1261518D2*
Y1283018D1*
X561799Y1290203D1*
X559422Y1292635D1*
X554669Y1295011D1*
X549861D1*
X545108Y1292635D1*
X542676Y1290203D1*
X540299Y1283018D1*
Y1261518D1*
X590539D1*
X564231Y1278265D2*
X590539Y1295011D1*
X540355Y1339135D2*
Y1315259D1*
X561854Y1312882D1*
X559478Y1315259D1*
X557046Y1322444D1*
Y1329574D1*
X559478Y1336759D1*
X564231Y1341567D1*
X571416Y1343944D1*
X576169D1*
X583354Y1341567D1*
X588163Y1336759D1*
X590539Y1329574D1*
Y1322444D1*
X588163Y1315259D1*
X585731Y1312882D1*
X580978Y1310451D1*
X638678Y1261082D2*
Y1282582D1*
X636247Y1289767D1*
X633870Y1292198D1*
X629117Y1294575D1*
X624308D1*
X619555Y1292198D1*
X617123Y1289767D1*
X614747Y1282582D1*
Y1261082D1*
X664987D1*
X638678Y1277828D2*
X664987Y1294575D1*
X621932Y1338699D2*
X617179Y1336323D1*
X614802Y1329138D1*
Y1324384D1*
X617179Y1317199D1*
X624364Y1312391D1*
X636302Y1310014D1*
X648240D1*
X657802Y1312391D1*
X662610Y1317199D1*
X664987Y1324384D1*
Y1326761D1*
X662610Y1333891D1*
X657802Y1338699D1*
X650617Y1341076D1*
X648240D1*
X641055Y1338699D1*
X636302Y1333891D1*
X633925Y1326761D1*
Y1324384D1*
X636302Y1317199D1*
X641055Y1312391D1*
X648240Y1310014D1*
X715331Y1259316D2*
Y1280816D1*
X712899Y1288001D1*
X710522Y1290433D1*
X705769Y1292809D1*
X700961D1*
X696207Y1290433D1*
X693776Y1288001D1*
X691399Y1280816D1*
Y1259316D1*
X741639D1*
X715331Y1276063D2*
X741639Y1292809D1*
Y1317810D2*
X691454Y1341742D1*
Y1308248D1*
X794409Y1256916D2*
Y1278416D1*
X791978Y1285601D1*
X789601Y1288032D1*
X784848Y1290409D1*
X780039D1*
X775286Y1288032D1*
X772854Y1285601D1*
X770478Y1278416D1*
Y1256916D1*
X820718D1*
X794409Y1273662D2*
X820718Y1290409D1*
X770533Y1317787D2*
X772910Y1310657D1*
X777663Y1308225D1*
X782471D1*
X787224Y1310657D1*
X789656Y1315410D1*
X792033Y1324972D1*
X794409Y1332157D1*
X799218Y1336910D1*
X803971Y1339286D1*
X811156D1*
X815909Y1336910D1*
X818341Y1334533D1*
X820718Y1327348D1*
Y1317787D1*
X818341Y1310657D1*
X815909Y1308225D1*
X811156Y1305848D1*
X803971D1*
X799218Y1308225D1*
X794409Y1313033D1*
X792033Y1320163D1*
X789656Y1329725D1*
X787224Y1334533D1*
X782471Y1336910D1*
X777663D1*
X772910Y1334533D1*
X770533Y1327348D1*
Y1317787D1*
X2712861Y1613870D2*
Y1578000D1*
X2715238Y1570815D1*
X2720046Y1566062D1*
X2727231Y1563630D1*
X2731984D1*
X2739169Y1566062D1*
X2743978Y1570815D1*
X2746354Y1578000D1*
Y1613870D1*
X2761794Y1604253D2*
X2766602Y1606685D1*
X2773787Y1613815D1*
Y1563630D1*
X491919Y1815286D2*
X527789D1*
X534974Y1817662D1*
X539727Y1822471D1*
X542159Y1829656D1*
Y1834409D1*
X539727Y1841594D1*
X534974Y1846402D1*
X527789Y1848779D1*
X491919D1*
X503912Y1866650D2*
X501536D1*
X496727Y1869027D1*
X494351Y1871403D1*
X491974Y1876212D1*
Y1885773D1*
X494351Y1890527D1*
X496727Y1892903D1*
X501536Y1895335D1*
X506289D1*
X511097Y1892903D1*
X518227Y1888150D1*
X542159Y1864218D1*
Y1897712D1*
X1141919Y1815286D2*
X1177789D1*
X1184974Y1817662D1*
X1189727Y1822471D1*
X1192159Y1829656D1*
Y1834409D1*
X1189727Y1841594D1*
X1184974Y1846402D1*
X1177789Y1848779D1*
X1141919D1*
X1141974Y1869027D2*
Y1895280D1*
X1161097Y1880965D1*
Y1888150D1*
X1163474Y1892903D1*
X1165850Y1895280D1*
X1173035Y1897712D1*
X1177789D1*
X1184974Y1895280D1*
X1189782Y1890527D1*
X1192159Y1883342D1*
Y1876157D1*
X1189782Y1869027D1*
X1187350Y1866650D1*
X1182597Y1864218D1*
X1791919Y1814097D2*
X1827789D1*
X1834974Y1816474D1*
X1839727Y1821282D1*
X1842159Y1828468D1*
Y1833221D1*
X1839727Y1840406D1*
X1834974Y1845214D1*
X1827789Y1847591D1*
X1791919D1*
X1842159Y1886962D2*
X1791974D1*
X1825412Y1863030D1*
Y1898900D1*
X2441919Y1815286D2*
X2477789D1*
X2484974Y1817662D1*
X2489727Y1822471D1*
X2492159Y1829656D1*
Y1834409D1*
X2489727Y1841594D1*
X2484974Y1846402D1*
X2477789Y1848779D1*
X2441919D1*
X2441974Y1892903D2*
Y1869027D1*
X2463474Y1866650D1*
X2461097Y1869027D1*
X2458665Y1876212D1*
Y1883342D1*
X2461097Y1890527D1*
X2465850Y1895335D1*
X2473035Y1897712D1*
X2477789D1*
X2484974Y1895335D1*
X2489782Y1890527D1*
X2492159Y1883342D1*
Y1876212D1*
X2489782Y1869027D1*
X2487350Y1866650D1*
X2482597Y1864218D1*
X3091917Y1816502D2*
X3127787D1*
X3134972Y1818878D1*
X3139725Y1823687D1*
X3142157Y1830872D1*
Y1835625D1*
X3139725Y1842810D1*
X3134972Y1847618D1*
X3127787Y1849995D1*
X3091917D1*
X3099102Y1894119D2*
X3094349Y1891743D1*
X3091973Y1884557D1*
Y1879804D1*
X3094349Y1872619D1*
X3101534Y1867811D1*
X3113472Y1865434D1*
X3125411D1*
X3134972Y1867811D1*
X3139781Y1872619D1*
X3142157Y1879804D1*
Y1882181D1*
X3139781Y1889311D1*
X3134972Y1894119D1*
X3127787Y1896496D1*
X3125411D1*
X3118226Y1894119D1*
X3113472Y1889311D1*
X3111096Y1882181D1*
Y1879804D1*
X3113472Y1872619D1*
X3118226Y1867811D1*
X3125411Y1865434D1*
X1238130Y1475328D2*
Y1439458D1*
X1240506Y1432273D1*
X1245315Y1427520D1*
X1252500Y1425088D1*
X1257253D1*
X1264438Y1427520D1*
X1269246Y1432273D1*
X1271623Y1439458D1*
Y1475328D1*
X1296624Y1425088D2*
X1320555Y1475273D1*
X1287062D1*
X3273391Y738317D2*
X3309261D1*
X3316446Y740694D1*
X3321199Y745502D1*
X3323631Y752687D1*
Y757441D1*
X3321199Y764626D1*
X3316446Y769434D1*
X3309261Y771811D1*
X3273391D1*
X3273446Y799188D2*
X3275823Y792058D1*
X3280576Y789626D1*
X3285385D1*
X3290138Y792058D1*
X3292570Y796812D1*
X3294946Y806373D1*
X3297323Y813558D1*
X3302131Y818311D1*
X3306884Y820688D1*
X3314069D1*
X3318823Y818311D1*
X3321255Y815935D1*
X3323631Y808750D1*
Y799188D1*
X3321255Y792058D1*
X3318823Y789626D1*
X3314069Y787250D1*
X3306884D1*
X3302131Y789626D1*
X3297323Y794435D1*
X3294946Y801565D1*
X3292570Y811126D1*
X3290138Y815935D1*
X3285385Y818311D1*
X3280576D1*
X3275823Y815935D1*
X3273446Y808750D1*
Y799188D1*
X2107034Y928329D2*
X2126158Y904398D1*
Y878089D1*
X2145281Y928329D2*
X2126158Y904398D1*
X2160720Y918712D2*
X2165529Y921144D1*
X2172714Y928274D1*
Y878089D1*
M02*
